<?xml version="1.0" encoding="UTF-8" standalone="no"?>
<!-- Created with Inkscape (http://www.inkscape.org/) -->

<svg
   width="280mm"
   height="90mm"
   viewBox="0 0 280 90"
   version="1.1"
   id="svg1"
   xml:space="preserve"
   inkscape:version="1.4 (86a8ad7, 2024-10-11)"
   sodipodi:docname="logo_text_white.svg"
   inkscape:export-filename="logo_text_white.png"
   inkscape:export-xdpi="300"
   inkscape:export-ydpi="300"
   xmlns:inkscape="http://www.inkscape.org/namespaces/inkscape"
   xmlns:sodipodi="http://sodipodi.sourceforge.net/DTD/sodipodi-0.dtd"
   xmlns="http://www.w3.org/2000/svg"
   xmlns:svg="http://www.w3.org/2000/svg"><sodipodi:namedview
     id="namedview1"
     pagecolor="#505050"
     bordercolor="#ffffff"
     borderopacity="1"
     inkscape:showpageshadow="0"
     inkscape:pageopacity="0"
     inkscape:pagecheckerboard="1"
     inkscape:deskcolor="#d1d1d1"
     inkscape:document-units="mm"
     inkscape:zoom="1.1019851"
     inkscape:cx="544.47197"
     inkscape:cy="-10.435713"
     inkscape:window-width="3440"
     inkscape:window-height="1417"
     inkscape:window-x="-8"
     inkscape:window-y="-8"
     inkscape:window-maximized="1"
     inkscape:current-layer="g25" /><defs
     id="defs1"><inkscape:path-effect
       effect="fillet_chamfer"
       id="path-effect22"
       is_visible="true"
       lpeversion="1"
       nodesatellites_param="F,0,1,1,0,2.1166666,0,1 @ F,0,0,1,0,0,0,1 @ F,0,0,1,0,0,0,1 @ F,0,0,1,0,0,0,1 @ F,0,0,1,0,0,0,1 @ F,0,1,1,0,2.1166666,0,1 @ F,0,1,1,0,2.1166666,0,1 @ F,0,0,1,0,0,0,1 @ F,0,0,1,0,0,0,1 @ F,0,0,1,0,0,0,1 @ F,0,0,1,0,0,0,1 @ F,0,1,1,0,2.1166666,0,1"
       radius="8"
       unit="px"
       method="auto"
       mode="F"
       chamfer_steps="1"
       flexible="false"
       use_knot_distance="true"
       apply_no_radius="true"
       apply_with_radius="true"
       only_selected="true"
       hide_knots="false" /><inkscape:path-effect
       effect="fillet_chamfer"
       id="path-effect21"
       is_visible="true"
       lpeversion="1"
       nodesatellites_param="F,0,1,1,0,2.1166666,0,1 @ F,0,0,1,0,2.1166666,0,1 @ F,0,0,1,0,2.1166666,0,1 @ F,0,0,1,0,2.1166666,0,1 @ F,0,0,1,0,2.1166666,0,1 @ F,0,1,1,0,2.1166666,0,1 @ F,0,1,1,0,2.1166666,0,1 @ F,0,0,1,0,2.1166666,0,1 @ F,0,0,1,0,2.1166666,0,1 @ F,0,0,1,0,2.1166666,0,1 @ F,0,0,1,0,2.1166666,0,1 @ F,0,1,1,0,2.1166666,0,1"
       radius="8"
       unit="px"
       method="auto"
       mode="F"
       chamfer_steps="1"
       flexible="false"
       use_knot_distance="true"
       apply_no_radius="true"
       apply_with_radius="true"
       only_selected="true"
       hide_knots="false" /><inkscape:path-effect
       effect="fillet_chamfer"
       id="path-effect20"
       is_visible="true"
       lpeversion="1"
       nodesatellites_param="F,0,0,1,0,0,0,1 @ F,0,1,1,0,1.0583333,0,1 @ F,0,1,1,0,1.0583333,0,1 @ F,0,0,1,0,0,0,1 @ F,0,0,1,0,0,0,1 @ F,0,0,1,0,0,0,1 @ F,0,0,1,0,0,0,1 @ F,0,1,1,0,1.0583333,0,1 @ F,0,1,1,0,1.0583333,0,1 @ F,0,0,1,0,0,0,1 | F,0,0,1,0,0,0,1 @ F,0,0,1,0,0,0,1 @ F,0,0,1,0,0,0,1 @ F,0,0,1,0,0,0,1 | F,0,0,1,0,0,0,1 @ F,0,0,1,0,0,0,1 @ F,0,0,1,0,0,0,1 @ F,0,0,1,0,0,0,1 | F,0,0,1,0,0,0,1 @ F,0,0,1,0,0,0,1 @ F,0,0,1,0,0,0,1 @ F,0,0,1,0,0,0,1 | F,0,0,1,0,0,0,1 @ F,0,0,1,0,0,0,1 @ F,0,0,1,0,0,0,1 @ F,0,0,1,0,0,0,1 | F,0,0,1,0,0,0,1 @ F,0,0,1,0,0,0,1 @ F,0,0,1,0,0,0,1 @ F,0,0,1,0,0,0,1 | F,0,0,1,0,0,0,1 @ F,0,0,1,0,0,0,1 @ F,0,0,1,0,0,0,1 @ F,0,0,1,0,0,0,1 | F,0,0,1,0,0,0,1 @ F,0,0,1,0,0,0,1 @ F,0,0,1,0,0,0,1 @ F,0,0,1,0,0,0,1 | F,0,0,1,0,0,0,1 @ F,0,0,1,0,0,0,1 @ F,0,0,1,0,0,0,1 @ F,0,0,1,0,0,0,1 | F,0,0,1,0,0,0,1 @ F,0,0,1,0,0,0,1 @ F,0,0,1,0,0,0,1 @ F,0,0,1,0,0,0,1 | F,0,0,1,0,0,0,1 @ F,0,0,1,0,0,0,1 @ F,0,0,1,0,0,0,1 @ F,0,0,1,0,0,0,1 | F,0,0,1,0,0,0,1 @ F,0,0,1,0,0,0,1 @ F,0,0,1,0,0,0,1 @ F,0,0,1,0,0,0,1 | F,0,0,1,0,0,0,1 @ F,0,0,1,0,0,0,1 @ F,0,0,1,0,0,0,1 @ F,0,0,1,0,0,0,1 | F,0,0,1,0,0,0,1 @ F,0,0,1,0,0,0,1 @ F,0,0,1,0,0,0,1 @ F,0,0,1,0,0,0,1 | F,0,0,1,0,0,0,1 @ F,0,0,1,0,0,0,1 @ F,0,0,1,0,0,0,1 @ F,0,0,1,0,0,0,1 | F,0,0,1,0,0,0,1 @ F,0,0,1,0,0,0,1 @ F,0,0,1,0,0,0,1 @ F,0,0,1,0,0,0,1 | F,0,0,1,0,0,0,1 @ F,0,0,1,0,0,0,1 @ F,0,0,1,0,0,0,1 @ F,0,0,1,0,0,0,1 | F,0,0,1,0,0,0,1 @ F,0,0,1,0,0,0,1 @ F,0,0,1,0,0,0,1 @ F,0,0,1,0,0,0,1 | F,0,0,1,0,0,0,1 @ F,0,0,1,0,0,0,1 @ F,0,0,1,0,0,0,1 @ F,0,0,1,0,0,0,1"
       radius="4"
       unit="px"
       method="auto"
       mode="F"
       chamfer_steps="1"
       flexible="false"
       use_knot_distance="true"
       apply_no_radius="true"
       apply_with_radius="true"
       only_selected="true"
       hide_knots="false" /><inkscape:path-effect
       effect="fillet_chamfer"
       id="path-effect19"
       is_visible="true"
       lpeversion="1"
       nodesatellites_param="F,0,0,1,0,0,0,1 @ F,0,1,1,0,1.0583333,0,1 @ F,0,1,1,0,1.0583333,0,1 @ F,0,0,1,0,0,0,1 @ F,0,0,1,0,0,0,1 @ F,0,0,1,0,0,0,1 @ F,0,0,1,0,0,0,1 @ F,0,1,1,0,1.0583333,0,1 @ F,0,1,1,0,1.0583333,0,1 @ F,0,0,1,0,0,0,1 | F,0,0,1,0,0,0,1 @ F,0,0,1,0,0,0,1 @ F,0,0,1,0,0,0,1 @ F,0,0,1,0,0,0,1 | F,0,0,1,0,0,0,1 @ F,0,0,1,0,0,0,1 @ F,0,0,1,0,0,0,1 @ F,0,0,1,0,0,0,1 | F,0,0,1,0,0,0,1 @ F,0,0,1,0,0,0,1 @ F,0,0,1,0,0,0,1 @ F,0,0,1,0,0,0,1 | F,0,0,1,0,0,0,1 @ F,0,0,1,0,0,0,1 @ F,0,0,1,0,0,0,1 @ F,0,0,1,0,0,0,1 | F,0,0,1,0,0,0,1 @ F,0,0,1,0,0,0,1 @ F,0,0,1,0,0,0,1 @ F,0,0,1,0,0,0,1 | F,0,0,1,0,0,0,1 @ F,0,0,1,0,0,0,1 @ F,0,0,1,0,0,0,1 @ F,0,0,1,0,0,0,1 | F,0,0,1,0,0,0,1 @ F,0,0,1,0,0,0,1 @ F,0,0,1,0,0,0,1 @ F,0,0,1,0,0,0,1 | F,0,0,1,0,0,0,1 @ F,0,0,1,0,0,0,1 @ F,0,0,1,0,0,0,1 @ F,0,0,1,0,0,0,1 | F,0,0,1,0,0,0,1 @ F,0,0,1,0,0,0,1 @ F,0,0,1,0,0,0,1 @ F,0,0,1,0,0,0,1 | F,0,0,1,0,0,0,1 @ F,0,0,1,0,0,0,1 @ F,0,0,1,0,0,0,1 @ F,0,0,1,0,0,0,1 | F,0,0,1,0,0,0,1 @ F,0,0,1,0,0,0,1 @ F,0,0,1,0,0,0,1 @ F,0,0,1,0,0,0,1 | F,0,0,1,0,0,0,1 @ F,0,0,1,0,0,0,1 @ F,0,0,1,0,0,0,1 @ F,0,0,1,0,0,0,1 | F,0,0,1,0,0,0,1 @ F,0,0,1,0,0,0,1 @ F,0,0,1,0,0,0,1 @ F,0,0,1,0,0,0,1 | F,0,0,1,0,0,0,1 @ F,0,0,1,0,0,0,1 @ F,0,0,1,0,0,0,1 @ F,0,0,1,0,0,0,1 | F,0,0,1,0,0,0,1 @ F,0,0,1,0,0,0,1 @ F,0,0,1,0,0,0,1 @ F,0,0,1,0,0,0,1 | F,0,0,1,0,0,0,1 @ F,0,0,1,0,0,0,1 @ F,0,0,1,0,0,0,1 @ F,0,0,1,0,0,0,1 | F,0,0,1,0,0,0,1 @ F,0,0,1,0,0,0,1 @ F,0,0,1,0,0,0,1 @ F,0,0,1,0,0,0,1 | F,0,0,1,0,0,0,1 @ F,0,0,1,0,0,0,1 @ F,0,0,1,0,0,0,1 @ F,0,0,1,0,0,0,1"
       radius="4"
       unit="px"
       method="auto"
       mode="F"
       chamfer_steps="1"
       flexible="false"
       use_knot_distance="true"
       apply_no_radius="true"
       apply_with_radius="true"
       only_selected="true"
       hide_knots="false" /><inkscape:path-effect
       effect="fillet_chamfer"
       id="path-effect18"
       is_visible="true"
       lpeversion="1"
       nodesatellites_param="F,0,0,1,0,0,0,1 @ F,0,1,1,0,0,0,1 @ F,0,0,1,0,0,0,1 @ F,0,1,1,0,2.1166666,0,1 @ F,0,1,1,0,2.1166666,0,1 @ F,0,0,1,0,0,0,1 @ F,0,1,1,0,0,0,1 @ F,0,0,1,0,0,0,1 | F,0,0,1,0,0,0,1 @ F,0,0,1,0,0,0,1 @ F,0,0,1,0,0,0,1 @ F,0,0,1,0,0,0,1 | F,0,0,1,0,0,0,1 @ F,0,0,1,0,0,0,1 @ F,0,0,1,0,0,0,1 @ F,0,0,1,0,0,0,1 | F,0,0,1,0,0,0,1 @ F,0,0,1,0,0,0,1 @ F,0,0,1,0,0,0,1 @ F,0,0,1,0,0,0,1 | F,0,0,1,0,0,0,1 @ F,0,0,1,0,0,0,1 @ F,0,0,1,0,0,0,1 @ F,0,0,1,0,0,0,1 | F,0,0,1,0,0,0,1 @ F,0,0,1,0,0,0,1 @ F,0,0,1,0,0,0,1 @ F,0,0,1,0,0,0,1 | F,0,0,1,0,0,0,1 @ F,0,0,1,0,0,0,1 @ F,0,0,1,0,0,0,1 @ F,0,0,1,0,0,0,1 | F,0,0,1,0,0,0,1 @ F,0,0,1,0,0,0,1 @ F,0,0,1,0,0,0,1 @ F,0,0,1,0,0,0,1 | F,0,0,1,0,0,0,1 @ F,0,0,1,0,0,0,1 @ F,0,0,1,0,0,0,1 @ F,0,0,1,0,0,0,1 | F,0,0,1,0,0,0,1 @ F,0,0,1,0,0,0,1 @ F,0,0,1,0,0,0,1 @ F,0,0,1,0,0,0,1 | F,0,0,1,0,0,0,1 @ F,0,0,1,0,0,0,1 @ F,0,0,1,0,0,0,1 @ F,0,0,1,0,0,0,1 | F,0,0,1,0,0,0,1 @ F,0,0,1,0,0,0,1 @ F,0,0,1,0,0,0,1 @ F,0,0,1,0,0,0,1 | F,0,0,1,0,0,0,1 @ F,0,0,1,0,0,0,1 @ F,0,0,1,0,0,0,1 @ F,0,0,1,0,0,0,1 | F,0,0,1,0,0,0,1 @ F,0,0,1,0,0,0,1 @ F,0,0,1,0,0,0,1 @ F,0,0,1,0,0,0,1 | F,0,0,1,0,0,0,1 @ F,0,0,1,0,0,0,1 @ F,0,0,1,0,0,0,1 @ F,0,0,1,0,0,0,1 | F,0,0,1,0,0,0,1 @ F,0,0,1,0,0,0,1 @ F,0,0,1,0,0,0,1 @ F,0,0,1,0,0,0,1 | F,0,0,1,0,0,0,1 @ F,0,0,1,0,0,0,1 @ F,0,0,1,0,0,0,1 @ F,0,0,1,0,0,0,1 | F,0,0,1,0,0,0,1 @ F,0,0,1,0,0,0,1 @ F,0,0,1,0,0,0,1 @ F,0,0,1,0,0,0,1 | F,0,0,1,0,0,0,1 @ F,0,0,1,0,0,0,1 @ F,0,0,1,0,0,0,1 @ F,0,0,1,0,0,0,1"
       radius="8"
       unit="px"
       method="auto"
       mode="F"
       chamfer_steps="1"
       flexible="false"
       use_knot_distance="true"
       apply_no_radius="true"
       apply_with_radius="true"
       only_selected="true"
       hide_knots="false" /></defs><g
     inkscape:label="Ebene 1"
     inkscape:groupmode="layer"
     id="layer1"><text
       xml:space="preserve"
       style="font-weight:bold;font-size:24.6944px;line-height:1.3;font-family:Poppins;-inkscape-font-specification:'Poppins Bold';text-align:center;text-decoration-color:#000000;letter-spacing:0px;writing-mode:lr-tb;direction:ltr;text-anchor:middle;white-space:pre;fill:#ffffff;fill-rule:evenodd;stroke:none;stroke-width:15.2;stroke-linecap:square;stroke-dasharray:none;paint-order:markers fill stroke"
       x="-59.54406"
       y="52.341148"
       id="text22"><tspan
         sodipodi:role="line"
         id="tspan22"
         style="stroke-width:15.2"
         x="-59.54406"
         y="74.566109" /></text><g
       id="g25"
       transform="translate(4.0910877,0.68171792)"><path
         id="rect2"
         style="display:inline;fill:#ffffff;fill-rule:evenodd;stroke-width:11.6;stroke-linecap:round;paint-order:markers fill stroke"
         d="m 83.504061,21.381265 a 1.2196545,1.2196545 0 0 0 -1.219655,1.219655 v 3.159608 c 0,4.348127 1.327744,8.511023 3.688754,11.997042 l -0.76467,1.324171 a 0.60982726,0.60982726 0 0 0 0.22302,0.833152 l 2.66771,1.540052 a 0.60982726,0.60982726 0 0 1 0.22333,0.833153 L 69.374113,75.107705 c -0.336799,0.583352 -0.137,1.329511 0.446353,1.666306 l 8.61917,4.976286 c 0.583355,0.336795 1.329206,0.136713 1.666007,-0.446647 L 99.05407,48.484038 a 0.6098279,0.6098279 0 0 1 0.83316,-0.223324 l 2.6677,1.540349 a 0.60982778,0.60982778 0 0 0 0.83286,-0.223325 l 1.42094,-2.461047 c 3.31587,-0.174552 6.6002,-1.112376 9.57053,-2.827299 6.61386,-3.818512 10.69819,-10.891842 10.69819,-18.528864 V 22.60092 a 1.2196545,1.2196545 0 0 0 -1.21966,-1.219655 h -6.31981 a 1.2196545,1.2196545 0 0 0 -1.21966,1.219655 v 3.159608 c 0,4.521966 -2.40219,8.68375 -6.31832,10.944733 -3.91614,2.260982 -8.72229,2.260982 -12.63843,0 -3.91614,-2.260983 -6.31802,-6.422767 -6.31802,-10.944733 V 22.60092 a 1.2196545,1.2196545 0 0 0 -1.21966,-1.219655 z m 5.417889,24.372844 c 0.32059,-0.02266 0.6512,0.04697 0.95048,0.219752 0.79804,0.460779 1.07146,1.481043 0.61072,2.279111 -0.46078,0.798044 -1.48104,1.071456 -2.27911,0.610719 -0.79805,-0.460775 -1.07147,-1.481039 -0.61072,-2.27911 0.28798,-0.49878 0.79433,-0.792711 1.32863,-0.830472 z m 0.0482,0.691117 c -0.31249,0.02208 -0.60872,0.193957 -0.77717,0.485659 -0.26943,0.466771 -0.1094,1.063589 0.35732,1.333103 0.46677,0.269431 1.06359,0.1094 1.33311,-0.35732 0.26942,-0.466768 0.10939,-1.063585 -0.35732,-1.333104 -0.17504,-0.101039 -0.36844,-0.141591 -0.55594,-0.128338 z m 3.04021,4.282489 c 0.45393,-0.03211 0.92213,0.06622 1.3459,0.310869 1.13002,0.652457 1.517,2.097553 0.86441,3.227499 -0.65237,1.12989 -2.09697,1.517042 -3.22689,0.864716 -1.12989,-0.652375 -1.51704,-2.097274 -0.86472,-3.227202 0.40768,-0.70633 1.12474,-1.122366 1.8813,-1.175882 z m 0.0682,0.978463 c -0.44252,0.03126 -0.86207,0.27472 -1.10055,0.687842 -0.3814,0.660924 -0.15466,1.50576 0.5062,1.887249 0.66083,0.381579 1.50586,0.155447 1.88755,-0.505311 0.38165,-0.660949 0.15509,-1.506271 -0.50591,-1.887844 -0.24786,-0.143121 -0.52178,-0.200696 -0.78729,-0.181936 z m -8.486685,2.343726 c 0.320583,-0.02266 0.651195,0.04697 0.950475,0.219752 0.79828,0.46067 1.07184,1.481207 0.61102,2.279408 -0.46085,0.798167 -1.481619,1.071423 -2.27971,0.610423 -0.798048,-0.460776 -1.071458,-1.481046 -0.610721,-2.279111 0.287986,-0.49878 0.794632,-0.792709 1.328936,-0.830472 z m 0.04824,0.69082 c -0.312562,0.02215 -0.608792,0.194109 -0.777173,0.485956 -0.269428,0.466763 -0.109694,1.063591 0.357024,1.333104 0.466791,0.269691 1.063804,0.10982 1.333404,-0.357023 0.26976,-0.466919 0.10976,-1.064212 -0.35732,-1.3337 -0.17509,-0.101064 -0.368397,-0.141624 -0.555935,-0.128337 z m 5.156155,1.950971 c 0.39339,-0.02783 0.79909,0.05748 1.16636,0.269478 0.97951,0.565377 1.31508,1.817839 0.74947,2.797229 -0.56548,0.979282 -1.81766,1.314703 -2.79692,0.749182 -0.97916,-0.565422 -1.31475,-1.817395 -0.74948,-2.796633 0.35331,-0.612119 0.97492,-0.972863 1.63057,-1.019256 z m 0.0592,0.84804 c -0.38345,0.02717 -0.74711,0.238143 -0.95375,0.596131 -0.33047,0.572688 -0.13423,1.304902 0.43831,1.635633 0.57272,0.330729 1.30514,0.134644 1.63594,-0.438016 0.3308,-0.572847 0.13459,-1.305533 -0.43832,-1.636229 -0.2148,-0.123954 -0.45211,-0.173818 -0.68218,-0.157519 z m -8.575711,1.470375 c 0.453932,-0.03211 0.922137,0.06652 1.345908,0.311169 1.130253,0.652344 1.517372,2.097422 0.864716,3.227494 -0.652459,1.130015 -2.097256,1.516995 -3.227201,0.86442 -1.129889,-0.652379 -1.517031,-2.096972 -0.864716,-3.2269 0.40767,-0.70633 1.124741,-1.122664 1.881293,-1.176183 z m 0.06849,0.97876 c -0.442438,0.03135 -0.862114,0.274803 -1.100549,0.687845 -0.381314,0.660791 -0.154719,1.505338 0.505907,1.886948 0.660818,0.381575 1.505863,0.155451 1.887546,-0.505312 0.381652,-0.660947 0.155087,-1.506265 -0.505905,-1.887841 -0.247847,-0.143022 -0.521537,-0.200442 -0.786999,-0.18164 z m 4.201501,5.948495 c 0.35965,-0.02541 0.73025,0.05244 1.06601,0.246257 0.8955,0.516876 1.20266,1.662034 0.68576,2.557525 -0.51696,0.895628 -1.66232,1.202318 -2.557832,0.685159 -0.895392,-0.517066 -1.201946,-1.662144 -0.684865,-2.557524 0.32312,-0.559534 0.8915,-0.889042 1.490927,-0.931417 z m 0.0539,0.77539 c -0.35059,0.02477 -0.682871,0.217376 -0.871869,0.544614 -0.302496,0.523699 -0.123216,1.193514 0.400499,1.495982 0.52383,0.30257 1.19362,0.123154 1.49599,-0.400793 0.30231,-0.523803 0.12272,-1.193698 -0.4011,-1.495986 -0.19637,-0.113336 -0.41318,-0.15869 -0.62352,-0.143817 z M 75.341,68.285561 c 0.393391,-0.02783 0.799091,0.05751 1.166353,0.269479 0.979517,0.565383 1.315074,1.817826 0.749479,2.797224 -0.565487,0.979282 -1.817959,1.314709 -2.797225,0.749183 -0.979156,-0.565416 -1.314451,-1.817382 -0.749182,-2.79663 0.353317,-0.612112 0.97492,-0.972865 1.630575,-1.019256 z m 6.799215,0.502927 c 0.280467,-0.01982 0.569532,0.04091 0.831366,0.192058 0.698153,0.403161 0.937526,1.295931 0.534492,1.994148 -0.403158,0.698165 -1.295914,0.93753 -1.994146,0.534497 -0.698157,-0.403167 -0.93754,-1.295925 -0.534493,-1.994148 0.251978,-0.43635 0.695336,-0.693509 1.162781,-0.726555 z m -6.740259,0.345113 c -0.383454,0.0272 -0.746811,0.238143 -0.95345,0.596129 -0.330472,0.572694 -0.134228,1.304901 0.438313,1.635637 0.572718,0.330719 1.304829,0.134661 1.635635,-0.438015 0.330804,-0.572838 0.134591,-1.30553 -0.438313,-1.636231 -0.214808,-0.123955 -0.452112,-0.173821 -0.682185,-0.15752 z m 6.782244,0.259354 c -0.273414,0.01937 -0.53242,0.16969 -0.679802,0.424918 -0.235745,0.408404 -0.096,0.930536 0.312358,1.166351 0.408401,0.235741 0.93054,0.09601 1.166354,-0.312354 0.235743,-0.408398 0.096,-0.930542 -0.312358,-1.166357 -0.15315,-0.0884 -0.322503,-0.124151 -0.486552,-0.112558 z m -3.462437,4.858965 c 0.359652,-0.02539 0.730543,0.05244 1.066305,0.246256 0.895503,0.516887 1.20236,1.662027 0.68546,2.557528 -0.516964,0.895621 -1.66201,1.202307 -2.557523,0.685156 -0.895384,-0.517075 -1.202237,-1.66214 -0.685162,-2.55752 0.32312,-0.559534 0.8915,-0.889036 1.49092,-0.93142 z m 0.05419,0.775093 c -0.35058,0.02479 -0.682865,0.217676 -0.871863,0.54491 -0.302495,0.523698 -0.123213,1.193506 0.400498,1.49598 0.523826,0.302572 1.19362,0.123158 1.495982,-0.400789 0.302312,-0.523812 0.122725,-1.193703 -0.401093,-1.495988 C 79.2011,75.057794 78.984301,75.01214 78.773953,75.027013 Z"
         inkscape:label="logo" /><path
         d="m 33.075887,44.419163 -11.9888,-15.748 v 15.748 h -8.6868 V 8.7575633 h 8.6868 V 24.403963 l 11.8872,-15.6463997 h 10.2108 l -13.8176,17.4751997 14.3256,18.1864 z m 41.452823,-14.6304 q 0,1.2192 -0.1524,2.54 h -19.6596 q 0.2032,2.6416 1.6764,4.064 1.524,1.3716 3.7084,1.3716 3.2512,0 4.5212,-2.7432 h 9.2456 q -0.7112,2.794 -2.5908,5.0292 -1.8288,2.2352 -4.6228,3.5052 -2.794,1.27 -6.2484,1.27 -4.1656,0 -7.4168,-1.778 -3.2512,-1.778 -5.08,-5.08 -1.8288,-3.302 -1.8288,-7.7216 0,-4.4196 1.778,-7.7216 1.8288,-3.302 5.08,-5.08 3.2512,-1.778 7.4676,-1.778 4.1148,0 7.3152,1.7272 3.2004,1.7272 4.9784,4.9276 1.8288,3.2004 1.8288,7.4676 z m -8.89,-2.286 q 0,-2.2352 -1.524,-3.556 -1.524,-1.3208 -3.81,-1.3208 -2.1844,0 -3.7084,1.27 -1.4732,1.27 -1.8288,3.6068 z"
         id="text23"
         style="-inkscape-font-specification:'Poppins Bold';fill:#ffffff;fill-rule:evenodd;stroke-width:15.2;stroke-linecap:square;paint-order:markers fill stroke"
         aria-label="Ke" /><path
         d="m 162.49121,26.026717 q 3.0988,0.6604 4.9784,3.0988 1.8796,2.3876 1.8796,5.486399 0,4.4704 -3.1496,7.112 -3.0988,2.5908 -8.6868,2.5908 h -16.6116 V 8.6531169 h 16.0528 q 5.4356,0 8.4836,2.4892001 3.0988,2.4892 3.0988,6.7564 0,3.1496 -1.6764,5.2324 -1.6256,2.0828 -4.3688,2.8956 z m -12.9032,-2.9464 h 5.6896 q 2.1336,0 3.2512,-0.9144 1.1684,-0.9652 1.1684,-2.794 0,-1.8288 -1.1684,-2.794 -1.1176,-0.9652 -3.2512,-0.9652 h -5.6896 z m 6.4008,14.223999 q 2.1844,0 3.3528,-0.9652 1.2192,-1.016 1.2192,-2.895599 0,-1.8796 -1.27,-2.9464 -1.2192,-1.0668 -3.4036,-1.0668 h -6.2992 v 7.873999 z m 31.29282,7.4168 q -4.1656,0 -7.5184,-1.778 -3.302,-1.778 -5.2324,-5.08 -1.8796,-3.302 -1.8796,-7.721599 0,-4.3688 1.9304,-7.6708 1.9304,-3.3528 5.2832,-5.1308 3.3528,-1.778 7.5184,-1.778 4.1656,0 7.5184,1.778 3.3528,1.778 5.2832,5.1308 1.9304,3.302 1.9304,7.6708 0,4.368799 -1.9812,7.721599 -1.9304,3.302 -5.334,5.08 -3.3528,1.778 -7.5184,1.778 z m 0,-7.5184 q 2.4892,0 4.2164,-1.8288 1.778,-1.828799 1.778,-5.232399 0,-3.4036 -1.7272,-5.2324 -1.6764,-1.8288 -4.1656,-1.8288 -2.54,0 -4.2164,1.8288 -1.6764,1.778 -1.6764,5.2324 0,3.4036 1.6256,5.232399 1.6764,1.8288 4.1656,1.8288 z m 60.14715,-21.234399 -7.67079,28.346399 h -9.6012 l -4.4704,-18.389599 -4.6228,18.389599 h -9.5504 l -7.7216,-28.346399 h 8.6868 l 4.0132,20.269199 4.7752,-20.269199 h 9.1948 l 4.826,20.167599 3.9624,-20.167599 z M 259.41754,6.7227169 V 44.314716 h -8.6868 V 6.7227169 Z"
         id="text25"
         style="-inkscape-font-specification:'Poppins Bold';fill:#ffffff;fill-rule:evenodd;stroke-width:15.2;stroke-linecap:square;paint-order:markers fill stroke"
         aria-label="Bowl" /></g></g></svg>
