<?xml version="1.0" encoding="UTF-8" standalone="no"?>
<!-- Created with Inkscape (http://www.inkscape.org/) -->

<svg
   width="110mm"
   height="110mm"
   viewBox="0 0 110 110"
   version="1.1"
   id="svg1"
   xml:space="preserve"
   inkscape:version="1.4 (86a8ad7, 2024-10-11)"
   sodipodi:docname="logo_white.svg"
   inkscape:export-filename="logo_white.png"
   inkscape:export-xdpi="500"
   inkscape:export-ydpi="500"
   xmlns:inkscape="http://www.inkscape.org/namespaces/inkscape"
   xmlns:sodipodi="http://sodipodi.sourceforge.net/DTD/sodipodi-0.dtd"
   xmlns="http://www.w3.org/2000/svg"
   xmlns:svg="http://www.w3.org/2000/svg"><sodipodi:namedview
     id="namedview1"
     pagecolor="#505050"
     bordercolor="#ffffff"
     borderopacity="1"
     inkscape:showpageshadow="0"
     inkscape:pageopacity="0"
     inkscape:pagecheckerboard="1"
     inkscape:deskcolor="#d1d1d1"
     inkscape:document-units="mm"
     inkscape:zoom="1.5584423"
     inkscape:cx="202.1249"
     inkscape:cy="181.27075"
     inkscape:window-width="3440"
     inkscape:window-height="1417"
     inkscape:window-x="-8"
     inkscape:window-y="-8"
     inkscape:window-maximized="1"
     inkscape:current-layer="layer1" /><defs
     id="defs1"><inkscape:path-effect
       effect="fillet_chamfer"
       id="path-effect22"
       is_visible="true"
       lpeversion="1"
       nodesatellites_param="F,0,1,1,0,2.1166666,0,1 @ F,0,0,1,0,0,0,1 @ F,0,0,1,0,0,0,1 @ F,0,0,1,0,0,0,1 @ F,0,0,1,0,0,0,1 @ F,0,1,1,0,2.1166666,0,1 @ F,0,1,1,0,2.1166666,0,1 @ F,0,0,1,0,0,0,1 @ F,0,0,1,0,0,0,1 @ F,0,0,1,0,0,0,1 @ F,0,0,1,0,0,0,1 @ F,0,1,1,0,2.1166666,0,1"
       radius="8"
       unit="px"
       method="auto"
       mode="F"
       chamfer_steps="1"
       flexible="false"
       use_knot_distance="true"
       apply_no_radius="true"
       apply_with_radius="true"
       only_selected="true"
       hide_knots="false" /><inkscape:path-effect
       effect="fillet_chamfer"
       id="path-effect21"
       is_visible="true"
       lpeversion="1"
       nodesatellites_param="F,0,1,1,0,2.1166666,0,1 @ F,0,0,1,0,2.1166666,0,1 @ F,0,0,1,0,2.1166666,0,1 @ F,0,0,1,0,2.1166666,0,1 @ F,0,0,1,0,2.1166666,0,1 @ F,0,1,1,0,2.1166666,0,1 @ F,0,1,1,0,2.1166666,0,1 @ F,0,0,1,0,2.1166666,0,1 @ F,0,0,1,0,2.1166666,0,1 @ F,0,0,1,0,2.1166666,0,1 @ F,0,0,1,0,2.1166666,0,1 @ F,0,1,1,0,2.1166666,0,1"
       radius="8"
       unit="px"
       method="auto"
       mode="F"
       chamfer_steps="1"
       flexible="false"
       use_knot_distance="true"
       apply_no_radius="true"
       apply_with_radius="true"
       only_selected="true"
       hide_knots="false" /><inkscape:path-effect
       effect="fillet_chamfer"
       id="path-effect20"
       is_visible="true"
       lpeversion="1"
       nodesatellites_param="F,0,0,1,0,0,0,1 @ F,0,1,1,0,1.0583333,0,1 @ F,0,1,1,0,1.0583333,0,1 @ F,0,0,1,0,0,0,1 @ F,0,0,1,0,0,0,1 @ F,0,0,1,0,0,0,1 @ F,0,0,1,0,0,0,1 @ F,0,1,1,0,1.0583333,0,1 @ F,0,1,1,0,1.0583333,0,1 @ F,0,0,1,0,0,0,1 | F,0,0,1,0,0,0,1 @ F,0,0,1,0,0,0,1 @ F,0,0,1,0,0,0,1 @ F,0,0,1,0,0,0,1 | F,0,0,1,0,0,0,1 @ F,0,0,1,0,0,0,1 @ F,0,0,1,0,0,0,1 @ F,0,0,1,0,0,0,1 | F,0,0,1,0,0,0,1 @ F,0,0,1,0,0,0,1 @ F,0,0,1,0,0,0,1 @ F,0,0,1,0,0,0,1 | F,0,0,1,0,0,0,1 @ F,0,0,1,0,0,0,1 @ F,0,0,1,0,0,0,1 @ F,0,0,1,0,0,0,1 | F,0,0,1,0,0,0,1 @ F,0,0,1,0,0,0,1 @ F,0,0,1,0,0,0,1 @ F,0,0,1,0,0,0,1 | F,0,0,1,0,0,0,1 @ F,0,0,1,0,0,0,1 @ F,0,0,1,0,0,0,1 @ F,0,0,1,0,0,0,1 | F,0,0,1,0,0,0,1 @ F,0,0,1,0,0,0,1 @ F,0,0,1,0,0,0,1 @ F,0,0,1,0,0,0,1 | F,0,0,1,0,0,0,1 @ F,0,0,1,0,0,0,1 @ F,0,0,1,0,0,0,1 @ F,0,0,1,0,0,0,1 | F,0,0,1,0,0,0,1 @ F,0,0,1,0,0,0,1 @ F,0,0,1,0,0,0,1 @ F,0,0,1,0,0,0,1 | F,0,0,1,0,0,0,1 @ F,0,0,1,0,0,0,1 @ F,0,0,1,0,0,0,1 @ F,0,0,1,0,0,0,1 | F,0,0,1,0,0,0,1 @ F,0,0,1,0,0,0,1 @ F,0,0,1,0,0,0,1 @ F,0,0,1,0,0,0,1 | F,0,0,1,0,0,0,1 @ F,0,0,1,0,0,0,1 @ F,0,0,1,0,0,0,1 @ F,0,0,1,0,0,0,1 | F,0,0,1,0,0,0,1 @ F,0,0,1,0,0,0,1 @ F,0,0,1,0,0,0,1 @ F,0,0,1,0,0,0,1 | F,0,0,1,0,0,0,1 @ F,0,0,1,0,0,0,1 @ F,0,0,1,0,0,0,1 @ F,0,0,1,0,0,0,1 | F,0,0,1,0,0,0,1 @ F,0,0,1,0,0,0,1 @ F,0,0,1,0,0,0,1 @ F,0,0,1,0,0,0,1 | F,0,0,1,0,0,0,1 @ F,0,0,1,0,0,0,1 @ F,0,0,1,0,0,0,1 @ F,0,0,1,0,0,0,1 | F,0,0,1,0,0,0,1 @ F,0,0,1,0,0,0,1 @ F,0,0,1,0,0,0,1 @ F,0,0,1,0,0,0,1 | F,0,0,1,0,0,0,1 @ F,0,0,1,0,0,0,1 @ F,0,0,1,0,0,0,1 @ F,0,0,1,0,0,0,1"
       radius="4"
       unit="px"
       method="auto"
       mode="F"
       chamfer_steps="1"
       flexible="false"
       use_knot_distance="true"
       apply_no_radius="true"
       apply_with_radius="true"
       only_selected="true"
       hide_knots="false" /><inkscape:path-effect
       effect="fillet_chamfer"
       id="path-effect19"
       is_visible="true"
       lpeversion="1"
       nodesatellites_param="F,0,0,1,0,0,0,1 @ F,0,1,1,0,1.0583333,0,1 @ F,0,1,1,0,1.0583333,0,1 @ F,0,0,1,0,0,0,1 @ F,0,0,1,0,0,0,1 @ F,0,0,1,0,0,0,1 @ F,0,0,1,0,0,0,1 @ F,0,1,1,0,1.0583333,0,1 @ F,0,1,1,0,1.0583333,0,1 @ F,0,0,1,0,0,0,1 | F,0,0,1,0,0,0,1 @ F,0,0,1,0,0,0,1 @ F,0,0,1,0,0,0,1 @ F,0,0,1,0,0,0,1 | F,0,0,1,0,0,0,1 @ F,0,0,1,0,0,0,1 @ F,0,0,1,0,0,0,1 @ F,0,0,1,0,0,0,1 | F,0,0,1,0,0,0,1 @ F,0,0,1,0,0,0,1 @ F,0,0,1,0,0,0,1 @ F,0,0,1,0,0,0,1 | F,0,0,1,0,0,0,1 @ F,0,0,1,0,0,0,1 @ F,0,0,1,0,0,0,1 @ F,0,0,1,0,0,0,1 | F,0,0,1,0,0,0,1 @ F,0,0,1,0,0,0,1 @ F,0,0,1,0,0,0,1 @ F,0,0,1,0,0,0,1 | F,0,0,1,0,0,0,1 @ F,0,0,1,0,0,0,1 @ F,0,0,1,0,0,0,1 @ F,0,0,1,0,0,0,1 | F,0,0,1,0,0,0,1 @ F,0,0,1,0,0,0,1 @ F,0,0,1,0,0,0,1 @ F,0,0,1,0,0,0,1 | F,0,0,1,0,0,0,1 @ F,0,0,1,0,0,0,1 @ F,0,0,1,0,0,0,1 @ F,0,0,1,0,0,0,1 | F,0,0,1,0,0,0,1 @ F,0,0,1,0,0,0,1 @ F,0,0,1,0,0,0,1 @ F,0,0,1,0,0,0,1 | F,0,0,1,0,0,0,1 @ F,0,0,1,0,0,0,1 @ F,0,0,1,0,0,0,1 @ F,0,0,1,0,0,0,1 | F,0,0,1,0,0,0,1 @ F,0,0,1,0,0,0,1 @ F,0,0,1,0,0,0,1 @ F,0,0,1,0,0,0,1 | F,0,0,1,0,0,0,1 @ F,0,0,1,0,0,0,1 @ F,0,0,1,0,0,0,1 @ F,0,0,1,0,0,0,1 | F,0,0,1,0,0,0,1 @ F,0,0,1,0,0,0,1 @ F,0,0,1,0,0,0,1 @ F,0,0,1,0,0,0,1 | F,0,0,1,0,0,0,1 @ F,0,0,1,0,0,0,1 @ F,0,0,1,0,0,0,1 @ F,0,0,1,0,0,0,1 | F,0,0,1,0,0,0,1 @ F,0,0,1,0,0,0,1 @ F,0,0,1,0,0,0,1 @ F,0,0,1,0,0,0,1 | F,0,0,1,0,0,0,1 @ F,0,0,1,0,0,0,1 @ F,0,0,1,0,0,0,1 @ F,0,0,1,0,0,0,1 | F,0,0,1,0,0,0,1 @ F,0,0,1,0,0,0,1 @ F,0,0,1,0,0,0,1 @ F,0,0,1,0,0,0,1 | F,0,0,1,0,0,0,1 @ F,0,0,1,0,0,0,1 @ F,0,0,1,0,0,0,1 @ F,0,0,1,0,0,0,1"
       radius="4"
       unit="px"
       method="auto"
       mode="F"
       chamfer_steps="1"
       flexible="false"
       use_knot_distance="true"
       apply_no_radius="true"
       apply_with_radius="true"
       only_selected="true"
       hide_knots="false" /><inkscape:path-effect
       effect="fillet_chamfer"
       id="path-effect18"
       is_visible="true"
       lpeversion="1"
       nodesatellites_param="F,0,0,1,0,0,0,1 @ F,0,1,1,0,0,0,1 @ F,0,0,1,0,0,0,1 @ F,0,1,1,0,2.1166666,0,1 @ F,0,1,1,0,2.1166666,0,1 @ F,0,0,1,0,0,0,1 @ F,0,1,1,0,0,0,1 @ F,0,0,1,0,0,0,1 | F,0,0,1,0,0,0,1 @ F,0,0,1,0,0,0,1 @ F,0,0,1,0,0,0,1 @ F,0,0,1,0,0,0,1 | F,0,0,1,0,0,0,1 @ F,0,0,1,0,0,0,1 @ F,0,0,1,0,0,0,1 @ F,0,0,1,0,0,0,1 | F,0,0,1,0,0,0,1 @ F,0,0,1,0,0,0,1 @ F,0,0,1,0,0,0,1 @ F,0,0,1,0,0,0,1 | F,0,0,1,0,0,0,1 @ F,0,0,1,0,0,0,1 @ F,0,0,1,0,0,0,1 @ F,0,0,1,0,0,0,1 | F,0,0,1,0,0,0,1 @ F,0,0,1,0,0,0,1 @ F,0,0,1,0,0,0,1 @ F,0,0,1,0,0,0,1 | F,0,0,1,0,0,0,1 @ F,0,0,1,0,0,0,1 @ F,0,0,1,0,0,0,1 @ F,0,0,1,0,0,0,1 | F,0,0,1,0,0,0,1 @ F,0,0,1,0,0,0,1 @ F,0,0,1,0,0,0,1 @ F,0,0,1,0,0,0,1 | F,0,0,1,0,0,0,1 @ F,0,0,1,0,0,0,1 @ F,0,0,1,0,0,0,1 @ F,0,0,1,0,0,0,1 | F,0,0,1,0,0,0,1 @ F,0,0,1,0,0,0,1 @ F,0,0,1,0,0,0,1 @ F,0,0,1,0,0,0,1 | F,0,0,1,0,0,0,1 @ F,0,0,1,0,0,0,1 @ F,0,0,1,0,0,0,1 @ F,0,0,1,0,0,0,1 | F,0,0,1,0,0,0,1 @ F,0,0,1,0,0,0,1 @ F,0,0,1,0,0,0,1 @ F,0,0,1,0,0,0,1 | F,0,0,1,0,0,0,1 @ F,0,0,1,0,0,0,1 @ F,0,0,1,0,0,0,1 @ F,0,0,1,0,0,0,1 | F,0,0,1,0,0,0,1 @ F,0,0,1,0,0,0,1 @ F,0,0,1,0,0,0,1 @ F,0,0,1,0,0,0,1 | F,0,0,1,0,0,0,1 @ F,0,0,1,0,0,0,1 @ F,0,0,1,0,0,0,1 @ F,0,0,1,0,0,0,1 | F,0,0,1,0,0,0,1 @ F,0,0,1,0,0,0,1 @ F,0,0,1,0,0,0,1 @ F,0,0,1,0,0,0,1 | F,0,0,1,0,0,0,1 @ F,0,0,1,0,0,0,1 @ F,0,0,1,0,0,0,1 @ F,0,0,1,0,0,0,1 | F,0,0,1,0,0,0,1 @ F,0,0,1,0,0,0,1 @ F,0,0,1,0,0,0,1 @ F,0,0,1,0,0,0,1 | F,0,0,1,0,0,0,1 @ F,0,0,1,0,0,0,1 @ F,0,0,1,0,0,0,1 @ F,0,0,1,0,0,0,1"
       radius="8"
       unit="px"
       method="auto"
       mode="F"
       chamfer_steps="1"
       flexible="false"
       use_knot_distance="true"
       apply_no_radius="true"
       apply_with_radius="true"
       only_selected="true"
       hide_knots="false" /></defs><g
     inkscape:label="Ebene 1"
     inkscape:groupmode="layer"
     id="layer1"><path
       id="rect2"
       style="display:inline;fill:#ffffff;fill-rule:evenodd;stroke-width:11.6;stroke-linecap:round;paint-order:markers fill stroke"
       d="m 31.328446,2.4739423 a 2.1166666,2.1166666 0 0 0 -2.116667,2.116667 v 5.4833857 c 0,7.546019 2.304252,14.770575 6.401677,20.820435 l -1.327051,2.298051 a 1.0583333,1.0583333 0 0 0 0.387056,1.445906 l 4.629692,2.672705 a 1.0583333,1.0583333 0 0 1 0.387573,1.445907 L 6.8064296,95.714242 c -0.584503,1.01239 -0.237758,2.307318 0.7746294,2.891818 l 14.958259,8.63616 c 1.012393,0.5845 2.30679,0.23726 2.891297,-0.77514 L 58.314909,49.509831 a 1.0583344,1.0583344 0 0 1 1.44591,-0.387573 l 4.6297,2.673221 a 1.0583342,1.0583342 0 0 0 1.44539,-0.387573 l 2.466,-4.271057 c 5.75458,-0.302929 11.45441,-1.930489 16.60932,-4.906677 11.4781,-6.626889 18.566311,-18.902399 18.566311,-32.156177 V 4.5906093 a 2.1166666,2.1166666 0 0 0 -2.11667,-2.116667 H 90.393059 a 2.1166666,2.1166666 0 0 0 -2.11666,2.116667 v 5.4833857 c 0,7.847709 -4.16892,15.070336 -10.96523,18.99419 -6.79632,3.923855 -15.13722,3.923855 -21.93354,0 -6.79632,-3.923854 -10.96471,-11.146481 -10.96471,-18.99419 V 4.5906093 a 2.1166666,2.1166666 0 0 0 -2.116667,-2.116667 z m 9.402527,42.2981937 c 0.55636,-0.03932 1.13013,0.08152 1.649512,0.381372 1.384977,0.799665 1.859477,2.570296 1.059883,3.955314 -0.799663,1.384977 -2.570295,1.859474 -3.955314,1.059883 -1.38499,-0.799659 -1.859486,-2.570291 -1.059884,-3.955314 0.499791,-0.865616 1.378536,-1.375722 2.305803,-1.441255 z m 0.08372,1.19941 c -0.54232,0.03833 -1.056418,0.336605 -1.348755,0.842842 -0.467594,0.810065 -0.189869,1.845821 0.620117,2.313554 0.810062,0.467587 1.845822,0.189859 2.313554,-0.620117 0.467584,-0.810059 0.189856,-1.845814 -0.620117,-2.313554 -0.303773,-0.175351 -0.639408,-0.245726 -0.964799,-0.222725 z m 5.276163,7.432104 c 0.787783,-0.05572 1.600338,0.114919 2.335775,0.539502 1.961112,1.132317 2.632702,3.640229 1.500167,5.601209 -1.132182,1.960884 -3.639233,2.632772 -5.600175,1.500683 -1.960891,-1.132173 -2.632769,-3.639742 -1.500684,-5.600692 0.7075,-1.225811 1.951947,-1.947826 3.264917,-2.040702 z m 0.118339,1.698088 c -0.767973,0.05426 -1.496083,0.476766 -1.909961,1.193725 -0.661901,1.14701 -0.268406,2.613192 0.8785,3.275252 1.146833,0.662217 2.613375,0.269774 3.275769,-0.876949 0.662338,-1.147053 0.269153,-2.614078 -0.877983,-3.276285 -0.430142,-0.24838 -0.905541,-0.3483 -1.366325,-0.315743 z m -14.7283,4.067452 c 0.55636,-0.03932 1.13013,0.08152 1.649512,0.381372 1.385386,0.799476 1.860136,2.570581 1.060401,3.955831 -0.799793,1.38519 -2.571291,1.859416 -3.956348,1.059366 -1.384985,-0.79966 -1.859478,-2.570302 -1.059884,-3.955314 0.499788,-0.865615 1.379053,-1.375718 2.306319,-1.441255 z m 0.08372,1.198893 c -0.54244,0.03843 -1.056537,0.33687 -1.348755,0.843359 -0.467584,0.810051 -0.190371,1.845824 0.619601,2.313554 0.810099,0.46804 1.846203,0.19059 2.31407,-0.6196 0.468166,-0.81032 0.19049,-1.846902 -0.620117,-2.314588 -0.303857,-0.175393 -0.639334,-0.245783 -0.964799,-0.222725 z m 8.948291,3.38584 c 0.682719,-0.04831 1.386794,0.09975 2.024166,0.467671 1.699921,0.98119 2.282275,3.154794 1.300696,4.854488 -0.981385,1.69951 -3.154492,2.28162 -4.853967,1.30018 -1.699281,-0.98127 -2.281691,-3.154025 -1.300696,-4.853455 0.613165,-1.062313 1.691937,-1.68837 2.829801,-1.768884 z m 0.102836,1.471744 c -0.665472,0.04715 -1.296583,0.413288 -1.655196,1.034563 -0.57352,0.99388 -0.23295,2.264612 0.760677,2.838582 0.99392,0.57397 2.265008,0.23367 2.839104,-0.76016 0.574097,-0.994156 0.233582,-2.265706 -0.760678,-2.839616 -0.372793,-0.215119 -0.784623,-0.301655 -1.183907,-0.273369 z M 25.73293,67.77745 c 0.787782,-0.05573 1.600334,0.115436 2.335775,0.540022 1.961513,1.13212 2.633344,3.64 1.500683,5.6012 -1.13232,1.9611 -3.639713,2.63269 -5.600692,1.50017 -1.960882,-1.13218 -2.632753,-3.63922 -1.500683,-5.60017 0.707496,-1.22581 1.951947,-1.948343 3.264917,-2.041222 z m 0.118856,1.698602 c -0.767834,0.0544 -1.496168,0.47691 -1.909961,1.19373 -0.661757,1.14678 -0.26851,2.61246 0.877982,3.27473 1.146826,0.66221 2.61337,0.26978 3.275769,-0.87695 0.662342,-1.14705 0.269148,-2.61407 -0.877982,-3.27628 -0.43013,-0.24821 -0.905108,-0.34786 -1.365808,-0.31523 z m 7.291544,10.3234 c 0.624165,-0.0441 1.267318,0.091 1.850017,0.42737 1.554106,0.89702 2.087162,2.8844 1.190108,4.43849 -0.897162,1.55433 -2.884877,2.08658 -4.439006,1.18907 -1.553921,-0.89735 -2.085935,-2.88459 -1.188558,-4.43849 0.560763,-0.97105 1.547165,-1.5429 2.587439,-1.61644 z m 0.09354,1.34566 c -0.608418,0.043 -1.185088,0.37725 -1.513086,0.94516 -0.524971,0.90886 -0.213837,2.0713 0.695048,2.59622 0.909083,0.5251 2.071486,0.21373 2.596224,-0.69556 0.524652,-0.90904 0.212985,-2.07162 -0.696082,-2.59623 -0.340807,-0.19669 -0.717054,-0.2754 -1.082104,-0.24959 z m -16.074988,2.72955 c 0.682718,-0.0483 1.386794,0.0998 2.024166,0.46767 1.699916,0.9812 2.282263,3.15477 1.300695,4.85448 -0.981385,1.69951 -3.155005,2.28163 -4.854484,1.30018 -1.699291,-0.98126 -2.281183,-3.154 -1.300179,-4.85345 0.613169,-1.0623 1.691938,-1.68837 2.829802,-1.76888 z m 11.799796,0.87281 c 0.486741,-0.0344 0.988401,0.071 1.442806,0.33331 1.211619,0.69967 1.627042,2.24904 0.927592,3.46077 -0.699666,1.21164 -2.249012,1.62705 -3.46077,0.9276 -1.211626,-0.69968 -1.627066,-2.24903 -0.927592,-3.46077 0.437298,-0.75727 1.206731,-1.20356 2.017964,-1.26091 z m -11.697477,0.59893 c -0.665471,0.0472 -1.296064,0.41329 -1.654679,1.03456 -0.573522,0.99389 -0.232948,2.26461 0.760677,2.83859 0.993929,0.57395 2.264484,0.2337 2.838586,-0.76016 0.574099,-0.99414 0.233577,-2.2657 -0.760677,-2.83962 -0.372791,-0.21512 -0.784624,-0.30166 -1.183907,-0.27337 z m 11.770341,0.4501 c -0.4745,0.0336 -0.923996,0.29449 -1.179773,0.73743 -0.409126,0.70877 -0.166608,1.61491 0.542086,2.02416 0.708765,0.40912 1.614919,0.16662 2.024166,-0.54208 0.409124,-0.70876 0.166608,-1.61492 -0.542086,-2.02417 -0.265787,-0.15342 -0.559693,-0.21546 -0.844393,-0.19534 z m -6.008935,8.43256 c 0.624163,-0.0441 1.267831,0.091 1.850533,0.42737 1.554113,0.89704 2.086652,2.884388 1.189591,4.438488 -0.897172,1.55433 -2.884358,2.08657 -4.438489,1.18907 -1.553906,-0.89736 -2.086438,-2.884588 -1.189074,-4.438488 0.560764,-0.97105 1.547166,-1.54289 2.587439,-1.61644 z m 0.09405,1.34514 c -0.608419,0.043 -1.185088,0.37777 -1.513086,0.94568 -0.524971,0.90886 -0.213834,2.071288 0.695048,2.596218 0.909083,0.5251 2.071486,0.21373 2.596224,-0.69556 0.524651,-0.909048 0.212985,-2.071628 -0.696082,-2.596228 -0.340807,-0.19669 -0.717053,-0.27592 -1.082104,-0.25011 z"
       inkscape:label="logo" /></g></svg>
