%TF.GenerationSoftware,KiCad,Pcbnew,9.0.2*%
%TF.CreationDate,2025-07-28T21:41:28+02:00*%
%TF.ProjectId,keybowl_core_pcb,6b657962-6f77-46c5-9f63-6f72655f7063,rev?*%
%TF.SameCoordinates,Original*%
%TF.FileFunction,Profile,NP*%
%FSLAX46Y46*%
G04 Gerber Fmt 4.6, Leading zero omitted, Abs format (unit mm)*
G04 Created by KiCad (PCBNEW 9.0.2) date 2025-07-28 21:41:28*
%MOMM*%
%LPD*%
G01*
G04 APERTURE LIST*
%TA.AperFunction,Profile*%
%ADD10C,0.100000*%
%TD*%
%TA.AperFunction,Profile*%
%ADD11C,0.050000*%
%TD*%
G04 APERTURE END LIST*
D10*
X193500000Y-74000000D02*
X189500000Y-74000000D01*
X155500000Y-60878680D02*
G75*
G02*
X152500000Y-63878700I-3000000J-20D01*
G01*
D11*
X202500000Y-52000000D02*
G75*
G02*
X199500000Y-52000000I-1500000J0D01*
G01*
X199500000Y-52000000D02*
G75*
G02*
X202500000Y-52000000I1500000J0D01*
G01*
X236000000Y-30000000D02*
G75*
G02*
X239000000Y-33000000I0J-3000000D01*
G01*
X212000000Y-127000000D02*
X212000000Y-145000000D01*
D10*
X186500000Y-77000000D02*
X186500000Y-92500000D01*
D11*
X65000000Y-33000000D02*
G75*
G02*
X68000000Y-30000000I3000000J0D01*
G01*
D10*
X189500000Y-95500000D02*
X193500000Y-95500000D01*
X152500000Y-53878680D02*
G75*
G02*
X155500020Y-56878680I0J-3000020D01*
G01*
D11*
X105500000Y-124500000D02*
G75*
G02*
X102500000Y-124500000I-1500000J0D01*
G01*
X102500000Y-124500000D02*
G75*
G02*
X105500000Y-124500000I1500000J0D01*
G01*
D10*
X152500000Y-53878680D02*
X137000000Y-53878680D01*
X186500000Y-77000000D02*
G75*
G02*
X189500000Y-74000000I3000000J0D01*
G01*
D11*
X110800000Y-51800000D02*
G75*
G02*
X108000000Y-51800000I-1400000J0D01*
G01*
X108000000Y-51800000D02*
G75*
G02*
X110800000Y-51800000I1400000J0D01*
G01*
D10*
X152500000Y-63878680D02*
X137000000Y-63878680D01*
D11*
X202500000Y-124500000D02*
G75*
G02*
X199500000Y-124500000I-1500000J0D01*
G01*
X199500000Y-124500000D02*
G75*
G02*
X202500000Y-124500000I1500000J0D01*
G01*
D10*
X134000000Y-56878680D02*
X134000000Y-60878680D01*
D11*
X239000000Y-33000000D02*
X239062500Y-121000000D01*
D10*
X193500000Y-74000000D02*
G75*
G02*
X196500000Y-77000000I0J-3000000D01*
G01*
X155500000Y-60878680D02*
X155500000Y-56878680D01*
X196500000Y-92500000D02*
G75*
G02*
X193500000Y-95500000I-3000000J0D01*
G01*
X137000000Y-63878680D02*
G75*
G02*
X134000020Y-60878680I0J2999980D01*
G01*
D11*
X65000000Y-33000000D02*
X65000000Y-145000000D01*
X239062500Y-121000000D02*
G75*
G02*
X236062500Y-124000000I-3000000J0D01*
G01*
X236062500Y-124000000D02*
X215000000Y-124000000D01*
X68000000Y-30000000D02*
X236000000Y-30000000D01*
X105500000Y-52000000D02*
G75*
G02*
X102500000Y-52000000I-1500000J0D01*
G01*
X102500000Y-52000000D02*
G75*
G02*
X105500000Y-52000000I1500000J0D01*
G01*
X197000000Y-51800000D02*
G75*
G02*
X194200000Y-51800000I-1400000J0D01*
G01*
X194200000Y-51800000D02*
G75*
G02*
X197000000Y-51800000I1400000J0D01*
G01*
D10*
X196500000Y-77000000D02*
X196500000Y-92500000D01*
D11*
X110800000Y-136000000D02*
G75*
G02*
X108000000Y-136000000I-1400000J0D01*
G01*
X108000000Y-136000000D02*
G75*
G02*
X110800000Y-136000000I1400000J0D01*
G01*
X68000000Y-148000000D02*
G75*
G02*
X65000000Y-145000000I0J3000000D01*
G01*
X197000000Y-136000000D02*
G75*
G02*
X194200000Y-136000000I-1400000J0D01*
G01*
X194200000Y-136000000D02*
G75*
G02*
X197000000Y-136000000I1400000J0D01*
G01*
D10*
X189500000Y-95500000D02*
G75*
G02*
X186500000Y-92500000I0J3000000D01*
G01*
D11*
X212000000Y-145000000D02*
G75*
G02*
X209000000Y-148000000I-3000000J0D01*
G01*
X212000000Y-127000000D02*
G75*
G02*
X215000000Y-124000000I3000000J0D01*
G01*
X209000000Y-148000000D02*
X68000000Y-148000000D01*
D10*
X134000000Y-56878680D02*
G75*
G02*
X137000000Y-53878700I3000000J-20D01*
G01*
M02*
