%TF.GenerationSoftware,KiCad,Pcbnew,9.0.2*%
%TF.CreationDate,2025-07-28T21:41:28+02:00*%
%TF.ProjectId,keybowl_core_pcb,6b657962-6f77-46c5-9f63-6f72655f7063,rev?*%
%TF.SameCoordinates,Original*%
%TF.FileFunction,Copper,L1,Top*%
%TF.FilePolarity,Positive*%
%FSLAX46Y46*%
G04 Gerber Fmt 4.6, Leading zero omitted, Abs format (unit mm)*
G04 Created by KiCad (PCBNEW 9.0.2) date 2025-07-28 21:41:28*
%MOMM*%
%LPD*%
G01*
G04 APERTURE LIST*
G04 Aperture macros list*
%AMRoundRect*
0 Rectangle with rounded corners*
0 $1 Rounding radius*
0 $2 $3 $4 $5 $6 $7 $8 $9 X,Y pos of 4 corners*
0 Add a 4 corners polygon primitive as box body*
4,1,4,$2,$3,$4,$5,$6,$7,$8,$9,$2,$3,0*
0 Add four circle primitives for the rounded corners*
1,1,$1+$1,$2,$3*
1,1,$1+$1,$4,$5*
1,1,$1+$1,$6,$7*
1,1,$1+$1,$8,$9*
0 Add four rect primitives between the rounded corners*
20,1,$1+$1,$2,$3,$4,$5,0*
20,1,$1+$1,$4,$5,$6,$7,0*
20,1,$1+$1,$6,$7,$8,$9,0*
20,1,$1+$1,$8,$9,$2,$3,0*%
G04 Aperture macros list end*
%TA.AperFunction,SMDPad,CuDef*%
%ADD10RoundRect,0.250000X0.250000X0.475000X-0.250000X0.475000X-0.250000X-0.475000X0.250000X-0.475000X0*%
%TD*%
%TA.AperFunction,SMDPad,CuDef*%
%ADD11RoundRect,0.090000X-0.660000X-0.360000X0.660000X-0.360000X0.660000X0.360000X-0.660000X0.360000X0*%
%TD*%
%TA.AperFunction,SMDPad,CuDef*%
%ADD12RoundRect,0.243750X-0.243750X-0.456250X0.243750X-0.456250X0.243750X0.456250X-0.243750X0.456250X0*%
%TD*%
%TA.AperFunction,SMDPad,CuDef*%
%ADD13RoundRect,0.243750X0.243750X0.456250X-0.243750X0.456250X-0.243750X-0.456250X0.243750X-0.456250X0*%
%TD*%
%TA.AperFunction,SMDPad,CuDef*%
%ADD14RoundRect,0.250000X-0.475000X0.250000X-0.475000X-0.250000X0.475000X-0.250000X0.475000X0.250000X0*%
%TD*%
%TA.AperFunction,SMDPad,CuDef*%
%ADD15RoundRect,0.150000X0.425000X-0.150000X0.425000X0.150000X-0.425000X0.150000X-0.425000X-0.150000X0*%
%TD*%
%TA.AperFunction,SMDPad,CuDef*%
%ADD16RoundRect,0.075000X0.500000X-0.075000X0.500000X0.075000X-0.500000X0.075000X-0.500000X-0.075000X0*%
%TD*%
%TA.AperFunction,HeatsinkPad*%
%ADD17O,2.100000X1.000000*%
%TD*%
%TA.AperFunction,HeatsinkPad*%
%ADD18O,1.800000X1.000000*%
%TD*%
%TA.AperFunction,ComponentPad*%
%ADD19C,2.200000*%
%TD*%
%TA.AperFunction,SMDPad,CuDef*%
%ADD20RoundRect,0.147500X0.147500X-0.457500X0.147500X0.457500X-0.147500X0.457500X-0.147500X-0.457500X0*%
%TD*%
%TA.AperFunction,SMDPad,CuDef*%
%ADD21RoundRect,0.250000X-0.350000X-0.450000X0.350000X-0.450000X0.350000X0.450000X-0.350000X0.450000X0*%
%TD*%
%TA.AperFunction,ComponentPad*%
%ADD22R,1.700000X1.700000*%
%TD*%
%TA.AperFunction,ComponentPad*%
%ADD23O,1.700000X1.700000*%
%TD*%
%TA.AperFunction,ComponentPad*%
%ADD24RoundRect,0.250000X-0.600000X-0.725000X0.600000X-0.725000X0.600000X0.725000X-0.600000X0.725000X0*%
%TD*%
%TA.AperFunction,ComponentPad*%
%ADD25O,1.700000X1.950000*%
%TD*%
%TA.AperFunction,ViaPad*%
%ADD26C,0.600000*%
%TD*%
%TA.AperFunction,Conductor*%
%ADD27C,0.200000*%
%TD*%
G04 APERTURE END LIST*
D10*
%TO.P,C7,1*%
%TO.N,GND*%
X139650000Y-43900000D03*
%TO.P,C7,2*%
%TO.N,+5V*%
X137750000Y-43900000D03*
%TD*%
%TO.P,C4,1*%
%TO.N,GND*%
X163650000Y-43900000D03*
%TO.P,C4,2*%
%TO.N,+5V*%
X161750000Y-43900000D03*
%TD*%
D11*
%TO.P,D9,1,VDD*%
%TO.N,+5V*%
X168250000Y-36250000D03*
%TO.P,D9,2,DOUT*%
%TO.N,Net-(D10-DIN)*%
X168250000Y-39550000D03*
%TO.P,D9,3,VSS*%
%TO.N,GND*%
X173150000Y-39550000D03*
%TO.P,D9,4,DIN*%
%TO.N,Net-(D8-DOUT)*%
X173150000Y-36250000D03*
%TD*%
D10*
%TO.P,C5,1*%
%TO.N,GND*%
X155650000Y-43900000D03*
%TO.P,C5,2*%
%TO.N,+5V*%
X153750000Y-43900000D03*
%TD*%
D12*
%TO.P,D5,1,K*%
%TO.N,ROW2*%
X214125000Y-80000000D03*
%TO.P,D5,2,A*%
%TO.N,Net-(D5-A)*%
X216000000Y-80000000D03*
%TD*%
D11*
%TO.P,D11,1,VDD*%
%TO.N,+5V*%
X152250000Y-36250000D03*
%TO.P,D11,2,DOUT*%
%TO.N,Net-(D11-DOUT)*%
X152250000Y-39550000D03*
%TO.P,D11,3,VSS*%
%TO.N,GND*%
X157150000Y-39550000D03*
%TO.P,D11,4,DIN*%
%TO.N,Net-(D10-DOUT)*%
X157150000Y-36250000D03*
%TD*%
D13*
%TO.P,D2,1,K*%
%TO.N,ROW2*%
X90937500Y-80000000D03*
%TO.P,D2,2,A*%
%TO.N,Net-(D2-A)*%
X89062500Y-80000000D03*
%TD*%
D14*
%TO.P,C10,1*%
%TO.N,+5V*%
X189500000Y-131500000D03*
%TO.P,C10,2*%
%TO.N,GND*%
X189500000Y-133400000D03*
%TD*%
D13*
%TO.P,D3,1,K*%
%TO.N,ROW3*%
X90937500Y-104000000D03*
%TO.P,D3,2,A*%
%TO.N,Net-(D3-A)*%
X89062500Y-104000000D03*
%TD*%
D10*
%TO.P,C8,1*%
%TO.N,GND*%
X131700000Y-43900000D03*
%TO.P,C8,2*%
%TO.N,+5V*%
X129800000Y-43900000D03*
%TD*%
D15*
%TO.P,J4,A1,GND*%
%TO.N,GND*%
X204495000Y-137200000D03*
%TO.P,J4,A4,VBUS*%
%TO.N,+5V*%
X204495000Y-136400000D03*
D16*
%TO.P,J4,A5,CC1*%
%TO.N,unconnected-(J4-CC1-PadA5)*%
X204495000Y-135250000D03*
%TO.P,J4,A6,D+*%
%TO.N,unconnected-(J4-D+-PadA6)*%
X204495000Y-134250000D03*
%TO.P,J4,A7,D-*%
%TO.N,unconnected-(J4-D--PadA7)*%
X204495000Y-133750000D03*
%TO.P,J4,A8,SBU1*%
%TO.N,unconnected-(J4-SBU1-PadA8)*%
X204495000Y-132750000D03*
D15*
%TO.P,J4,A9,VBUS*%
%TO.N,+5V*%
X204495000Y-131600000D03*
%TO.P,J4,A12,GND*%
%TO.N,GND*%
X204495000Y-130800000D03*
%TO.P,J4,B1,GND*%
X204495000Y-130800000D03*
%TO.P,J4,B4,VBUS*%
%TO.N,+5V*%
X204495000Y-131600000D03*
D16*
%TO.P,J4,B5,CC2*%
%TO.N,unconnected-(J4-CC2-PadB5)*%
X204495000Y-132250000D03*
%TO.P,J4,B6,D+*%
%TO.N,unconnected-(J4-D+-PadB6)*%
X204495000Y-133250000D03*
%TO.P,J4,B7,D-*%
%TO.N,unconnected-(J4-D--PadB7)*%
X204495000Y-134750000D03*
%TO.P,J4,B8,SBU2*%
%TO.N,unconnected-(J4-SBU2-PadB8)*%
X204495000Y-135750000D03*
D15*
%TO.P,J4,B9,VBUS*%
%TO.N,+5V*%
X204495000Y-136400000D03*
%TO.P,J4,B12,GND*%
%TO.N,GND*%
X204495000Y-137200000D03*
D17*
%TO.P,J4,S1,SHIELD*%
%TO.N,unconnected-(J4-SHIELD-PadS1)*%
X205070000Y-138320000D03*
D18*
X209250000Y-138320000D03*
D17*
X205070000Y-129680000D03*
D18*
X209250000Y-129680000D03*
%TD*%
D12*
%TO.P,D4,1,K*%
%TO.N,ROW1*%
X214125000Y-56000000D03*
%TO.P,D4,2,A*%
%TO.N,Net-(D4-A)*%
X216000000Y-56000000D03*
%TD*%
D19*
%TO.P,SW2,1,1*%
%TO.N,COL1*%
X80350000Y-83460000D03*
%TO.P,SW2,2,2*%
%TO.N,Net-(D2-A)*%
X74000000Y-86000000D03*
%TD*%
D11*
%TO.P,D10,1,VDD*%
%TO.N,+5V*%
X160250000Y-36250000D03*
%TO.P,D10,2,DOUT*%
%TO.N,Net-(D10-DOUT)*%
X160250000Y-39550000D03*
%TO.P,D10,3,VSS*%
%TO.N,GND*%
X165150000Y-39550000D03*
%TO.P,D10,4,DIN*%
%TO.N,Net-(D10-DIN)*%
X165150000Y-36250000D03*
%TD*%
D20*
%TO.P,U2,1*%
%TO.N,GND*%
X196050000Y-44755000D03*
%TO.P,U2,2*%
%TO.N,GPIO18*%
X197000000Y-44755000D03*
%TO.P,U2,3,GND*%
%TO.N,GND*%
X197950000Y-44755000D03*
%TO.P,U2,4*%
%TO.N,Net-(R1-Pad2)*%
X197950000Y-42245000D03*
%TO.P,U2,5,VCC*%
%TO.N,+5V*%
X196050000Y-42245000D03*
%TD*%
D10*
%TO.P,C6,1*%
%TO.N,GND*%
X147650000Y-43900000D03*
%TO.P,C6,2*%
%TO.N,+5V*%
X145750000Y-43900000D03*
%TD*%
D13*
%TO.P,D1,1,K*%
%TO.N,ROW1*%
X91000000Y-56000000D03*
%TO.P,D1,2,A*%
%TO.N,Net-(D1-A)*%
X89125000Y-56000000D03*
%TD*%
D10*
%TO.P,C1,1*%
%TO.N,GND*%
X187650000Y-43900000D03*
%TO.P,C1,2*%
%TO.N,+5V*%
X185750000Y-43900000D03*
%TD*%
D19*
%TO.P,SW6,1,1*%
%TO.N,COL2*%
X229602500Y-107460000D03*
%TO.P,SW6,2,2*%
%TO.N,Net-(D6-A)*%
X223252500Y-110000000D03*
%TD*%
D10*
%TO.P,C9,1*%
%TO.N,GND*%
X123700000Y-43900000D03*
%TO.P,C9,2*%
%TO.N,+5V*%
X121800000Y-43900000D03*
%TD*%
D19*
%TO.P,SW1,1,1*%
%TO.N,COL1*%
X80350000Y-59460000D03*
%TO.P,SW1,2,2*%
%TO.N,Net-(D1-A)*%
X74000000Y-62000000D03*
%TD*%
%TO.P,SW4,1,1*%
%TO.N,COL2*%
X229602500Y-59460000D03*
%TO.P,SW4,2,2*%
%TO.N,Net-(D4-A)*%
X223252500Y-62000000D03*
%TD*%
D11*
%TO.P,D7,1,VDD*%
%TO.N,+5V*%
X184250000Y-36250000D03*
%TO.P,D7,2,DOUT*%
%TO.N,Net-(D7-DOUT)*%
X184250000Y-39550000D03*
%TO.P,D7,3,VSS*%
%TO.N,GND*%
X189150000Y-39550000D03*
%TO.P,D7,4,DIN*%
%TO.N,DINNEO*%
X189150000Y-36250000D03*
%TD*%
D19*
%TO.P,SW3,1,1*%
%TO.N,COL1*%
X80350000Y-107460000D03*
%TO.P,SW3,2,2*%
%TO.N,Net-(D3-A)*%
X74000000Y-110000000D03*
%TD*%
%TO.P,SW5,1,1*%
%TO.N,COL2*%
X229602500Y-83460000D03*
%TO.P,SW5,2,2*%
%TO.N,Net-(D5-A)*%
X223252500Y-86000000D03*
%TD*%
D21*
%TO.P,R1,1*%
%TO.N,DINNEO*%
X194000000Y-35900000D03*
%TO.P,R1,2*%
%TO.N,Net-(R1-Pad2)*%
X196000000Y-35900000D03*
%TD*%
D11*
%TO.P,D12,1,VDD*%
%TO.N,+5V*%
X144250000Y-36250000D03*
%TO.P,D12,2,DOUT*%
%TO.N,Net-(D12-DOUT)*%
X144250000Y-39550000D03*
%TO.P,D12,3,VSS*%
%TO.N,GND*%
X149150000Y-39550000D03*
%TO.P,D12,4,DIN*%
%TO.N,Net-(D11-DOUT)*%
X149150000Y-36250000D03*
%TD*%
%TO.P,D13,1,VDD*%
%TO.N,+5V*%
X136250000Y-36250000D03*
%TO.P,D13,2,DOUT*%
%TO.N,Net-(D13-DOUT)*%
X136250000Y-39550000D03*
%TO.P,D13,3,VSS*%
%TO.N,GND*%
X141150000Y-39550000D03*
%TO.P,D13,4,DIN*%
%TO.N,Net-(D12-DOUT)*%
X141150000Y-36250000D03*
%TD*%
D12*
%TO.P,D6,1,K*%
%TO.N,ROW3*%
X214125000Y-104000000D03*
%TO.P,D6,2,A*%
%TO.N,Net-(D6-A)*%
X216000000Y-104000000D03*
%TD*%
D11*
%TO.P,D8,1,VDD*%
%TO.N,+5V*%
X176350000Y-36250000D03*
%TO.P,D8,2,DOUT*%
%TO.N,Net-(D8-DOUT)*%
X176350000Y-39550000D03*
%TO.P,D8,3,VSS*%
%TO.N,GND*%
X181250000Y-39550000D03*
%TO.P,D8,4,DIN*%
%TO.N,Net-(D7-DOUT)*%
X181250000Y-36250000D03*
%TD*%
%TO.P,D15,1,VDD*%
%TO.N,+5V*%
X120250000Y-36250000D03*
%TO.P,D15,2,DOUT*%
%TO.N,DOUT*%
X120250000Y-39550000D03*
%TO.P,D15,3,VSS*%
%TO.N,GND*%
X125150000Y-39550000D03*
%TO.P,D15,4,DIN*%
%TO.N,Net-(D14-DOUT)*%
X125150000Y-36250000D03*
%TD*%
%TO.P,D14,1,VDD*%
%TO.N,+5V*%
X128250000Y-36250000D03*
%TO.P,D14,2,DOUT*%
%TO.N,Net-(D14-DOUT)*%
X128250000Y-39550000D03*
%TO.P,D14,3,VSS*%
%TO.N,GND*%
X133150000Y-39550000D03*
%TO.P,D14,4,DIN*%
%TO.N,Net-(D13-DOUT)*%
X133150000Y-36250000D03*
%TD*%
D10*
%TO.P,C2,1*%
%TO.N,GND*%
X179650000Y-43900000D03*
%TO.P,C2,2*%
%TO.N,+5V*%
X177750000Y-43900000D03*
%TD*%
%TO.P,C3,1*%
%TO.N,GND*%
X171650000Y-43900000D03*
%TO.P,C3,2*%
%TO.N,+5V*%
X169750000Y-43900000D03*
%TD*%
D22*
%TO.P,U1,1,3V3_1*%
%TO.N,unconnected-(U1-3V3_1-Pad1)*%
X120000000Y-93000000D03*
D23*
%TO.P,U1,2,5V_2*%
%TO.N,+5V*%
X120000000Y-90460000D03*
%TO.P,U1,3,GPIO2/SDA1*%
%TO.N,unconnected-(U1-GPIO2{slash}SDA1-Pad3)*%
X122540000Y-93000000D03*
%TO.P,U1,4,5V_4*%
%TO.N,VCC*%
X122540000Y-90460000D03*
%TO.P,U1,5,GPIO3/SCL*%
%TO.N,unconnected-(U1-GPIO3{slash}SCL-Pad5)*%
X125080000Y-93000000D03*
%TO.P,U1,6,GND_6*%
%TO.N,GND*%
X125080000Y-90460000D03*
%TO.P,U1,7,GPIO4/GPIO_GCLK*%
%TO.N,unconnected-(U1-GPIO4{slash}GPIO_GCLK-Pad7)*%
X127620000Y-93000000D03*
%TO.P,U1,8,GPIO14/TXD0*%
%TO.N,Pi TX - RX*%
X127620000Y-90460000D03*
%TO.P,U1,9,GND_9*%
%TO.N,unconnected-(U1-GND_9-Pad9)*%
X130160000Y-93000000D03*
%TO.P,U1,10,GPIO15/RXD0*%
%TO.N,P1 RX - TX*%
X130160000Y-90460000D03*
%TO.P,U1,11,GPIO17/GPIO_GEN0*%
%TO.N,RST*%
X132700000Y-93000000D03*
%TO.P,U1,12,GPIO18/GPIO_GEN1*%
%TO.N,unconnected-(U1-GPIO18{slash}GPIO_GEN1-Pad12)*%
X132700000Y-90460000D03*
%TO.P,U1,13,GPIO27/GPIO_GEN2*%
%TO.N,unconnected-(U1-GPIO27{slash}GPIO_GEN2-Pad13)*%
X135240000Y-93000000D03*
%TO.P,U1,14,GND_14*%
%TO.N,unconnected-(U1-GND_14-Pad14)*%
X135240000Y-90460000D03*
%TO.P,U1,15,GPIO22/GPIO_GEN3*%
%TO.N,unconnected-(U1-GPIO22{slash}GPIO_GEN3-Pad15)*%
X137780000Y-93000000D03*
%TO.P,U1,16,GPIO23/GPIO_GEN4*%
%TO.N,unconnected-(U1-GPIO23{slash}GPIO_GEN4-Pad16)*%
X137780000Y-90460000D03*
%TO.P,U1,17,3V3_17*%
%TO.N,unconnected-(U1-3V3_17-Pad17)*%
X140320000Y-93000000D03*
%TO.P,U1,18,GPIO24/GPIO_GEN5*%
%TO.N,unconnected-(U1-GPIO24{slash}GPIO_GEN5-Pad18)*%
X140320000Y-90460000D03*
%TO.P,U1,19,GPIO10/SPI_MOSI*%
%TO.N,DIN*%
X142860000Y-93000000D03*
%TO.P,U1,20,GND_20*%
%TO.N,unconnected-(U1-GND_20-Pad20)*%
X142860000Y-90460000D03*
%TO.P,U1,21,GPIO9/SPI_MISO*%
%TO.N,unconnected-(U1-GPIO9{slash}SPI_MISO-Pad21)*%
X145400000Y-93000000D03*
%TO.P,U1,22,GPIO25/GPIO_GEN6*%
%TO.N,DC*%
X145400000Y-90460000D03*
%TO.P,U1,23,GPIO11/SPI_SCLK*%
%TO.N,CLK*%
X147940000Y-93000000D03*
%TO.P,U1,24,GPIO8/SPI_~{CE0}*%
%TO.N,CS*%
X147940000Y-90460000D03*
%TO.P,U1,25,GND_25*%
%TO.N,unconnected-(U1-GND_25-Pad25)*%
X150480000Y-93000000D03*
%TO.P,U1,26,GPIO7/SPI_~{CE1}*%
%TO.N,unconnected-(U1-GPIO7{slash}SPI_~{CE1}-Pad26)*%
X150480000Y-90460000D03*
%TO.P,U1,27,ID_SD*%
%TO.N,unconnected-(U1-ID_SD-Pad27)*%
X153020000Y-93000000D03*
%TO.P,U1,28,ID_SC*%
%TO.N,unconnected-(U1-ID_SC-Pad28)*%
X153020000Y-90460000D03*
%TO.P,U1,29,GPIO5*%
%TO.N,ROW1*%
X155560000Y-93000000D03*
%TO.P,U1,30,GND_30*%
%TO.N,unconnected-(U1-GND_30-Pad30)*%
X155560000Y-90460000D03*
%TO.P,U1,31,GPIO6*%
%TO.N,ROW2*%
X158100000Y-93000000D03*
%TO.P,U1,32,GPIO12*%
%TO.N,unconnected-(U1-GPIO12-Pad32)*%
X158100000Y-90460000D03*
%TO.P,U1,33,GPIO13*%
%TO.N,ROW3*%
X160640000Y-93000000D03*
%TO.P,U1,34,GND_34*%
%TO.N,unconnected-(U1-GND_34-Pad34)*%
X160640000Y-90460000D03*
%TO.P,U1,35,GPIO19*%
%TO.N,BUSY*%
X163180000Y-93000000D03*
%TO.P,U1,36,GPIO16*%
%TO.N,GPIO18*%
X163180000Y-90460000D03*
%TO.P,U1,37,GPIO26*%
%TO.N,EN*%
X165720000Y-93000000D03*
%TO.P,U1,38,GPIO20*%
%TO.N,COL1*%
X165720000Y-90460000D03*
%TO.P,U1,39,GND_39*%
%TO.N,unconnected-(U1-GND_39-Pad39)*%
X168260000Y-93000000D03*
%TO.P,U1,40,GPIO21*%
%TO.N,COL2*%
X168260000Y-90460000D03*
%TD*%
D24*
%TO.P,J1,1,Pin_1*%
%TO.N,VCC*%
X136000000Y-80000000D03*
D25*
%TO.P,J1,2,Pin_2*%
%TO.N,GND*%
X138500000Y-80000000D03*
%TO.P,J1,3,Pin_3*%
%TO.N,DIN*%
X141000000Y-80000000D03*
%TO.P,J1,4,Pin_4*%
%TO.N,CLK*%
X143500000Y-80000000D03*
%TO.P,J1,5,Pin_5*%
%TO.N,CS*%
X146000000Y-80000000D03*
%TO.P,J1,6,Pin_6*%
%TO.N,DC*%
X148500000Y-80000000D03*
%TO.P,J1,7,Pin_7*%
%TO.N,RST*%
X151000000Y-80000000D03*
%TO.P,J1,8,Pin_8*%
%TO.N,BUSY*%
X153500000Y-80000000D03*
%TD*%
D24*
%TO.P,J2,1,Pin_1*%
%TO.N,VCC*%
X136000000Y-71500000D03*
D25*
%TO.P,J2,2,Pin_2*%
%TO.N,GND*%
X138500000Y-71500000D03*
%TO.P,J2,3,Pin_3*%
%TO.N,DIN*%
X141000000Y-71500000D03*
%TO.P,J2,4,Pin_4*%
%TO.N,CLK*%
X143500000Y-71500000D03*
%TO.P,J2,5,Pin_5*%
%TO.N,CS*%
X146000000Y-71500000D03*
%TO.P,J2,6,Pin_6*%
%TO.N,DC*%
X148500000Y-71500000D03*
%TO.P,J2,7,Pin_7*%
%TO.N,RST*%
X151000000Y-71500000D03*
%TO.P,J2,8,Pin_8*%
%TO.N,BUSY*%
X153500000Y-71500000D03*
%TD*%
D24*
%TO.P,J3,1,Pin_1*%
%TO.N,GND*%
X116000000Y-76000000D03*
D25*
%TO.P,J3,2,Pin_2*%
%TO.N,EN*%
X118500000Y-76000000D03*
%TO.P,J3,3,Pin_3*%
%TO.N,Pi TX - RX*%
X121000000Y-76000000D03*
%TO.P,J3,4,Pin_4*%
%TO.N,P1 RX - TX*%
X123500000Y-76000000D03*
%TO.P,J3,5,Pin_5*%
%TO.N,VCC*%
X126000000Y-76000000D03*
%TD*%
D26*
%TO.N,+5V*%
X105000000Y-109000000D03*
X105000000Y-84000000D03*
%TO.N,GND*%
X194000000Y-46205000D03*
X200000000Y-46205000D03*
X142700000Y-41100000D03*
X190700000Y-41100000D03*
X174700000Y-41100000D03*
X158700000Y-40900000D03*
X166700000Y-41100000D03*
X182700000Y-41000000D03*
X134700000Y-41100000D03*
X150700000Y-41100000D03*
X202000000Y-130500000D03*
X185500000Y-134500000D03*
X125000000Y-87000000D03*
X126700000Y-40900000D03*
%TO.N,ROW1*%
X141000000Y-99000000D03*
X200000000Y-98000000D03*
%TO.N,ROW2*%
X141000000Y-102000000D03*
X200000000Y-101000000D03*
%TO.N,EN*%
X165000000Y-106000000D03*
X109000000Y-93000000D03*
%TD*%
D27*
%TO.N,+5V*%
X125900000Y-33900000D02*
X125700000Y-33900000D01*
X115600000Y-33900000D02*
X117700000Y-33900000D01*
X129800000Y-37800000D02*
X129800000Y-43900000D01*
X161700000Y-33900000D02*
X155700000Y-33900000D01*
X128250000Y-36250000D02*
X129800000Y-37800000D01*
X161750000Y-37750000D02*
X161750000Y-43900000D01*
X160250000Y-36250000D02*
X161750000Y-37750000D01*
X122500000Y-131500000D02*
X198500000Y-131500000D01*
X144250000Y-36250000D02*
X141900000Y-33900000D01*
X176350000Y-36250000D02*
X177750000Y-37650000D01*
X168250000Y-36250000D02*
X165900000Y-33900000D01*
X196050000Y-40950000D02*
X196050000Y-42645000D01*
X105000000Y-109000000D02*
X105000000Y-114000000D01*
X204495000Y-131600000D02*
X198600000Y-131600000D01*
X160250000Y-36250000D02*
X157900000Y-33900000D01*
X133700000Y-33900000D02*
X125700000Y-33900000D01*
X149900000Y-33900000D02*
X147700000Y-33900000D01*
X121800000Y-37800000D02*
X121800000Y-43900000D01*
X136250000Y-36250000D02*
X133900000Y-33900000D01*
X184250000Y-36250000D02*
X181900000Y-33900000D01*
X133900000Y-33900000D02*
X133700000Y-33900000D01*
X174000000Y-33900000D02*
X173700000Y-33900000D01*
X165700000Y-33900000D02*
X161700000Y-33900000D01*
X188000000Y-37900000D02*
X193000000Y-37900000D01*
X173700000Y-33900000D02*
X165700000Y-33900000D01*
X157900000Y-33900000D02*
X155700000Y-33900000D01*
X165900000Y-33900000D02*
X165700000Y-33900000D01*
X152250000Y-36250000D02*
X149900000Y-33900000D01*
X186350000Y-36250000D02*
X188000000Y-37900000D01*
X105000000Y-63500000D02*
X113000000Y-55500000D01*
X147700000Y-33900000D02*
X141700000Y-33900000D01*
X181700000Y-33900000D02*
X173700000Y-33900000D01*
X113000000Y-36500000D02*
X115600000Y-33900000D01*
X113000000Y-55500000D02*
X113000000Y-36500000D01*
X141900000Y-33900000D02*
X141700000Y-33900000D01*
X168250000Y-36250000D02*
X169750000Y-37750000D01*
X141700000Y-33900000D02*
X136700000Y-33900000D01*
X105000000Y-84000000D02*
X105000000Y-63500000D01*
X145750000Y-37750000D02*
X145750000Y-43900000D01*
X144250000Y-36250000D02*
X145750000Y-37750000D01*
X169750000Y-37750000D02*
X169750000Y-43900000D01*
X184250000Y-36250000D02*
X186350000Y-36250000D01*
X176350000Y-36250000D02*
X174000000Y-33900000D01*
X105000000Y-114000000D02*
X122500000Y-131500000D01*
X153750000Y-37750000D02*
X153750000Y-43900000D01*
X125700000Y-33900000D02*
X117700000Y-33900000D01*
X184250000Y-36250000D02*
X185750000Y-37750000D01*
X136250000Y-36250000D02*
X137750000Y-37750000D01*
X203400000Y-136400000D02*
X204495000Y-136400000D01*
X155700000Y-33900000D02*
X147700000Y-33900000D01*
X128250000Y-36250000D02*
X125900000Y-33900000D01*
X198500000Y-131500000D02*
X203400000Y-136400000D01*
X193000000Y-37900000D02*
X196050000Y-40950000D01*
X177750000Y-37650000D02*
X177750000Y-43900000D01*
X152250000Y-36250000D02*
X153750000Y-37750000D01*
X185750000Y-37750000D02*
X185750000Y-43900000D01*
X120250000Y-36250000D02*
X121800000Y-37800000D01*
X120250000Y-36250000D02*
X117900000Y-33900000D01*
X137750000Y-37750000D02*
X137750000Y-43900000D01*
X136700000Y-33900000D02*
X133700000Y-33900000D01*
X198600000Y-131600000D02*
X198500000Y-131500000D01*
X117900000Y-33900000D02*
X117700000Y-33900000D01*
X181900000Y-33900000D02*
X181700000Y-33900000D01*
%TO.N,GND*%
X173150000Y-39550000D02*
X171650000Y-41050000D01*
X138540000Y-71540000D02*
X138540000Y-80000000D01*
X189150000Y-39550000D02*
X187650000Y-41050000D01*
X194000000Y-46205000D02*
X195000000Y-46205000D01*
X141150000Y-39550000D02*
X142700000Y-41100000D01*
X149150000Y-39550000D02*
X147650000Y-41050000D01*
X125350000Y-39550000D02*
X126700000Y-40900000D01*
X125080000Y-87080000D02*
X125000000Y-87000000D01*
X201700000Y-137200000D02*
X204495000Y-137200000D01*
X131700000Y-41000000D02*
X131700000Y-43900000D01*
X138500000Y-71500000D02*
X138540000Y-71540000D01*
X179650000Y-41150000D02*
X179650000Y-43900000D01*
X163650000Y-41050000D02*
X163650000Y-43900000D01*
X189500000Y-133400000D02*
X197900000Y-133400000D01*
X181250000Y-39550000D02*
X182700000Y-41000000D01*
X204495000Y-130800000D02*
X202300000Y-130800000D01*
X139650000Y-41050000D02*
X139650000Y-43900000D01*
X171650000Y-41050000D02*
X171650000Y-43900000D01*
X181250000Y-39550000D02*
X179650000Y-41150000D01*
X165150000Y-39550000D02*
X163650000Y-41050000D01*
X197900000Y-133400000D02*
X201700000Y-137200000D01*
X125150000Y-39550000D02*
X125350000Y-39550000D01*
X125080000Y-90460000D02*
X125080000Y-87080000D01*
X195000000Y-46205000D02*
X196050000Y-45155000D01*
X157150000Y-39550000D02*
X157350000Y-39550000D01*
X157150000Y-39550000D02*
X155650000Y-41050000D01*
X133150000Y-39550000D02*
X134700000Y-41100000D01*
X189150000Y-39550000D02*
X190700000Y-41100000D01*
X155650000Y-41050000D02*
X155650000Y-43900000D01*
X186600000Y-133400000D02*
X189500000Y-133400000D01*
X173150000Y-39550000D02*
X174700000Y-41100000D01*
X157350000Y-39550000D02*
X158700000Y-40900000D01*
X133150000Y-39550000D02*
X131700000Y-41000000D01*
X199000000Y-46205000D02*
X197950000Y-45155000D01*
X189950000Y-133000000D02*
X190000000Y-133050000D01*
X200000000Y-46205000D02*
X199000000Y-46205000D01*
X141150000Y-39550000D02*
X139650000Y-41050000D01*
X125150000Y-39550000D02*
X123700000Y-41000000D01*
X147650000Y-41050000D02*
X147650000Y-43900000D01*
X187650000Y-41050000D02*
X187650000Y-43900000D01*
X165150000Y-39550000D02*
X166700000Y-41100000D01*
X123700000Y-41000000D02*
X123700000Y-43900000D01*
X202300000Y-130800000D02*
X202000000Y-130500000D01*
X185500000Y-134500000D02*
X186600000Y-133400000D01*
X149150000Y-39550000D02*
X150700000Y-41100000D01*
%TO.N,Net-(D1-A)*%
X74000000Y-62000000D02*
X74000000Y-58000000D01*
X74000000Y-58000000D02*
X76000000Y-56000000D01*
X76000000Y-56000000D02*
X89125000Y-56000000D01*
%TO.N,ROW1*%
X135000000Y-98000000D02*
X153000000Y-98000000D01*
X108000000Y-98000000D02*
X135000000Y-98000000D01*
X155560000Y-95440000D02*
X155560000Y-93000000D01*
X100000000Y-90000000D02*
X108000000Y-98000000D01*
X135000000Y-98000000D02*
X136000000Y-98000000D01*
X96000000Y-56000000D02*
X100000000Y-60000000D01*
X210000000Y-56000000D02*
X206000000Y-60000000D01*
X137000000Y-99000000D02*
X141000000Y-99000000D01*
X206000000Y-94000000D02*
X202000000Y-98000000D01*
X206000000Y-60000000D02*
X206000000Y-94000000D01*
X100000000Y-60000000D02*
X100000000Y-90000000D01*
X136000000Y-98000000D02*
X137000000Y-99000000D01*
X91000000Y-56000000D02*
X96000000Y-56000000D01*
X202000000Y-98000000D02*
X200000000Y-98000000D01*
X214125000Y-56000000D02*
X210000000Y-56000000D01*
X153000000Y-98000000D02*
X155560000Y-95440000D01*
%TO.N,ROW2*%
X90937500Y-80000000D02*
X94000000Y-80000000D01*
X97000000Y-83000000D02*
X97000000Y-92000000D01*
X153000000Y-101000000D02*
X158100000Y-95900000D01*
X94000000Y-80000000D02*
X97000000Y-83000000D01*
X136000000Y-101000000D02*
X137000000Y-102000000D01*
X209000000Y-94000000D02*
X202000000Y-101000000D01*
X209000000Y-83000000D02*
X209000000Y-94000000D01*
X202000000Y-101000000D02*
X200000000Y-101000000D01*
X212000000Y-80000000D02*
X209000000Y-83000000D01*
X106000000Y-101000000D02*
X134000000Y-101000000D01*
X134000000Y-101000000D02*
X136000000Y-101000000D01*
X137000000Y-102000000D02*
X141000000Y-102000000D01*
X97000000Y-92000000D02*
X106000000Y-101000000D01*
X134000000Y-101000000D02*
X153000000Y-101000000D01*
X214125000Y-80000000D02*
X212000000Y-80000000D01*
X158100000Y-95900000D02*
X158100000Y-93000000D01*
%TO.N,Net-(D2-A)*%
X76000000Y-80000000D02*
X89062500Y-80000000D01*
X74000000Y-86000000D02*
X74000000Y-82000000D01*
X74000000Y-82000000D02*
X76000000Y-80000000D01*
%TO.N,Net-(D3-A)*%
X76000000Y-104000000D02*
X89062500Y-104000000D01*
X74000000Y-106000000D02*
X76000000Y-104000000D01*
X74000000Y-110000000D02*
X74000000Y-106000000D01*
%TO.N,ROW3*%
X90937500Y-104000000D02*
X153000000Y-104000000D01*
X165000000Y-109000000D02*
X160640000Y-104640000D01*
X160640000Y-104640000D02*
X160640000Y-96360000D01*
X214125000Y-104000000D02*
X209125000Y-109000000D01*
X153000000Y-104000000D02*
X160640000Y-96360000D01*
X160640000Y-96360000D02*
X160640000Y-93000000D01*
X209125000Y-109000000D02*
X165000000Y-109000000D01*
%TO.N,Net-(D4-A)*%
X221062500Y-56000000D02*
X223252500Y-58190000D01*
X216000000Y-56000000D02*
X221062500Y-56000000D01*
X223252500Y-58190000D02*
X223252500Y-62000000D01*
%TO.N,Net-(D5-A)*%
X223252500Y-82190000D02*
X223252500Y-86000000D01*
X216000000Y-80000000D02*
X221062500Y-80000000D01*
X221062500Y-80000000D02*
X223252500Y-82190000D01*
%TO.N,Net-(D6-A)*%
X223252500Y-106190000D02*
X223252500Y-110000000D01*
X216000000Y-104000000D02*
X221062500Y-104000000D01*
X221062500Y-104000000D02*
X223252500Y-106190000D01*
%TO.N,DIN*%
X141471000Y-90936760D02*
X141133880Y-91273880D01*
X141471000Y-89983240D02*
X141471000Y-90936760D01*
X141133880Y-91273880D02*
X142860000Y-93000000D01*
X141000000Y-71500000D02*
X141000000Y-89512240D01*
X141000000Y-89512240D02*
X141471000Y-89983240D01*
%TO.N,Net-(D7-DOUT)*%
X181250000Y-36550000D02*
X181250000Y-36250000D01*
X184250000Y-39550000D02*
X181250000Y-36550000D01*
%TO.N,Net-(D8-DOUT)*%
X176350000Y-39550000D02*
X173150000Y-36350000D01*
X173150000Y-36350000D02*
X173150000Y-36250000D01*
%TO.N,Net-(D10-DIN)*%
X168250000Y-39550000D02*
X165150000Y-36450000D01*
X165150000Y-36450000D02*
X165150000Y-36250000D01*
%TO.N,Net-(D10-DOUT)*%
X160250000Y-39550000D02*
X157150000Y-36450000D01*
X157150000Y-36450000D02*
X157150000Y-36250000D01*
%TO.N,Net-(D11-DOUT)*%
X149150000Y-36450000D02*
X149150000Y-36250000D01*
X152250000Y-39550000D02*
X149150000Y-36450000D01*
%TO.N,Net-(D12-DOUT)*%
X141150000Y-36450000D02*
X141150000Y-36250000D01*
X144250000Y-39550000D02*
X141150000Y-36450000D01*
%TO.N,Net-(D13-DOUT)*%
X136250000Y-39550000D02*
X133150000Y-36450000D01*
X133150000Y-36450000D02*
X133150000Y-36250000D01*
%TO.N,Net-(D14-DOUT)*%
X125150000Y-36450000D02*
X125150000Y-36250000D01*
X128250000Y-39550000D02*
X125150000Y-36450000D01*
%TO.N,BUSY*%
X160000000Y-85000000D02*
X162000000Y-87000000D01*
X162000000Y-87000000D02*
X162000000Y-91820000D01*
X157000000Y-85000000D02*
X160000000Y-85000000D01*
X153500000Y-71500000D02*
X153500000Y-81500000D01*
X153500000Y-81500000D02*
X157000000Y-85000000D01*
X162000000Y-91820000D02*
X163180000Y-93000000D01*
%TO.N,CLK*%
X143500000Y-84500000D02*
X146551000Y-87551000D01*
X146551000Y-87551000D02*
X146551000Y-91611000D01*
X146551000Y-91611000D02*
X147940000Y-93000000D01*
X143500000Y-71500000D02*
X143500000Y-84500000D01*
%TO.N,CS*%
X146000000Y-83000000D02*
X147940000Y-84940000D01*
X146000000Y-71500000D02*
X146000000Y-83000000D01*
X147940000Y-84940000D02*
X147940000Y-90460000D01*
%TO.N,VCC*%
X136000000Y-71000000D02*
X134500000Y-69500000D01*
X128500000Y-69500000D02*
X126000000Y-72000000D01*
X134500000Y-69500000D02*
X128500000Y-69500000D01*
X136000000Y-80000000D02*
X136000000Y-71000000D01*
X126000000Y-72000000D02*
X126000000Y-76000000D01*
%TO.N,DC*%
X148500000Y-71500000D02*
X148500000Y-79800000D01*
X148500000Y-79800000D02*
X148700000Y-80000000D01*
%TO.N,RST*%
X151000000Y-91567760D02*
X151000000Y-91892240D01*
X151631000Y-93476760D02*
X151000000Y-94107760D01*
X151000000Y-71500000D02*
X151000000Y-89352240D01*
X151631000Y-92523240D02*
X151631000Y-93476760D01*
X151000000Y-95000000D02*
X150000000Y-96000000D01*
X150000000Y-96000000D02*
X135700000Y-96000000D01*
X151000000Y-94107760D02*
X151000000Y-95000000D01*
X151000000Y-89352240D02*
X151631000Y-89983240D01*
X151631000Y-90936760D02*
X151000000Y-91567760D01*
X151631000Y-89983240D02*
X151631000Y-90936760D01*
X151000000Y-91892240D02*
X151631000Y-92523240D01*
X135700000Y-96000000D02*
X132700000Y-93000000D01*
%TO.N,Pi TX - RX*%
X127620000Y-85620000D02*
X121000000Y-79000000D01*
X121000000Y-79000000D02*
X121000000Y-76080000D01*
X127620000Y-90460000D02*
X127620000Y-85620000D01*
X121000000Y-76080000D02*
X121080000Y-76000000D01*
%TO.N,EN*%
X165720000Y-105280000D02*
X165000000Y-106000000D01*
X118540000Y-76000000D02*
X118500000Y-75960000D01*
X165720000Y-94720000D02*
X165720000Y-93000000D01*
X118500000Y-75960000D02*
X118500000Y-72420000D01*
X118500000Y-72420000D02*
X117080000Y-71000000D01*
X112000000Y-71000000D02*
X109000000Y-74000000D01*
X165720000Y-94720000D02*
X165720000Y-105280000D01*
X109000000Y-74000000D02*
X109000000Y-93000000D01*
X117080000Y-71000000D02*
X112000000Y-71000000D01*
%TO.N,P1 RX - TX*%
X123500000Y-76120000D02*
X123500000Y-79000000D01*
X123500000Y-79000000D02*
X130160000Y-85660000D01*
X130160000Y-85660000D02*
X130160000Y-90460000D01*
X123620000Y-76000000D02*
X123500000Y-76120000D01*
%TO.N,unconnected-(J4-SHIELD-PadS1)*%
X209250000Y-129680000D02*
X209250000Y-138320000D01*
X205070000Y-129680000D02*
X209250000Y-129680000D01*
X209250000Y-138320000D02*
X205070000Y-138320000D01*
%TO.N,Net-(R1-Pad2)*%
X195700000Y-35900000D02*
X196900000Y-35900000D01*
X196900000Y-35900000D02*
X197950000Y-36950000D01*
X197950000Y-36950000D02*
X197950000Y-42645000D01*
%TO.N,GPIO18*%
X183500000Y-68500000D02*
X171000000Y-68500000D01*
X189500000Y-52000000D02*
X189500000Y-62500000D01*
X197000000Y-45155000D02*
X197000000Y-46000000D01*
X193500000Y-48000000D02*
X189500000Y-52000000D01*
X171000000Y-68500000D02*
X163180000Y-76320000D01*
X197000000Y-46000000D02*
X195000000Y-48000000D01*
X163180000Y-76320000D02*
X163180000Y-90460000D01*
X195000000Y-48000000D02*
X193500000Y-48000000D01*
X189500000Y-62500000D02*
X183500000Y-68500000D01*
%TO.N,DINNEO*%
X193700000Y-35900000D02*
X193350000Y-36250000D01*
X193350000Y-36250000D02*
X189150000Y-36250000D01*
%TD*%
M02*
