M48
; DRILL file {KiCad 9.0.2} date 2025-07-28T21:41:31+0200
; FORMAT={-:-/ absolute / inch / decimal}
; #@! TF.CreationDate,2025-07-28T21:41:31+02:00
; #@! TF.GenerationSoftware,Kicad,Pcbnew,9.0.2
; #@! TF.FileFunction,Plated,1,2,PTH
FMAT,2
INCH
; #@! TA.AperFunction,Plated,PTH,ViaDrill
T1C0.0118
; #@! TA.AperFunction,Plated,PTH,ComponentDrill
T2C0.0236
; #@! TA.AperFunction,Plated,PTH,ComponentDrill
T3C0.0374
; #@! TA.AperFunction,Plated,PTH,ComponentDrill
T4C0.0394
; #@! TA.AperFunction,Plated,PTH,ComponentDrill
T5C0.0591
%
G90
G05
T1
X4.1339Y-3.3071
X4.1339Y-4.2913
X4.2913Y-3.6614
X4.9213Y-3.4252
X4.9882Y-1.6102
X5.3031Y-1.6181
X5.5512Y-3.8976
X5.5512Y-4.0157
X5.6181Y-1.6181
X5.9331Y-1.6181
X6.248Y-1.6102
X6.4961Y-4.1732
X6.563Y-1.6181
X6.878Y-1.6181
X7.1929Y-1.6142
X7.3031Y-5.2953
X7.5079Y-1.6181
X7.6378Y-1.8191
X7.874Y-1.8191
X7.874Y-3.8583
X7.874Y-3.9764
X7.9528Y-5.1378
T3
X4.5669Y-2.9921
X4.6654Y-2.9921
X4.7638Y-2.9921
X4.8622Y-2.9921
X4.9606Y-2.9921
X5.3543Y-2.815
X5.3543Y-3.1496
X5.4528Y-2.815
X5.4528Y-3.1496
X5.5512Y-2.815
X5.5512Y-3.1496
X5.6496Y-2.815
X5.6496Y-3.1496
X5.748Y-2.815
X5.748Y-3.1496
X5.8465Y-2.815
X5.8465Y-3.1496
X5.9449Y-2.815
X5.9449Y-3.1496
X6.0433Y-2.815
X6.0433Y-3.1496
T4
X4.7244Y-3.5614
X4.7244Y-3.6614
X4.8244Y-3.5614
X4.8244Y-3.6614
X4.9244Y-3.5614
X4.9244Y-3.6614
X5.0244Y-3.5614
X5.0244Y-3.6614
X5.1244Y-3.5614
X5.1244Y-3.6614
X5.2244Y-3.5614
X5.2244Y-3.6614
X5.3244Y-3.5614
X5.3244Y-3.6614
X5.4244Y-3.5614
X5.4244Y-3.6614
X5.5244Y-3.5614
X5.5244Y-3.6614
X5.6244Y-3.5614
X5.6244Y-3.6614
X5.7244Y-3.5614
X5.7244Y-3.6614
X5.8244Y-3.5614
X5.8244Y-3.6614
X5.9244Y-3.5614
X5.9244Y-3.6614
X6.0244Y-3.5614
X6.0244Y-3.6614
X6.1244Y-3.5614
X6.1244Y-3.6614
X6.2244Y-3.5614
X6.2244Y-3.6614
X6.3244Y-3.5614
X6.3244Y-3.6614
X6.4244Y-3.5614
X6.4244Y-3.6614
X6.5244Y-3.5614
X6.5244Y-3.6614
X6.6244Y-3.5614
X6.6244Y-3.6614
T5
X2.9134Y-2.4409
X2.9134Y-3.3858
X2.9134Y-4.3307
X3.1634Y-2.3409
X3.1634Y-3.2858
X3.1634Y-4.2307
X8.7895Y-2.4409
X8.7895Y-3.3858
X8.7895Y-4.3307
X9.0395Y-2.3409
X9.0395Y-3.2858
X9.0395Y-4.2307
T2
G00X8.052Y-5.1055
M15
G01X8.0953Y-5.1055
M16
G05
G00X8.052Y-5.4457
M15
G01X8.0953Y-5.4457
M16
G05
G00X8.2224Y-5.1055
M15
G01X8.2539Y-5.1055
M16
G05
G00X8.2224Y-5.4457
M15
G01X8.2539Y-5.4457
M16
G05
M30
