%TF.GenerationSoftware,KiCad,Pcbnew,9.0.2*%
%TF.CreationDate,2025-07-28T21:41:28+02:00*%
%TF.ProjectId,keybowl_core_pcb,6b657962-6f77-46c5-9f63-6f72655f7063,rev?*%
%TF.SameCoordinates,Original*%
%TF.FileFunction,Soldermask,Top*%
%TF.FilePolarity,Negative*%
%FSLAX46Y46*%
G04 Gerber Fmt 4.6, Leading zero omitted, Abs format (unit mm)*
G04 Created by KiCad (PCBNEW 9.0.2) date 2025-07-28 21:41:28*
%MOMM*%
%LPD*%
G01*
G04 APERTURE LIST*
G04 Aperture macros list*
%AMRoundRect*
0 Rectangle with rounded corners*
0 $1 Rounding radius*
0 $2 $3 $4 $5 $6 $7 $8 $9 X,Y pos of 4 corners*
0 Add a 4 corners polygon primitive as box body*
4,1,4,$2,$3,$4,$5,$6,$7,$8,$9,$2,$3,0*
0 Add four circle primitives for the rounded corners*
1,1,$1+$1,$2,$3*
1,1,$1+$1,$4,$5*
1,1,$1+$1,$6,$7*
1,1,$1+$1,$8,$9*
0 Add four rect primitives between the rounded corners*
20,1,$1+$1,$2,$3,$4,$5,0*
20,1,$1+$1,$4,$5,$6,$7,0*
20,1,$1+$1,$6,$7,$8,$9,0*
20,1,$1+$1,$8,$9,$2,$3,0*%
G04 Aperture macros list end*
%ADD10RoundRect,0.250000X0.250000X0.475000X-0.250000X0.475000X-0.250000X-0.475000X0.250000X-0.475000X0*%
%ADD11RoundRect,0.090000X-0.660000X-0.360000X0.660000X-0.360000X0.660000X0.360000X-0.660000X0.360000X0*%
%ADD12RoundRect,0.243750X-0.243750X-0.456250X0.243750X-0.456250X0.243750X0.456250X-0.243750X0.456250X0*%
%ADD13RoundRect,0.243750X0.243750X0.456250X-0.243750X0.456250X-0.243750X-0.456250X0.243750X-0.456250X0*%
%ADD14RoundRect,0.250000X-0.475000X0.250000X-0.475000X-0.250000X0.475000X-0.250000X0.475000X0.250000X0*%
%ADD15C,0.650000*%
%ADD16RoundRect,0.150000X0.425000X-0.150000X0.425000X0.150000X-0.425000X0.150000X-0.425000X-0.150000X0*%
%ADD17RoundRect,0.075000X0.500000X-0.075000X0.500000X0.075000X-0.500000X0.075000X-0.500000X-0.075000X0*%
%ADD18O,2.100000X1.000000*%
%ADD19O,1.800000X1.000000*%
%ADD20C,1.700000*%
%ADD21C,4.000000*%
%ADD22C,2.200000*%
%ADD23RoundRect,0.198500X0.198500X-0.508500X0.198500X0.508500X-0.198500X0.508500X-0.198500X-0.508500X0*%
%ADD24RoundRect,0.250000X-0.350000X-0.450000X0.350000X-0.450000X0.350000X0.450000X-0.350000X0.450000X0*%
%ADD25C,6.000000*%
%ADD26R,1.700000X1.700000*%
%ADD27O,1.700000X1.700000*%
%ADD28RoundRect,0.250000X-0.600000X-0.725000X0.600000X-0.725000X0.600000X0.725000X-0.600000X0.725000X0*%
%ADD29O,1.700000X1.950000*%
G04 APERTURE END LIST*
D10*
%TO.C,C7*%
X139650000Y-43900000D03*
X137750000Y-43900000D03*
%TD*%
%TO.C,C4*%
X163650000Y-43900000D03*
X161750000Y-43900000D03*
%TD*%
D11*
%TO.C,D9*%
X168250000Y-36250000D03*
X168250000Y-39550000D03*
X173150000Y-39550000D03*
X173150000Y-36250000D03*
%TD*%
D10*
%TO.C,C5*%
X155650000Y-43900000D03*
X153750000Y-43900000D03*
%TD*%
D12*
%TO.C,D5*%
X214125000Y-80000000D03*
X216000000Y-80000000D03*
%TD*%
D11*
%TO.C,D11*%
X152250000Y-36250000D03*
X152250000Y-39550000D03*
X157150000Y-39550000D03*
X157150000Y-36250000D03*
%TD*%
D13*
%TO.C,D2*%
X90937500Y-80000000D03*
X89062500Y-80000000D03*
%TD*%
D14*
%TO.C,C10*%
X189500000Y-131500000D03*
X189500000Y-133400000D03*
%TD*%
D13*
%TO.C,D3*%
X90937500Y-104000000D03*
X89062500Y-104000000D03*
%TD*%
D10*
%TO.C,C8*%
X131700000Y-43900000D03*
X129800000Y-43900000D03*
%TD*%
D15*
%TO.C,J4*%
X205570000Y-136890000D03*
X205570000Y-131110000D03*
D16*
X204495000Y-137200000D03*
X204495000Y-136400000D03*
D17*
X204495000Y-135250000D03*
X204495000Y-134250000D03*
X204495000Y-133750000D03*
X204495000Y-132750000D03*
D16*
X204495000Y-131600000D03*
X204495000Y-130800000D03*
X204495000Y-130800000D03*
X204495000Y-131600000D03*
D17*
X204495000Y-132250000D03*
X204495000Y-133250000D03*
X204495000Y-134750000D03*
X204495000Y-135750000D03*
D16*
X204495000Y-136400000D03*
X204495000Y-137200000D03*
D18*
X205070000Y-138320000D03*
D19*
X209250000Y-138320000D03*
D18*
X205070000Y-129680000D03*
D19*
X209250000Y-129680000D03*
%TD*%
D12*
%TO.C,D4*%
X214125000Y-56000000D03*
X216000000Y-56000000D03*
%TD*%
D20*
%TO.C,SW2*%
X72730000Y-88540000D03*
D21*
X77810000Y-88540000D03*
D20*
X82890000Y-88540000D03*
D22*
X80350000Y-83460000D03*
X74000000Y-86000000D03*
%TD*%
D11*
%TO.C,D10*%
X160250000Y-36250000D03*
X160250000Y-39550000D03*
X165150000Y-39550000D03*
X165150000Y-36250000D03*
%TD*%
D23*
%TO.C,U2*%
X196050000Y-44755000D03*
X197000000Y-44755000D03*
X197950000Y-44755000D03*
X197950000Y-42245000D03*
X196050000Y-42245000D03*
%TD*%
D10*
%TO.C,C6*%
X147650000Y-43900000D03*
X145750000Y-43900000D03*
%TD*%
D13*
%TO.C,D1*%
X91000000Y-56000000D03*
X89125000Y-56000000D03*
%TD*%
D10*
%TO.C,C1*%
X187650000Y-43900000D03*
X185750000Y-43900000D03*
%TD*%
D20*
%TO.C,SW6*%
X221982500Y-112540000D03*
D21*
X227062500Y-112540000D03*
D20*
X232142500Y-112540000D03*
D22*
X229602500Y-107460000D03*
X223252500Y-110000000D03*
%TD*%
D10*
%TO.C,C9*%
X123700000Y-43900000D03*
X121800000Y-43900000D03*
%TD*%
D20*
%TO.C,SW1*%
X72730000Y-64540000D03*
D21*
X77810000Y-64540000D03*
D20*
X82890000Y-64540000D03*
D22*
X80350000Y-59460000D03*
X74000000Y-62000000D03*
%TD*%
D20*
%TO.C,SW4*%
X221982500Y-64540000D03*
D21*
X227062500Y-64540000D03*
D20*
X232142500Y-64540000D03*
D22*
X229602500Y-59460000D03*
X223252500Y-62000000D03*
%TD*%
D11*
%TO.C,D7*%
X184250000Y-36250000D03*
X184250000Y-39550000D03*
X189150000Y-39550000D03*
X189150000Y-36250000D03*
%TD*%
D20*
%TO.C,SW3*%
X72730000Y-112540000D03*
D21*
X77810000Y-112540000D03*
D20*
X82890000Y-112540000D03*
D22*
X80350000Y-107460000D03*
X74000000Y-110000000D03*
%TD*%
D20*
%TO.C,SW5*%
X221982500Y-88540000D03*
D21*
X227062500Y-88540000D03*
D20*
X232142500Y-88540000D03*
D22*
X229602500Y-83460000D03*
X223252500Y-86000000D03*
%TD*%
D24*
%TO.C,R1*%
X194000000Y-35900000D03*
X196000000Y-35900000D03*
%TD*%
D11*
%TO.C,D12*%
X144250000Y-36250000D03*
X144250000Y-39550000D03*
X149150000Y-39550000D03*
X149150000Y-36250000D03*
%TD*%
%TO.C,D13*%
X136250000Y-36250000D03*
X136250000Y-39550000D03*
X141150000Y-39550000D03*
X141150000Y-36250000D03*
%TD*%
D12*
%TO.C,D6*%
X214125000Y-104000000D03*
X216000000Y-104000000D03*
%TD*%
D11*
%TO.C,D8*%
X176350000Y-36250000D03*
X176350000Y-39550000D03*
X181250000Y-39550000D03*
X181250000Y-36250000D03*
%TD*%
%TO.C,D15*%
X120250000Y-36250000D03*
X120250000Y-39550000D03*
X125150000Y-39550000D03*
X125150000Y-36250000D03*
%TD*%
%TO.C,D14*%
X128250000Y-36250000D03*
X128250000Y-39550000D03*
X133150000Y-39550000D03*
X133150000Y-36250000D03*
%TD*%
D10*
%TO.C,C2*%
X179650000Y-43900000D03*
X177750000Y-43900000D03*
%TD*%
%TO.C,C3*%
X171650000Y-43900000D03*
X169750000Y-43900000D03*
%TD*%
D25*
%TO.C,U1*%
X173130000Y-91730000D03*
X115130000Y-91730000D03*
X173130000Y-114730000D03*
X115130000Y-114730000D03*
D26*
X120000000Y-93000000D03*
D27*
X120000000Y-90460000D03*
X122540000Y-93000000D03*
X122540000Y-90460000D03*
X125080000Y-93000000D03*
X125080000Y-90460000D03*
X127620000Y-93000000D03*
X127620000Y-90460000D03*
X130160000Y-93000000D03*
X130160000Y-90460000D03*
X132700000Y-93000000D03*
X132700000Y-90460000D03*
X135240000Y-93000000D03*
X135240000Y-90460000D03*
X137780000Y-93000000D03*
X137780000Y-90460000D03*
X140320000Y-93000000D03*
X140320000Y-90460000D03*
X142860000Y-93000000D03*
X142860000Y-90460000D03*
X145400000Y-93000000D03*
X145400000Y-90460000D03*
X147940000Y-93000000D03*
X147940000Y-90460000D03*
X150480000Y-93000000D03*
X150480000Y-90460000D03*
X153020000Y-93000000D03*
X153020000Y-90460000D03*
X155560000Y-93000000D03*
X155560000Y-90460000D03*
X158100000Y-93000000D03*
X158100000Y-90460000D03*
X160640000Y-93000000D03*
X160640000Y-90460000D03*
X163180000Y-93000000D03*
X163180000Y-90460000D03*
X165720000Y-93000000D03*
X165720000Y-90460000D03*
X168260000Y-93000000D03*
X168260000Y-90460000D03*
%TD*%
D28*
%TO.C,J1*%
X136000000Y-80000000D03*
D29*
X138500000Y-80000000D03*
X141000000Y-80000000D03*
X143500000Y-80000000D03*
X146000000Y-80000000D03*
X148500000Y-80000000D03*
X151000000Y-80000000D03*
X153500000Y-80000000D03*
%TD*%
D28*
%TO.C,J2*%
X136000000Y-71500000D03*
D29*
X138500000Y-71500000D03*
X141000000Y-71500000D03*
X143500000Y-71500000D03*
X146000000Y-71500000D03*
X148500000Y-71500000D03*
X151000000Y-71500000D03*
X153500000Y-71500000D03*
%TD*%
D28*
%TO.C,J3*%
X116000000Y-76000000D03*
D29*
X118500000Y-76000000D03*
X121000000Y-76000000D03*
X123500000Y-76000000D03*
X126000000Y-76000000D03*
%TD*%
M02*
