ISO-10303-21;
HEADER;
/* Generated by software containing ST-Developer
 * from STEP Tools, Inc. (www.steptools.com) 
 */

FILE_DESCRIPTION(
/* description */ (''),
/* implementation_level */ '2;1');

FILE_NAME(
/* name */ 'bowl.step',
/* time_stamp */ '2025-07-29T02:36:20+02:00',
/* author */ (''),
/* organization */ (''),
/* preprocessor_version */ 'ST-DEVELOPER v20',
/* originating_system */ 'Autodesk Translation Framework v13.20.0.188',

/* authorisation */ '');

FILE_SCHEMA (('AUTOMOTIVE_DESIGN { 1 0 10303 214 3 1 1 }'));
ENDSEC;

DATA;
#10=MECHANICAL_DESIGN_GEOMETRIC_PRESENTATION_REPRESENTATION('',(#13),#2310);
#11=SHAPE_REPRESENTATION_RELATIONSHIP('SRR','None',#2316,#12);
#12=ADVANCED_BREP_SHAPE_REPRESENTATION('',(#14),#2309);
#13=STYLED_ITEM('',(#2327),#14);
#14=MANIFOLD_SOLID_BREP('housing',#1391);
#15=SPHERICAL_SURFACE('',#1451,10.);
#16=SPHERICAL_SURFACE('',#1456,10.);
#17=SPHERICAL_SURFACE('',#1461,10.);
#18=SPHERICAL_SURFACE('',#1463,10.);
#19=ELLIPSE('',#1427,17.0268443596146,16.);
#20=ELLIPSE('',#1430,17.0268443596146,16.);
#21=FACE_BOUND('',#180,.T.);
#22=FACE_BOUND('',#184,.T.);
#23=FACE_BOUND('',#188,.T.);
#24=CIRCLE('',#1396,2.5);
#25=CIRCLE('',#1397,2.5);
#26=CIRCLE('',#1400,2.5);
#27=CIRCLE('',#1401,2.5);
#28=CIRCLE('',#1405,2.5);
#29=CIRCLE('',#1406,2.5);
#30=CIRCLE('',#1410,2.49999999999999);
#31=CIRCLE('',#1411,2.49999999999999);
#32=CIRCLE('',#1416,16.);
#33=CIRCLE('',#1417,16.);
#34=CIRCLE('',#1419,16.);
#35=CIRCLE('',#1420,10.);
#36=CIRCLE('',#1421,10.);
#37=CIRCLE('',#1422,9.99999999999999);
#38=CIRCLE('',#1423,10.);
#39=CIRCLE('',#1425,8.);
#40=CIRCLE('',#1428,16.);
#41=CIRCLE('',#1432,16.);
#42=CIRCLE('',#1434,8.);
#43=CIRCLE('',#1436,16.);
#44=CIRCLE('',#1437,2.50000000000001);
#45=CIRCLE('',#1438,2.5);
#46=CIRCLE('',#1439,2.5);
#47=CIRCLE('',#1440,2.5);
#48=CIRCLE('',#1441,2.5);
#49=CIRCLE('',#1442,2.5);
#50=CIRCLE('',#1446,10.);
#51=CIRCLE('',#1447,10.);
#52=CIRCLE('',#1449,10.);
#53=CIRCLE('',#1450,10.);
#54=CIRCLE('',#1452,10.);
#55=CIRCLE('',#1454,10.);
#56=CIRCLE('',#1455,10.);
#57=CIRCLE('',#1457,9.99999999999999);
#58=CIRCLE('',#1459,10.);
#59=CIRCLE('',#1460,10.);
#60=CIRCLE('',#1462,10.);
#61=CIRCLE('',#1464,10.);
#62=CIRCLE('',#1484,2.5);
#63=CIRCLE('',#1488,2.5);
#64=CIRCLE('',#1492,2.5);
#65=CIRCLE('',#1495,2.50000000000001);
#66=CIRCLE('',#1501,2.5);
#67=CIRCLE('',#1505,2.5);
#68=CYLINDRICAL_SURFACE('',#1395,2.5);
#69=CYLINDRICAL_SURFACE('',#1399,2.5);
#70=CYLINDRICAL_SURFACE('',#1404,2.5);
#71=CYLINDRICAL_SURFACE('',#1409,2.49999999999999);
#72=CYLINDRICAL_SURFACE('',#1415,16.);
#73=CYLINDRICAL_SURFACE('',#1426,16.);
#74=CYLINDRICAL_SURFACE('',#1431,16.);
#75=CYLINDRICAL_SURFACE('',#1443,16.);
#76=CYLINDRICAL_SURFACE('',#1444,8.);
#77=CYLINDRICAL_SURFACE('',#1445,10.);
#78=CYLINDRICAL_SURFACE('',#1448,10.);
#79=CYLINDRICAL_SURFACE('',#1453,10.);
#80=CYLINDRICAL_SURFACE('',#1458,10.);
#81=CYLINDRICAL_SURFACE('',#1465,9.99999999999999);
#82=CYLINDRICAL_SURFACE('',#1467,10.);
#83=CYLINDRICAL_SURFACE('',#1477,10.);
#84=CYLINDRICAL_SURFACE('',#1479,10.);
#85=CYLINDRICAL_SURFACE('',#1483,2.5);
#86=CYLINDRICAL_SURFACE('',#1487,2.5);
#87=CYLINDRICAL_SURFACE('',#1491,2.5);
#88=CYLINDRICAL_SURFACE('',#1494,2.50000000000001);
#89=CYLINDRICAL_SURFACE('',#1500,2.5);
#90=CYLINDRICAL_SURFACE('',#1504,2.5);
#91=FACE_OUTER_BOUND('',#164,.T.);
#92=FACE_OUTER_BOUND('',#165,.T.);
#93=FACE_OUTER_BOUND('',#166,.T.);
#94=FACE_OUTER_BOUND('',#167,.T.);
#95=FACE_OUTER_BOUND('',#168,.T.);
#96=FACE_OUTER_BOUND('',#169,.T.);
#97=FACE_OUTER_BOUND('',#170,.T.);
#98=FACE_OUTER_BOUND('',#171,.T.);
#99=FACE_OUTER_BOUND('',#172,.T.);
#100=FACE_OUTER_BOUND('',#173,.T.);
#101=FACE_OUTER_BOUND('',#174,.T.);
#102=FACE_OUTER_BOUND('',#175,.T.);
#103=FACE_OUTER_BOUND('',#176,.T.);
#104=FACE_OUTER_BOUND('',#177,.T.);
#105=FACE_OUTER_BOUND('',#178,.T.);
#106=FACE_OUTER_BOUND('',#179,.T.);
#107=FACE_OUTER_BOUND('',#181,.T.);
#108=FACE_OUTER_BOUND('',#182,.T.);
#109=FACE_OUTER_BOUND('',#183,.T.);
#110=FACE_OUTER_BOUND('',#185,.T.);
#111=FACE_OUTER_BOUND('',#186,.T.);
#112=FACE_OUTER_BOUND('',#187,.T.);
#113=FACE_OUTER_BOUND('',#189,.T.);
#114=FACE_OUTER_BOUND('',#190,.T.);
#115=FACE_OUTER_BOUND('',#191,.T.);
#116=FACE_OUTER_BOUND('',#192,.T.);
#117=FACE_OUTER_BOUND('',#193,.T.);
#118=FACE_OUTER_BOUND('',#194,.T.);
#119=FACE_OUTER_BOUND('',#195,.T.);
#120=FACE_OUTER_BOUND('',#196,.T.);
#121=FACE_OUTER_BOUND('',#197,.T.);
#122=FACE_OUTER_BOUND('',#198,.T.);
#123=FACE_OUTER_BOUND('',#199,.T.);
#124=FACE_OUTER_BOUND('',#200,.T.);
#125=FACE_OUTER_BOUND('',#201,.T.);
#126=FACE_OUTER_BOUND('',#202,.T.);
#127=FACE_OUTER_BOUND('',#203,.T.);
#128=FACE_OUTER_BOUND('',#204,.T.);
#129=FACE_OUTER_BOUND('',#205,.T.);
#130=FACE_OUTER_BOUND('',#206,.T.);
#131=FACE_OUTER_BOUND('',#207,.T.);
#132=FACE_OUTER_BOUND('',#208,.T.);
#133=FACE_OUTER_BOUND('',#209,.T.);
#134=FACE_OUTER_BOUND('',#210,.T.);
#135=FACE_OUTER_BOUND('',#211,.T.);
#136=FACE_OUTER_BOUND('',#212,.T.);
#137=FACE_OUTER_BOUND('',#213,.T.);
#138=FACE_OUTER_BOUND('',#214,.T.);
#139=FACE_OUTER_BOUND('',#215,.T.);
#140=FACE_OUTER_BOUND('',#216,.T.);
#141=FACE_OUTER_BOUND('',#217,.T.);
#142=FACE_OUTER_BOUND('',#218,.T.);
#143=FACE_OUTER_BOUND('',#219,.T.);
#144=FACE_OUTER_BOUND('',#220,.T.);
#145=FACE_OUTER_BOUND('',#221,.T.);
#146=FACE_OUTER_BOUND('',#222,.T.);
#147=FACE_OUTER_BOUND('',#223,.T.);
#148=FACE_OUTER_BOUND('',#224,.T.);
#149=FACE_OUTER_BOUND('',#225,.T.);
#150=FACE_OUTER_BOUND('',#226,.T.);
#151=FACE_OUTER_BOUND('',#227,.T.);
#152=FACE_OUTER_BOUND('',#228,.T.);
#153=FACE_OUTER_BOUND('',#229,.T.);
#154=FACE_OUTER_BOUND('',#230,.T.);
#155=FACE_OUTER_BOUND('',#231,.T.);
#156=FACE_OUTER_BOUND('',#232,.T.);
#157=FACE_OUTER_BOUND('',#233,.T.);
#158=FACE_OUTER_BOUND('',#234,.T.);
#159=FACE_OUTER_BOUND('',#235,.T.);
#160=FACE_OUTER_BOUND('',#236,.T.);
#161=FACE_OUTER_BOUND('',#237,.T.);
#162=FACE_OUTER_BOUND('',#238,.T.);
#163=FACE_OUTER_BOUND('',#239,.T.);
#164=EDGE_LOOP('',(#874,#875,#876,#877));
#165=EDGE_LOOP('',(#878,#879,#880,#881));
#166=EDGE_LOOP('',(#882,#883,#884,#885));
#167=EDGE_LOOP('',(#886,#887,#888,#889));
#168=EDGE_LOOP('',(#890,#891,#892,#893));
#169=EDGE_LOOP('',(#894,#895,#896,#897,#898,#899));
#170=EDGE_LOOP('',(#900,#901,#902,#903));
#171=EDGE_LOOP('',(#904,#905,#906,#907));
#172=EDGE_LOOP('',(#908,#909,#910,#911));
#173=EDGE_LOOP('',(#912,#913,#914,#915));
#174=EDGE_LOOP('',(#916,#917,#918,#919));
#175=EDGE_LOOP('',(#920,#921,#922,#923,#924,#925));
#176=EDGE_LOOP('',(#926,#927,#928,#929,#930,#931,#932,#933));
#177=EDGE_LOOP('',(#934,#935,#936,#937,#938,#939,#940,#941));
#178=EDGE_LOOP('',(#942,#943,#944,#945));
#179=EDGE_LOOP('',(#946,#947,#948,#949,#950,#951));
#180=EDGE_LOOP('',(#952,#953,#954,#955,#956,#957,#958,#959));
#181=EDGE_LOOP('',(#960,#961,#962,#963,#964,#965));
#182=EDGE_LOOP('',(#966,#967,#968,#969));
#183=EDGE_LOOP('',(#970,#971,#972,#973,#974,#975));
#184=EDGE_LOOP('',(#976,#977,#978,#979,#980));
#185=EDGE_LOOP('',(#981,#982,#983,#984));
#186=EDGE_LOOP('',(#985,#986,#987,#988,#989,#990));
#187=EDGE_LOOP('',(#991,#992,#993,#994,#995,#996,#997,#998));
#188=EDGE_LOOP('',(#999,#1000,#1001,#1002,#1003,#1004,#1005,#1006,#1007,
#1008,#1009,#1010,#1011,#1012,#1013,#1014,#1015,#1016,#1017,#1018,#1019,
#1020,#1021,#1022,#1023,#1024,#1025,#1026,#1027,#1028,#1029,#1030,#1031,
#1032,#1033,#1034,#1035,#1036,#1037,#1038,#1039,#1040));
#189=EDGE_LOOP('',(#1041,#1042,#1043,#1044));
#190=EDGE_LOOP('',(#1045,#1046,#1047,#1048));
#191=EDGE_LOOP('',(#1049,#1050,#1051,#1052));
#192=EDGE_LOOP('',(#1053,#1054,#1055,#1056));
#193=EDGE_LOOP('',(#1057,#1058,#1059));
#194=EDGE_LOOP('',(#1060,#1061,#1062,#1063));
#195=EDGE_LOOP('',(#1064,#1065,#1066));
#196=EDGE_LOOP('',(#1067,#1068,#1069,#1070));
#197=EDGE_LOOP('',(#1071,#1072,#1073));
#198=EDGE_LOOP('',(#1074,#1075,#1076));
#199=EDGE_LOOP('',(#1077,#1078,#1079,#1080));
#200=EDGE_LOOP('',(#1081,#1082,#1083,#1084));
#201=EDGE_LOOP('',(#1085,#1086,#1087,#1088));
#202=EDGE_LOOP('',(#1089,#1090,#1091,#1092));
#203=EDGE_LOOP('',(#1093,#1094,#1095,#1096));
#204=EDGE_LOOP('',(#1097,#1098,#1099,#1100));
#205=EDGE_LOOP('',(#1101,#1102,#1103,#1104));
#206=EDGE_LOOP('',(#1105,#1106,#1107,#1108));
#207=EDGE_LOOP('',(#1109,#1110,#1111,#1112));
#208=EDGE_LOOP('',(#1113,#1114,#1115,#1116));
#209=EDGE_LOOP('',(#1117,#1118,#1119,#1120,#1121,#1122,#1123,#1124));
#210=EDGE_LOOP('',(#1125,#1126,#1127,#1128,#1129,#1130,#1131,#1132));
#211=EDGE_LOOP('',(#1133,#1134,#1135,#1136));
#212=EDGE_LOOP('',(#1137,#1138,#1139,#1140));
#213=EDGE_LOOP('',(#1141,#1142,#1143,#1144));
#214=EDGE_LOOP('',(#1145,#1146,#1147,#1148));
#215=EDGE_LOOP('',(#1149,#1150,#1151,#1152));
#216=EDGE_LOOP('',(#1153,#1154,#1155,#1156));
#217=EDGE_LOOP('',(#1157,#1158,#1159,#1160));
#218=EDGE_LOOP('',(#1161,#1162,#1163,#1164));
#219=EDGE_LOOP('',(#1165,#1166,#1167,#1168));
#220=EDGE_LOOP('',(#1169,#1170,#1171,#1172));
#221=EDGE_LOOP('',(#1173,#1174,#1175,#1176,#1177,#1178));
#222=EDGE_LOOP('',(#1179,#1180,#1181,#1182,#1183,#1184,#1185,#1186));
#223=EDGE_LOOP('',(#1187,#1188,#1189,#1190));
#224=EDGE_LOOP('',(#1191,#1192,#1193,#1194));
#225=EDGE_LOOP('',(#1195,#1196,#1197,#1198));
#226=EDGE_LOOP('',(#1199,#1200,#1201,#1202));
#227=EDGE_LOOP('',(#1203,#1204,#1205,#1206));
#228=EDGE_LOOP('',(#1207,#1208,#1209,#1210,#1211,#1212));
#229=EDGE_LOOP('',(#1213,#1214,#1215,#1216));
#230=EDGE_LOOP('',(#1217,#1218,#1219,#1220));
#231=EDGE_LOOP('',(#1221,#1222,#1223,#1224));
#232=EDGE_LOOP('',(#1225,#1226,#1227,#1228));
#233=EDGE_LOOP('',(#1229,#1230,#1231,#1232));
#234=EDGE_LOOP('',(#1233,#1234,#1235,#1236,#1237,#1238));
#235=EDGE_LOOP('',(#1239,#1240,#1241,#1242,#1243,#1244,#1245,#1246,#1247,
#1248));
#236=EDGE_LOOP('',(#1249,#1250,#1251,#1252,#1253,#1254,#1255,#1256,#1257,
#1258,#1259));
#237=EDGE_LOOP('',(#1260,#1261,#1262,#1263));
#238=EDGE_LOOP('',(#1264,#1265,#1266,#1267));
#239=EDGE_LOOP('',(#1268,#1269,#1270,#1271));
#240=LINE('',#1909,#393);
#241=LINE('',#1911,#394);
#242=LINE('',#1913,#395);
#243=LINE('',#1914,#396);
#244=LINE('',#1918,#397);
#245=LINE('',#1920,#398);
#246=LINE('',#1922,#399);
#247=LINE('',#1923,#400);
#248=LINE('',#1928,#401);
#249=LINE('',#1932,#402);
#250=LINE('',#1934,#403);
#251=LINE('',#1935,#404);
#252=LINE('',#1940,#405);
#253=LINE('',#1944,#406);
#254=LINE('',#1946,#407);
#255=LINE('',#1948,#408);
#256=LINE('',#1949,#409);
#257=LINE('',#1954,#410);
#258=LINE('',#1958,#411);
#259=LINE('',#1960,#412);
#260=LINE('',#1961,#413);
#261=LINE('',#1965,#414);
#262=LINE('',#1967,#415);
#263=LINE('',#1969,#416);
#264=LINE('',#1970,#417);
#265=LINE('',#1975,#418);
#266=LINE('',#1978,#419);
#267=LINE('',#1980,#420);
#268=LINE('',#1982,#421);
#269=LINE('',#1984,#422);
#270=LINE('',#1985,#423);
#271=LINE('',#1988,#424);
#272=LINE('',#1990,#425);
#273=LINE('',#1992,#426);
#274=LINE('',#1994,#427);
#275=LINE('',#1995,#428);
#276=LINE('',#2001,#429);
#277=LINE('',#2004,#430);
#278=LINE('',#2007,#431);
#279=LINE('',#2009,#432);
#280=LINE('',#2011,#433);
#281=LINE('',#2014,#434);
#282=LINE('',#2019,#435);
#283=LINE('',#2023,#436);
#284=LINE('',#2027,#437);
#285=LINE('',#2030,#438);
#286=LINE('',#2033,#439);
#287=LINE('',#2035,#440);
#288=LINE('',#2037,#441);
#289=LINE('',#2044,#442);
#290=LINE('',#2047,#443);
#291=LINE('',#2051,#444);
#292=LINE('',#2052,#445);
#293=LINE('',#2055,#446);
#294=LINE('',#2057,#447);
#295=LINE('',#2059,#448);
#296=LINE('',#2061,#449);
#297=LINE('',#2062,#450);
#298=LINE('',#2065,#451);
#299=LINE('',#2068,#452);
#300=LINE('',#2071,#453);
#301=LINE('',#2072,#454);
#302=LINE('',#2076,#455);
#303=LINE('',#2078,#456);
#304=LINE('',#2079,#457);
#305=LINE('',#2081,#458);
#306=LINE('',#2083,#459);
#307=LINE('',#2085,#460);
#308=LINE('',#2087,#461);
#309=LINE('',#2089,#462);
#310=LINE('',#2093,#463);
#311=LINE('',#2097,#464);
#312=LINE('',#2099,#465);
#313=LINE('',#2101,#466);
#314=LINE('',#2103,#467);
#315=LINE('',#2107,#468);
#316=LINE('',#2111,#469);
#317=LINE('',#2113,#470);
#318=LINE('',#2115,#471);
#319=LINE('',#2117,#472);
#320=LINE('',#2121,#473);
#321=LINE('',#2125,#474);
#322=LINE('',#2127,#475);
#323=LINE('',#2129,#476);
#324=LINE('',#2131,#477);
#325=LINE('',#2132,#478);
#326=LINE('',#2134,#479);
#327=LINE('',#2141,#480);
#328=LINE('',#2144,#481);
#329=LINE('',#2149,#482);
#330=LINE('',#2152,#483);
#331=LINE('',#2159,#484);
#332=LINE('',#2162,#485);
#333=LINE('',#2168,#486);
#334=LINE('',#2171,#487);
#335=LINE('',#2177,#488);
#336=LINE('',#2178,#489);
#337=LINE('',#2180,#490);
#338=LINE('',#2182,#491);
#339=LINE('',#2184,#492);
#340=LINE('',#2188,#493);
#341=LINE('',#2189,#494);
#342=LINE('',#2191,#495);
#343=LINE('',#2194,#496);
#344=LINE('',#2195,#497);
#345=LINE('',#2198,#498);
#346=LINE('',#2199,#499);
#347=LINE('',#2202,#500);
#348=LINE('',#2203,#501);
#349=LINE('',#2205,#502);
#350=LINE('',#2208,#503);
#351=LINE('',#2210,#504);
#352=LINE('',#2211,#505);
#353=LINE('',#2213,#506);
#354=LINE('',#2215,#507);
#355=LINE('',#2217,#508);
#356=LINE('',#2222,#509);
#357=LINE('',#2224,#510);
#358=LINE('',#2225,#511);
#359=LINE('',#2228,#512);
#360=LINE('',#2232,#513);
#361=LINE('',#2233,#514);
#362=LINE('',#2236,#515);
#363=LINE('',#2238,#516);
#364=LINE('',#2239,#517);
#365=LINE('',#2243,#518);
#366=LINE('',#2246,#519);
#367=LINE('',#2248,#520);
#368=LINE('',#2249,#521);
#369=LINE('',#2252,#522);
#370=LINE('',#2255,#523);
#371=LINE('',#2258,#524);
#372=LINE('',#2259,#525);
#373=LINE('',#2262,#526);
#374=LINE('',#2266,#527);
#375=LINE('',#2267,#528);
#376=LINE('',#2270,#529);
#377=LINE('',#2271,#530);
#378=LINE('',#2273,#531);
#379=LINE('',#2276,#532);
#380=LINE('',#2278,#533);
#381=LINE('',#2279,#534);
#382=LINE('',#2282,#535);
#383=LINE('',#2286,#536);
#384=LINE('',#2287,#537);
#385=LINE('',#2290,#538);
#386=LINE('',#2292,#539);
#387=LINE('',#2293,#540);
#388=LINE('',#2297,#541);
#389=LINE('',#2299,#542);
#390=LINE('',#2300,#543);
#391=LINE('',#2302,#544);
#392=LINE('',#2303,#545);
#393=VECTOR('',#1516,10.);
#394=VECTOR('',#1517,10.);
#395=VECTOR('',#1518,10.);
#396=VECTOR('',#1519,10.);
#397=VECTOR('',#1522,10.);
#398=VECTOR('',#1523,10.);
#399=VECTOR('',#1524,10.);
#400=VECTOR('',#1525,10.);
#401=VECTOR('',#1530,10.);
#402=VECTOR('',#1535,10.);
#403=VECTOR('',#1536,10.);
#404=VECTOR('',#1537,10.);
#405=VECTOR('',#1546,10.);
#406=VECTOR('',#1549,10.);
#407=VECTOR('',#1550,10.);
#408=VECTOR('',#1551,10.);
#409=VECTOR('',#1552,10.);
#410=VECTOR('',#1557,10.);
#411=VECTOR('',#1562,10.);
#412=VECTOR('',#1563,10.);
#413=VECTOR('',#1564,10.);
#414=VECTOR('',#1567,10.);
#415=VECTOR('',#1568,10.);
#416=VECTOR('',#1569,10.);
#417=VECTOR('',#1570,10.);
#418=VECTOR('',#1579,10.);
#419=VECTOR('',#1582,10.);
#420=VECTOR('',#1583,10.);
#421=VECTOR('',#1584,10.);
#422=VECTOR('',#1585,10.);
#423=VECTOR('',#1586,10.);
#424=VECTOR('',#1589,10.);
#425=VECTOR('',#1590,10.);
#426=VECTOR('',#1591,10.);
#427=VECTOR('',#1592,10.);
#428=VECTOR('',#1593,10.);
#429=VECTOR('',#1598,10.);
#430=VECTOR('',#1601,10.);
#431=VECTOR('',#1604,10.);
#432=VECTOR('',#1605,10.);
#433=VECTOR('',#1606,10.);
#434=VECTOR('',#1609,10.);
#435=VECTOR('',#1612,10.);
#436=VECTOR('',#1615,10.);
#437=VECTOR('',#1618,10.);
#438=VECTOR('',#1621,10.);
#439=VECTOR('',#1624,10.);
#440=VECTOR('',#1625,10.);
#441=VECTOR('',#1626,10.);
#442=VECTOR('',#1635,10.);
#443=VECTOR('',#1638,10.);
#444=VECTOR('',#1641,10.);
#445=VECTOR('',#1642,10.);
#446=VECTOR('',#1643,10.);
#447=VECTOR('',#1644,10.);
#448=VECTOR('',#1645,10.);
#449=VECTOR('',#1646,10.);
#450=VECTOR('',#1647,10.);
#451=VECTOR('',#1650,10.);
#452=VECTOR('',#1653,10.);
#453=VECTOR('',#1656,10.);
#454=VECTOR('',#1657,10.);
#455=VECTOR('',#1662,10.);
#456=VECTOR('',#1665,10.);
#457=VECTOR('',#1666,10.);
#458=VECTOR('',#1667,10.);
#459=VECTOR('',#1668,10.);
#460=VECTOR('',#1669,10.);
#461=VECTOR('',#1670,10.);
#462=VECTOR('',#1671,10.);
#463=VECTOR('',#1674,10.);
#464=VECTOR('',#1677,10.);
#465=VECTOR('',#1678,10.);
#466=VECTOR('',#1679,10.);
#467=VECTOR('',#1680,10.);
#468=VECTOR('',#1683,10.);
#469=VECTOR('',#1686,10.);
#470=VECTOR('',#1687,10.);
#471=VECTOR('',#1688,10.);
#472=VECTOR('',#1689,10.);
#473=VECTOR('',#1692,10.);
#474=VECTOR('',#1695,10.);
#475=VECTOR('',#1696,10.);
#476=VECTOR('',#1697,10.);
#477=VECTOR('',#1698,10.);
#478=VECTOR('',#1699,10.);
#479=VECTOR('',#1702,10.);
#480=VECTOR('',#1709,10.);
#481=VECTOR('',#1712,10.);
#482=VECTOR('',#1717,10.);
#483=VECTOR('',#1720,10.);
#484=VECTOR('',#1729,10.);
#485=VECTOR('',#1732,10.);
#486=VECTOR('',#1741,10.);
#487=VECTOR('',#1744,10.);
#488=VECTOR('',#1755,10.);
#489=VECTOR('',#1756,10.);
#490=VECTOR('',#1759,10.);
#491=VECTOR('',#1762,10.);
#492=VECTOR('',#1765,10.);
#493=VECTOR('',#1770,10.);
#494=VECTOR('',#1771,10.);
#495=VECTOR('',#1774,10.);
#496=VECTOR('',#1777,10.);
#497=VECTOR('',#1778,10.);
#498=VECTOR('',#1781,10.);
#499=VECTOR('',#1782,10.);
#500=VECTOR('',#1785,10.);
#501=VECTOR('',#1786,10.);
#502=VECTOR('',#1789,10.);
#503=VECTOR('',#1792,10.);
#504=VECTOR('',#1793,10.);
#505=VECTOR('',#1794,10.);
#506=VECTOR('',#1797,10.);
#507=VECTOR('',#1800,10.);
#508=VECTOR('',#1803,10.);
#509=VECTOR('',#1810,10.);
#510=VECTOR('',#1811,10.);
#511=VECTOR('',#1812,10.);
#512=VECTOR('',#1815,10.);
#513=VECTOR('',#1820,10.);
#514=VECTOR('',#1821,10.);
#515=VECTOR('',#1824,10.);
#516=VECTOR('',#1825,10.);
#517=VECTOR('',#1826,10.);
#518=VECTOR('',#1833,10.);
#519=VECTOR('',#1836,10.);
#520=VECTOR('',#1837,10.);
#521=VECTOR('',#1838,10.);
#522=VECTOR('',#1841,10.);
#523=VECTOR('',#1844,10.);
#524=VECTOR('',#1847,10.);
#525=VECTOR('',#1848,10.);
#526=VECTOR('',#1851,10.);
#527=VECTOR('',#1856,10.);
#528=VECTOR('',#1857,10.);
#529=VECTOR('',#1860,10.);
#530=VECTOR('',#1861,10.);
#531=VECTOR('',#1864,10.);
#532=VECTOR('',#1867,10.);
#533=VECTOR('',#1868,10.);
#534=VECTOR('',#1869,10.);
#535=VECTOR('',#1872,10.);
#536=VECTOR('',#1877,10.);
#537=VECTOR('',#1878,10.);
#538=VECTOR('',#1881,10.);
#539=VECTOR('',#1882,10.);
#540=VECTOR('',#1883,10.);
#541=VECTOR('',#1890,10.);
#542=VECTOR('',#1893,10.);
#543=VECTOR('',#1894,10.);
#544=VECTOR('',#1897,10.);
#545=VECTOR('',#1898,10.);
#546=VERTEX_POINT('',#1907);
#547=VERTEX_POINT('',#1908);
#548=VERTEX_POINT('',#1910);
#549=VERTEX_POINT('',#1912);
#550=VERTEX_POINT('',#1916);
#551=VERTEX_POINT('',#1917);
#552=VERTEX_POINT('',#1919);
#553=VERTEX_POINT('',#1921);
#554=VERTEX_POINT('',#1925);
#555=VERTEX_POINT('',#1927);
#556=VERTEX_POINT('',#1931);
#557=VERTEX_POINT('',#1933);
#558=VERTEX_POINT('',#1942);
#559=VERTEX_POINT('',#1943);
#560=VERTEX_POINT('',#1945);
#561=VERTEX_POINT('',#1947);
#562=VERTEX_POINT('',#1951);
#563=VERTEX_POINT('',#1953);
#564=VERTEX_POINT('',#1957);
#565=VERTEX_POINT('',#1959);
#566=VERTEX_POINT('',#1963);
#567=VERTEX_POINT('',#1964);
#568=VERTEX_POINT('',#1966);
#569=VERTEX_POINT('',#1968);
#570=VERTEX_POINT('',#1977);
#571=VERTEX_POINT('',#1979);
#572=VERTEX_POINT('',#1981);
#573=VERTEX_POINT('',#1983);
#574=VERTEX_POINT('',#1987);
#575=VERTEX_POINT('',#1989);
#576=VERTEX_POINT('',#1991);
#577=VERTEX_POINT('',#1993);
#578=VERTEX_POINT('',#1997);
#579=VERTEX_POINT('',#1998);
#580=VERTEX_POINT('',#2000);
#581=VERTEX_POINT('',#2002);
#582=VERTEX_POINT('',#2006);
#583=VERTEX_POINT('',#2008);
#584=VERTEX_POINT('',#2010);
#585=VERTEX_POINT('',#2012);
#586=VERTEX_POINT('',#2015);
#587=VERTEX_POINT('',#2016);
#588=VERTEX_POINT('',#2018);
#589=VERTEX_POINT('',#2020);
#590=VERTEX_POINT('',#2022);
#591=VERTEX_POINT('',#2024);
#592=VERTEX_POINT('',#2026);
#593=VERTEX_POINT('',#2028);
#594=VERTEX_POINT('',#2032);
#595=VERTEX_POINT('',#2034);
#596=VERTEX_POINT('',#2036);
#597=VERTEX_POINT('',#2040);
#598=VERTEX_POINT('',#2042);
#599=VERTEX_POINT('',#2046);
#600=VERTEX_POINT('',#2048);
#601=VERTEX_POINT('',#2050);
#602=VERTEX_POINT('',#2053);
#603=VERTEX_POINT('',#2054);
#604=VERTEX_POINT('',#2056);
#605=VERTEX_POINT('',#2058);
#606=VERTEX_POINT('',#2060);
#607=VERTEX_POINT('',#2064);
#608=VERTEX_POINT('',#2066);
#609=VERTEX_POINT('',#2070);
#610=VERTEX_POINT('',#2075);
#611=VERTEX_POINT('',#2080);
#612=VERTEX_POINT('',#2082);
#613=VERTEX_POINT('',#2084);
#614=VERTEX_POINT('',#2086);
#615=VERTEX_POINT('',#2088);
#616=VERTEX_POINT('',#2090);
#617=VERTEX_POINT('',#2092);
#618=VERTEX_POINT('',#2094);
#619=VERTEX_POINT('',#2096);
#620=VERTEX_POINT('',#2098);
#621=VERTEX_POINT('',#2100);
#622=VERTEX_POINT('',#2102);
#623=VERTEX_POINT('',#2104);
#624=VERTEX_POINT('',#2106);
#625=VERTEX_POINT('',#2108);
#626=VERTEX_POINT('',#2110);
#627=VERTEX_POINT('',#2112);
#628=VERTEX_POINT('',#2114);
#629=VERTEX_POINT('',#2116);
#630=VERTEX_POINT('',#2118);
#631=VERTEX_POINT('',#2120);
#632=VERTEX_POINT('',#2122);
#633=VERTEX_POINT('',#2124);
#634=VERTEX_POINT('',#2126);
#635=VERTEX_POINT('',#2128);
#636=VERTEX_POINT('',#2130);
#637=VERTEX_POINT('',#2137);
#638=VERTEX_POINT('',#2138);
#639=VERTEX_POINT('',#2140);
#640=VERTEX_POINT('',#2142);
#641=VERTEX_POINT('',#2146);
#642=VERTEX_POINT('',#2148);
#643=VERTEX_POINT('',#2150);
#644=VERTEX_POINT('',#2156);
#645=VERTEX_POINT('',#2158);
#646=VERTEX_POINT('',#2160);
#647=VERTEX_POINT('',#2166);
#648=VERTEX_POINT('',#2169);
#649=VERTEX_POINT('',#2187);
#650=VERTEX_POINT('',#2193);
#651=VERTEX_POINT('',#2197);
#652=VERTEX_POINT('',#2201);
#653=VERTEX_POINT('',#2207);
#654=VERTEX_POINT('',#2209);
#655=VERTEX_POINT('',#2221);
#656=VERTEX_POINT('',#2223);
#657=VERTEX_POINT('',#2227);
#658=VERTEX_POINT('',#2231);
#659=VERTEX_POINT('',#2235);
#660=VERTEX_POINT('',#2237);
#661=VERTEX_POINT('',#2245);
#662=VERTEX_POINT('',#2247);
#663=VERTEX_POINT('',#2251);
#664=VERTEX_POINT('',#2253);
#665=VERTEX_POINT('',#2257);
#666=VERTEX_POINT('',#2261);
#667=VERTEX_POINT('',#2265);
#668=VERTEX_POINT('',#2269);
#669=VERTEX_POINT('',#2275);
#670=VERTEX_POINT('',#2277);
#671=VERTEX_POINT('',#2281);
#672=VERTEX_POINT('',#2285);
#673=VERTEX_POINT('',#2289);
#674=VERTEX_POINT('',#2291);
#675=EDGE_CURVE('',#546,#547,#240,.T.);
#676=EDGE_CURVE('',#548,#546,#241,.T.);
#677=EDGE_CURVE('',#548,#549,#242,.T.);
#678=EDGE_CURVE('',#547,#549,#243,.T.);
#679=EDGE_CURVE('',#550,#551,#244,.T.);
#680=EDGE_CURVE('',#550,#552,#245,.T.);
#681=EDGE_CURVE('',#552,#553,#246,.T.);
#682=EDGE_CURVE('',#551,#553,#247,.T.);
#683=EDGE_CURVE('',#554,#550,#24,.T.);
#684=EDGE_CURVE('',#554,#555,#248,.T.);
#685=EDGE_CURVE('',#555,#552,#25,.T.);
#686=EDGE_CURVE('',#556,#554,#249,.T.);
#687=EDGE_CURVE('',#556,#557,#250,.T.);
#688=EDGE_CURVE('',#557,#555,#251,.T.);
#689=EDGE_CURVE('',#547,#556,#26,.T.);
#690=EDGE_CURVE('',#549,#557,#27,.T.);
#691=EDGE_CURVE('',#553,#548,#252,.T.);
#692=EDGE_CURVE('',#558,#559,#253,.T.);
#693=EDGE_CURVE('',#558,#560,#254,.T.);
#694=EDGE_CURVE('',#560,#561,#255,.T.);
#695=EDGE_CURVE('',#559,#561,#256,.T.);
#696=EDGE_CURVE('',#562,#558,#28,.T.);
#697=EDGE_CURVE('',#562,#563,#257,.T.);
#698=EDGE_CURVE('',#563,#560,#29,.T.);
#699=EDGE_CURVE('',#564,#562,#258,.T.);
#700=EDGE_CURVE('',#565,#564,#259,.T.);
#701=EDGE_CURVE('',#565,#563,#260,.T.);
#702=EDGE_CURVE('',#566,#567,#261,.T.);
#703=EDGE_CURVE('',#566,#568,#262,.T.);
#704=EDGE_CURVE('',#568,#569,#263,.T.);
#705=EDGE_CURVE('',#567,#569,#264,.T.);
#706=EDGE_CURVE('',#559,#566,#30,.T.);
#707=EDGE_CURVE('',#561,#568,#31,.T.);
#708=EDGE_CURVE('',#569,#565,#265,.T.);
#709=EDGE_CURVE('',#570,#546,#266,.T.);
#710=EDGE_CURVE('',#570,#571,#267,.T.);
#711=EDGE_CURVE('',#571,#572,#268,.T.);
#712=EDGE_CURVE('',#573,#572,#269,.T.);
#713=EDGE_CURVE('',#551,#573,#270,.T.);
#714=EDGE_CURVE('',#574,#564,#271,.T.);
#715=EDGE_CURVE('',#574,#575,#272,.T.);
#716=EDGE_CURVE('',#575,#576,#273,.T.);
#717=EDGE_CURVE('',#577,#576,#274,.T.);
#718=EDGE_CURVE('',#567,#577,#275,.T.);
#719=EDGE_CURVE('',#578,#579,#32,.T.);
#720=EDGE_CURVE('',#579,#580,#276,.T.);
#721=EDGE_CURVE('',#580,#581,#33,.T.);
#722=EDGE_CURVE('',#581,#578,#277,.T.);
#723=EDGE_CURVE('',#578,#582,#278,.F.);
#724=EDGE_CURVE('',#583,#582,#279,.T.);
#725=EDGE_CURVE('',#583,#584,#280,.F.);
#726=EDGE_CURVE('',#585,#584,#34,.T.);
#727=EDGE_CURVE('',#585,#579,#281,.F.);
#728=EDGE_CURVE('',#586,#587,#35,.T.);
#729=EDGE_CURVE('',#587,#588,#282,.T.);
#730=EDGE_CURVE('',#588,#589,#36,.T.);
#731=EDGE_CURVE('',#589,#590,#283,.T.);
#732=EDGE_CURVE('',#590,#591,#37,.T.);
#733=EDGE_CURVE('',#591,#592,#284,.T.);
#734=EDGE_CURVE('',#592,#593,#38,.T.);
#735=EDGE_CURVE('',#593,#586,#285,.T.);
#736=EDGE_CURVE('',#581,#594,#286,.F.);
#737=EDGE_CURVE('',#595,#594,#287,.T.);
#738=EDGE_CURVE('',#595,#596,#288,.F.);
#739=EDGE_CURVE('',#582,#596,#39,.T.);
#740=EDGE_CURVE('',#597,#595,#19,.T.);
#741=EDGE_CURVE('',#594,#598,#40,.T.);
#742=EDGE_CURVE('',#598,#597,#289,.T.);
#743=EDGE_CURVE('',#599,#597,#290,.F.);
#744=EDGE_CURVE('',#600,#599,#20,.T.);
#745=EDGE_CURVE('',#601,#600,#291,.F.);
#746=EDGE_CURVE('',#596,#601,#292,.T.);
#747=EDGE_CURVE('',#602,#603,#293,.T.);
#748=EDGE_CURVE('',#603,#604,#294,.T.);
#749=EDGE_CURVE('',#605,#604,#295,.T.);
#750=EDGE_CURVE('',#605,#606,#296,.T.);
#751=EDGE_CURVE('',#606,#602,#297,.T.);
#752=EDGE_CURVE('',#599,#607,#298,.T.);
#753=EDGE_CURVE('',#607,#608,#41,.T.);
#754=EDGE_CURVE('',#608,#600,#299,.T.);
#755=EDGE_CURVE('',#609,#608,#300,.T.);
#756=EDGE_CURVE('',#584,#609,#301,.T.);
#757=EDGE_CURVE('',#601,#583,#42,.T.);
#758=EDGE_CURVE('',#610,#580,#302,.F.);
#759=EDGE_CURVE('',#609,#610,#43,.T.);
#760=EDGE_CURVE('',#607,#598,#303,.T.);
#761=EDGE_CURVE('',#573,#574,#304,.T.);
#762=EDGE_CURVE('',#577,#611,#305,.T.);
#763=EDGE_CURVE('',#611,#612,#306,.T.);
#764=EDGE_CURVE('',#613,#612,#307,.T.);
#765=EDGE_CURVE('',#614,#613,#308,.T.);
#766=EDGE_CURVE('',#614,#615,#309,.T.);
#767=EDGE_CURVE('',#615,#616,#44,.T.);
#768=EDGE_CURVE('',#616,#617,#310,.T.);
#769=EDGE_CURVE('',#617,#618,#45,.T.);
#770=EDGE_CURVE('',#618,#619,#311,.T.);
#771=EDGE_CURVE('',#620,#619,#312,.T.);
#772=EDGE_CURVE('',#621,#620,#313,.T.);
#773=EDGE_CURVE('',#621,#622,#314,.T.);
#774=EDGE_CURVE('',#622,#623,#46,.T.);
#775=EDGE_CURVE('',#623,#624,#315,.T.);
#776=EDGE_CURVE('',#624,#625,#47,.T.);
#777=EDGE_CURVE('',#625,#626,#316,.T.);
#778=EDGE_CURVE('',#627,#626,#317,.T.);
#779=EDGE_CURVE('',#628,#627,#318,.T.);
#780=EDGE_CURVE('',#628,#629,#319,.T.);
#781=EDGE_CURVE('',#629,#630,#48,.T.);
#782=EDGE_CURVE('',#630,#631,#320,.T.);
#783=EDGE_CURVE('',#631,#632,#49,.T.);
#784=EDGE_CURVE('',#632,#633,#321,.T.);
#785=EDGE_CURVE('',#634,#633,#322,.T.);
#786=EDGE_CURVE('',#635,#634,#323,.T.);
#787=EDGE_CURVE('',#635,#636,#324,.T.);
#788=EDGE_CURVE('',#636,#570,#325,.T.);
#789=EDGE_CURVE('',#610,#585,#326,.T.);
#790=EDGE_CURVE('',#637,#638,#50,.T.);
#791=EDGE_CURVE('',#638,#639,#327,.T.);
#792=EDGE_CURVE('',#639,#640,#51,.T.);
#793=EDGE_CURVE('',#640,#637,#328,.T.);
#794=EDGE_CURVE('',#641,#639,#52,.T.);
#795=EDGE_CURVE('',#639,#642,#329,.T.);
#796=EDGE_CURVE('',#642,#643,#53,.T.);
#797=EDGE_CURVE('',#643,#641,#330,.T.);
#798=EDGE_CURVE('',#641,#640,#54,.T.);
#799=EDGE_CURVE('',#644,#642,#55,.T.);
#800=EDGE_CURVE('',#642,#645,#331,.T.);
#801=EDGE_CURVE('',#645,#646,#56,.T.);
#802=EDGE_CURVE('',#646,#644,#332,.T.);
#803=EDGE_CURVE('',#644,#643,#57,.T.);
#804=EDGE_CURVE('',#647,#645,#58,.T.);
#805=EDGE_CURVE('',#645,#638,#333,.T.);
#806=EDGE_CURVE('',#638,#648,#59,.T.);
#807=EDGE_CURVE('',#648,#647,#334,.T.);
#808=EDGE_CURVE('',#647,#646,#60,.T.);
#809=EDGE_CURVE('',#637,#648,#61,.T.);
#810=EDGE_CURVE('',#591,#644,#335,.T.);
#811=EDGE_CURVE('',#590,#643,#336,.T.);
#812=EDGE_CURVE('',#592,#646,#337,.T.);
#813=EDGE_CURVE('',#593,#647,#338,.T.);
#814=EDGE_CURVE('',#586,#648,#339,.T.);
#815=EDGE_CURVE('',#611,#649,#340,.T.);
#816=EDGE_CURVE('',#576,#649,#341,.T.);
#817=EDGE_CURVE('',#572,#575,#342,.T.);
#818=EDGE_CURVE('',#636,#650,#343,.T.);
#819=EDGE_CURVE('',#650,#571,#344,.T.);
#820=EDGE_CURVE('',#651,#635,#345,.T.);
#821=EDGE_CURVE('',#651,#650,#346,.T.);
#822=EDGE_CURVE('',#649,#652,#347,.T.);
#823=EDGE_CURVE('',#612,#652,#348,.T.);
#824=EDGE_CURVE('',#652,#651,#349,.T.);
#825=EDGE_CURVE('',#634,#653,#350,.T.);
#826=EDGE_CURVE('',#653,#654,#351,.T.);
#827=EDGE_CURVE('',#613,#654,#352,.T.);
#828=EDGE_CURVE('',#587,#637,#353,.T.);
#829=EDGE_CURVE('',#589,#641,#354,.T.);
#830=EDGE_CURVE('',#588,#640,#355,.T.);
#831=EDGE_CURVE('',#623,#655,#356,.T.);
#832=EDGE_CURVE('',#655,#656,#357,.T.);
#833=EDGE_CURVE('',#624,#656,#358,.T.);
#834=EDGE_CURVE('',#622,#657,#359,.T.);
#835=EDGE_CURVE('',#657,#655,#62,.T.);
#836=EDGE_CURVE('',#658,#621,#360,.T.);
#837=EDGE_CURVE('',#658,#657,#361,.T.);
#838=EDGE_CURVE('',#625,#659,#362,.T.);
#839=EDGE_CURVE('',#659,#660,#363,.T.);
#840=EDGE_CURVE('',#626,#660,#364,.T.);
#841=EDGE_CURVE('',#656,#659,#63,.T.);
#842=EDGE_CURVE('',#660,#658,#365,.T.);
#843=EDGE_CURVE('',#620,#661,#366,.T.);
#844=EDGE_CURVE('',#661,#662,#367,.T.);
#845=EDGE_CURVE('',#627,#662,#368,.T.);
#846=EDGE_CURVE('',#617,#663,#369,.T.);
#847=EDGE_CURVE('',#663,#664,#64,.T.);
#848=EDGE_CURVE('',#618,#664,#370,.T.);
#849=EDGE_CURVE('',#616,#665,#371,.T.);
#850=EDGE_CURVE('',#665,#663,#372,.T.);
#851=EDGE_CURVE('',#615,#666,#373,.T.);
#852=EDGE_CURVE('',#666,#665,#65,.T.);
#853=EDGE_CURVE('',#667,#614,#374,.T.);
#854=EDGE_CURVE('',#667,#666,#375,.T.);
#855=EDGE_CURVE('',#664,#668,#376,.T.);
#856=EDGE_CURVE('',#619,#668,#377,.T.);
#857=EDGE_CURVE('',#668,#667,#378,.T.);
#858=EDGE_CURVE('',#630,#669,#379,.T.);
#859=EDGE_CURVE('',#669,#670,#380,.T.);
#860=EDGE_CURVE('',#631,#670,#381,.T.);
#861=EDGE_CURVE('',#629,#671,#382,.T.);
#862=EDGE_CURVE('',#671,#669,#66,.T.);
#863=EDGE_CURVE('',#672,#628,#383,.T.);
#864=EDGE_CURVE('',#672,#671,#384,.T.);
#865=EDGE_CURVE('',#632,#673,#385,.T.);
#866=EDGE_CURVE('',#673,#674,#386,.T.);
#867=EDGE_CURVE('',#633,#674,#387,.T.);
#868=EDGE_CURVE('',#670,#673,#67,.T.);
#869=EDGE_CURVE('',#674,#672,#388,.T.);
#870=EDGE_CURVE('',#654,#603,#389,.T.);
#871=EDGE_CURVE('',#661,#602,#390,.T.);
#872=EDGE_CURVE('',#606,#662,#391,.T.);
#873=EDGE_CURVE('',#604,#653,#392,.T.);
#874=ORIENTED_EDGE('',*,*,#675,.F.);
#875=ORIENTED_EDGE('',*,*,#676,.F.);
#876=ORIENTED_EDGE('',*,*,#677,.T.);
#877=ORIENTED_EDGE('',*,*,#678,.F.);
#878=ORIENTED_EDGE('',*,*,#679,.F.);
#879=ORIENTED_EDGE('',*,*,#680,.T.);
#880=ORIENTED_EDGE('',*,*,#681,.T.);
#881=ORIENTED_EDGE('',*,*,#682,.F.);
#882=ORIENTED_EDGE('',*,*,#683,.F.);
#883=ORIENTED_EDGE('',*,*,#684,.T.);
#884=ORIENTED_EDGE('',*,*,#685,.T.);
#885=ORIENTED_EDGE('',*,*,#680,.F.);
#886=ORIENTED_EDGE('',*,*,#686,.F.);
#887=ORIENTED_EDGE('',*,*,#687,.T.);
#888=ORIENTED_EDGE('',*,*,#688,.T.);
#889=ORIENTED_EDGE('',*,*,#684,.F.);
#890=ORIENTED_EDGE('',*,*,#689,.F.);
#891=ORIENTED_EDGE('',*,*,#678,.T.);
#892=ORIENTED_EDGE('',*,*,#690,.T.);
#893=ORIENTED_EDGE('',*,*,#687,.F.);
#894=ORIENTED_EDGE('',*,*,#690,.F.);
#895=ORIENTED_EDGE('',*,*,#677,.F.);
#896=ORIENTED_EDGE('',*,*,#691,.F.);
#897=ORIENTED_EDGE('',*,*,#681,.F.);
#898=ORIENTED_EDGE('',*,*,#685,.F.);
#899=ORIENTED_EDGE('',*,*,#688,.F.);
#900=ORIENTED_EDGE('',*,*,#692,.F.);
#901=ORIENTED_EDGE('',*,*,#693,.T.);
#902=ORIENTED_EDGE('',*,*,#694,.T.);
#903=ORIENTED_EDGE('',*,*,#695,.F.);
#904=ORIENTED_EDGE('',*,*,#696,.F.);
#905=ORIENTED_EDGE('',*,*,#697,.T.);
#906=ORIENTED_EDGE('',*,*,#698,.T.);
#907=ORIENTED_EDGE('',*,*,#693,.F.);
#908=ORIENTED_EDGE('',*,*,#699,.F.);
#909=ORIENTED_EDGE('',*,*,#700,.F.);
#910=ORIENTED_EDGE('',*,*,#701,.T.);
#911=ORIENTED_EDGE('',*,*,#697,.F.);
#912=ORIENTED_EDGE('',*,*,#702,.F.);
#913=ORIENTED_EDGE('',*,*,#703,.T.);
#914=ORIENTED_EDGE('',*,*,#704,.T.);
#915=ORIENTED_EDGE('',*,*,#705,.F.);
#916=ORIENTED_EDGE('',*,*,#706,.F.);
#917=ORIENTED_EDGE('',*,*,#695,.T.);
#918=ORIENTED_EDGE('',*,*,#707,.T.);
#919=ORIENTED_EDGE('',*,*,#703,.F.);
#920=ORIENTED_EDGE('',*,*,#707,.F.);
#921=ORIENTED_EDGE('',*,*,#694,.F.);
#922=ORIENTED_EDGE('',*,*,#698,.F.);
#923=ORIENTED_EDGE('',*,*,#701,.F.);
#924=ORIENTED_EDGE('',*,*,#708,.F.);
#925=ORIENTED_EDGE('',*,*,#704,.F.);
#926=ORIENTED_EDGE('',*,*,#682,.T.);
#927=ORIENTED_EDGE('',*,*,#691,.T.);
#928=ORIENTED_EDGE('',*,*,#676,.T.);
#929=ORIENTED_EDGE('',*,*,#709,.F.);
#930=ORIENTED_EDGE('',*,*,#710,.T.);
#931=ORIENTED_EDGE('',*,*,#711,.T.);
#932=ORIENTED_EDGE('',*,*,#712,.F.);
#933=ORIENTED_EDGE('',*,*,#713,.F.);
#934=ORIENTED_EDGE('',*,*,#705,.T.);
#935=ORIENTED_EDGE('',*,*,#708,.T.);
#936=ORIENTED_EDGE('',*,*,#700,.T.);
#937=ORIENTED_EDGE('',*,*,#714,.F.);
#938=ORIENTED_EDGE('',*,*,#715,.T.);
#939=ORIENTED_EDGE('',*,*,#716,.T.);
#940=ORIENTED_EDGE('',*,*,#717,.F.);
#941=ORIENTED_EDGE('',*,*,#718,.F.);
#942=ORIENTED_EDGE('',*,*,#719,.T.);
#943=ORIENTED_EDGE('',*,*,#720,.T.);
#944=ORIENTED_EDGE('',*,*,#721,.T.);
#945=ORIENTED_EDGE('',*,*,#722,.T.);
#946=ORIENTED_EDGE('',*,*,#719,.F.);
#947=ORIENTED_EDGE('',*,*,#723,.T.);
#948=ORIENTED_EDGE('',*,*,#724,.F.);
#949=ORIENTED_EDGE('',*,*,#725,.T.);
#950=ORIENTED_EDGE('',*,*,#726,.F.);
#951=ORIENTED_EDGE('',*,*,#727,.T.);
#952=ORIENTED_EDGE('',*,*,#728,.T.);
#953=ORIENTED_EDGE('',*,*,#729,.T.);
#954=ORIENTED_EDGE('',*,*,#730,.T.);
#955=ORIENTED_EDGE('',*,*,#731,.T.);
#956=ORIENTED_EDGE('',*,*,#732,.T.);
#957=ORIENTED_EDGE('',*,*,#733,.T.);
#958=ORIENTED_EDGE('',*,*,#734,.T.);
#959=ORIENTED_EDGE('',*,*,#735,.T.);
#960=ORIENTED_EDGE('',*,*,#722,.F.);
#961=ORIENTED_EDGE('',*,*,#736,.T.);
#962=ORIENTED_EDGE('',*,*,#737,.F.);
#963=ORIENTED_EDGE('',*,*,#738,.T.);
#964=ORIENTED_EDGE('',*,*,#739,.F.);
#965=ORIENTED_EDGE('',*,*,#723,.F.);
#966=ORIENTED_EDGE('',*,*,#740,.T.);
#967=ORIENTED_EDGE('',*,*,#737,.T.);
#968=ORIENTED_EDGE('',*,*,#741,.T.);
#969=ORIENTED_EDGE('',*,*,#742,.T.);
#970=ORIENTED_EDGE('',*,*,#740,.F.);
#971=ORIENTED_EDGE('',*,*,#743,.F.);
#972=ORIENTED_EDGE('',*,*,#744,.F.);
#973=ORIENTED_EDGE('',*,*,#745,.F.);
#974=ORIENTED_EDGE('',*,*,#746,.F.);
#975=ORIENTED_EDGE('',*,*,#738,.F.);
#976=ORIENTED_EDGE('',*,*,#747,.T.);
#977=ORIENTED_EDGE('',*,*,#748,.T.);
#978=ORIENTED_EDGE('',*,*,#749,.F.);
#979=ORIENTED_EDGE('',*,*,#750,.T.);
#980=ORIENTED_EDGE('',*,*,#751,.T.);
#981=ORIENTED_EDGE('',*,*,#744,.T.);
#982=ORIENTED_EDGE('',*,*,#752,.T.);
#983=ORIENTED_EDGE('',*,*,#753,.T.);
#984=ORIENTED_EDGE('',*,*,#754,.T.);
#985=ORIENTED_EDGE('',*,*,#754,.F.);
#986=ORIENTED_EDGE('',*,*,#755,.F.);
#987=ORIENTED_EDGE('',*,*,#756,.F.);
#988=ORIENTED_EDGE('',*,*,#725,.F.);
#989=ORIENTED_EDGE('',*,*,#757,.F.);
#990=ORIENTED_EDGE('',*,*,#745,.T.);
#991=ORIENTED_EDGE('',*,*,#721,.F.);
#992=ORIENTED_EDGE('',*,*,#758,.F.);
#993=ORIENTED_EDGE('',*,*,#759,.F.);
#994=ORIENTED_EDGE('',*,*,#755,.T.);
#995=ORIENTED_EDGE('',*,*,#753,.F.);
#996=ORIENTED_EDGE('',*,*,#760,.T.);
#997=ORIENTED_EDGE('',*,*,#741,.F.);
#998=ORIENTED_EDGE('',*,*,#736,.F.);
#999=ORIENTED_EDGE('',*,*,#679,.T.);
#1000=ORIENTED_EDGE('',*,*,#713,.T.);
#1001=ORIENTED_EDGE('',*,*,#761,.T.);
#1002=ORIENTED_EDGE('',*,*,#714,.T.);
#1003=ORIENTED_EDGE('',*,*,#699,.T.);
#1004=ORIENTED_EDGE('',*,*,#696,.T.);
#1005=ORIENTED_EDGE('',*,*,#692,.T.);
#1006=ORIENTED_EDGE('',*,*,#706,.T.);
#1007=ORIENTED_EDGE('',*,*,#702,.T.);
#1008=ORIENTED_EDGE('',*,*,#718,.T.);
#1009=ORIENTED_EDGE('',*,*,#762,.T.);
#1010=ORIENTED_EDGE('',*,*,#763,.T.);
#1011=ORIENTED_EDGE('',*,*,#764,.F.);
#1012=ORIENTED_EDGE('',*,*,#765,.F.);
#1013=ORIENTED_EDGE('',*,*,#766,.T.);
#1014=ORIENTED_EDGE('',*,*,#767,.T.);
#1015=ORIENTED_EDGE('',*,*,#768,.T.);
#1016=ORIENTED_EDGE('',*,*,#769,.T.);
#1017=ORIENTED_EDGE('',*,*,#770,.T.);
#1018=ORIENTED_EDGE('',*,*,#771,.F.);
#1019=ORIENTED_EDGE('',*,*,#772,.F.);
#1020=ORIENTED_EDGE('',*,*,#773,.T.);
#1021=ORIENTED_EDGE('',*,*,#774,.T.);
#1022=ORIENTED_EDGE('',*,*,#775,.T.);
#1023=ORIENTED_EDGE('',*,*,#776,.T.);
#1024=ORIENTED_EDGE('',*,*,#777,.T.);
#1025=ORIENTED_EDGE('',*,*,#778,.F.);
#1026=ORIENTED_EDGE('',*,*,#779,.F.);
#1027=ORIENTED_EDGE('',*,*,#780,.T.);
#1028=ORIENTED_EDGE('',*,*,#781,.T.);
#1029=ORIENTED_EDGE('',*,*,#782,.T.);
#1030=ORIENTED_EDGE('',*,*,#783,.T.);
#1031=ORIENTED_EDGE('',*,*,#784,.T.);
#1032=ORIENTED_EDGE('',*,*,#785,.F.);
#1033=ORIENTED_EDGE('',*,*,#786,.F.);
#1034=ORIENTED_EDGE('',*,*,#787,.T.);
#1035=ORIENTED_EDGE('',*,*,#788,.T.);
#1036=ORIENTED_EDGE('',*,*,#709,.T.);
#1037=ORIENTED_EDGE('',*,*,#675,.T.);
#1038=ORIENTED_EDGE('',*,*,#689,.T.);
#1039=ORIENTED_EDGE('',*,*,#686,.T.);
#1040=ORIENTED_EDGE('',*,*,#683,.T.);
#1041=ORIENTED_EDGE('',*,*,#726,.T.);
#1042=ORIENTED_EDGE('',*,*,#756,.T.);
#1043=ORIENTED_EDGE('',*,*,#759,.T.);
#1044=ORIENTED_EDGE('',*,*,#789,.T.);
#1045=ORIENTED_EDGE('',*,*,#739,.T.);
#1046=ORIENTED_EDGE('',*,*,#746,.T.);
#1047=ORIENTED_EDGE('',*,*,#757,.T.);
#1048=ORIENTED_EDGE('',*,*,#724,.T.);
#1049=ORIENTED_EDGE('',*,*,#790,.T.);
#1050=ORIENTED_EDGE('',*,*,#791,.T.);
#1051=ORIENTED_EDGE('',*,*,#792,.T.);
#1052=ORIENTED_EDGE('',*,*,#793,.T.);
#1053=ORIENTED_EDGE('',*,*,#794,.T.);
#1054=ORIENTED_EDGE('',*,*,#795,.T.);
#1055=ORIENTED_EDGE('',*,*,#796,.T.);
#1056=ORIENTED_EDGE('',*,*,#797,.T.);
#1057=ORIENTED_EDGE('',*,*,#794,.F.);
#1058=ORIENTED_EDGE('',*,*,#798,.T.);
#1059=ORIENTED_EDGE('',*,*,#792,.F.);
#1060=ORIENTED_EDGE('',*,*,#799,.T.);
#1061=ORIENTED_EDGE('',*,*,#800,.T.);
#1062=ORIENTED_EDGE('',*,*,#801,.T.);
#1063=ORIENTED_EDGE('',*,*,#802,.T.);
#1064=ORIENTED_EDGE('',*,*,#799,.F.);
#1065=ORIENTED_EDGE('',*,*,#803,.T.);
#1066=ORIENTED_EDGE('',*,*,#796,.F.);
#1067=ORIENTED_EDGE('',*,*,#804,.T.);
#1068=ORIENTED_EDGE('',*,*,#805,.T.);
#1069=ORIENTED_EDGE('',*,*,#806,.T.);
#1070=ORIENTED_EDGE('',*,*,#807,.T.);
#1071=ORIENTED_EDGE('',*,*,#804,.F.);
#1072=ORIENTED_EDGE('',*,*,#808,.T.);
#1073=ORIENTED_EDGE('',*,*,#801,.F.);
#1074=ORIENTED_EDGE('',*,*,#790,.F.);
#1075=ORIENTED_EDGE('',*,*,#809,.T.);
#1076=ORIENTED_EDGE('',*,*,#806,.F.);
#1077=ORIENTED_EDGE('',*,*,#803,.F.);
#1078=ORIENTED_EDGE('',*,*,#810,.F.);
#1079=ORIENTED_EDGE('',*,*,#732,.F.);
#1080=ORIENTED_EDGE('',*,*,#811,.T.);
#1081=ORIENTED_EDGE('',*,*,#802,.F.);
#1082=ORIENTED_EDGE('',*,*,#812,.F.);
#1083=ORIENTED_EDGE('',*,*,#733,.F.);
#1084=ORIENTED_EDGE('',*,*,#810,.T.);
#1085=ORIENTED_EDGE('',*,*,#808,.F.);
#1086=ORIENTED_EDGE('',*,*,#813,.F.);
#1087=ORIENTED_EDGE('',*,*,#734,.F.);
#1088=ORIENTED_EDGE('',*,*,#812,.T.);
#1089=ORIENTED_EDGE('',*,*,#807,.F.);
#1090=ORIENTED_EDGE('',*,*,#814,.F.);
#1091=ORIENTED_EDGE('',*,*,#735,.F.);
#1092=ORIENTED_EDGE('',*,*,#813,.T.);
#1093=ORIENTED_EDGE('',*,*,#791,.F.);
#1094=ORIENTED_EDGE('',*,*,#805,.F.);
#1095=ORIENTED_EDGE('',*,*,#800,.F.);
#1096=ORIENTED_EDGE('',*,*,#795,.F.);
#1097=ORIENTED_EDGE('',*,*,#815,.F.);
#1098=ORIENTED_EDGE('',*,*,#762,.F.);
#1099=ORIENTED_EDGE('',*,*,#717,.T.);
#1100=ORIENTED_EDGE('',*,*,#816,.T.);
#1101=ORIENTED_EDGE('',*,*,#761,.F.);
#1102=ORIENTED_EDGE('',*,*,#712,.T.);
#1103=ORIENTED_EDGE('',*,*,#817,.T.);
#1104=ORIENTED_EDGE('',*,*,#715,.F.);
#1105=ORIENTED_EDGE('',*,*,#818,.T.);
#1106=ORIENTED_EDGE('',*,*,#819,.T.);
#1107=ORIENTED_EDGE('',*,*,#710,.F.);
#1108=ORIENTED_EDGE('',*,*,#788,.F.);
#1109=ORIENTED_EDGE('',*,*,#787,.F.);
#1110=ORIENTED_EDGE('',*,*,#820,.F.);
#1111=ORIENTED_EDGE('',*,*,#821,.T.);
#1112=ORIENTED_EDGE('',*,*,#818,.F.);
#1113=ORIENTED_EDGE('',*,*,#763,.F.);
#1114=ORIENTED_EDGE('',*,*,#815,.T.);
#1115=ORIENTED_EDGE('',*,*,#822,.T.);
#1116=ORIENTED_EDGE('',*,*,#823,.F.);
#1117=ORIENTED_EDGE('',*,*,#821,.F.);
#1118=ORIENTED_EDGE('',*,*,#824,.F.);
#1119=ORIENTED_EDGE('',*,*,#822,.F.);
#1120=ORIENTED_EDGE('',*,*,#816,.F.);
#1121=ORIENTED_EDGE('',*,*,#716,.F.);
#1122=ORIENTED_EDGE('',*,*,#817,.F.);
#1123=ORIENTED_EDGE('',*,*,#711,.F.);
#1124=ORIENTED_EDGE('',*,*,#819,.F.);
#1125=ORIENTED_EDGE('',*,*,#823,.T.);
#1126=ORIENTED_EDGE('',*,*,#824,.T.);
#1127=ORIENTED_EDGE('',*,*,#820,.T.);
#1128=ORIENTED_EDGE('',*,*,#786,.T.);
#1129=ORIENTED_EDGE('',*,*,#825,.T.);
#1130=ORIENTED_EDGE('',*,*,#826,.T.);
#1131=ORIENTED_EDGE('',*,*,#827,.F.);
#1132=ORIENTED_EDGE('',*,*,#764,.T.);
#1133=ORIENTED_EDGE('',*,*,#809,.F.);
#1134=ORIENTED_EDGE('',*,*,#828,.F.);
#1135=ORIENTED_EDGE('',*,*,#728,.F.);
#1136=ORIENTED_EDGE('',*,*,#814,.T.);
#1137=ORIENTED_EDGE('',*,*,#797,.F.);
#1138=ORIENTED_EDGE('',*,*,#811,.F.);
#1139=ORIENTED_EDGE('',*,*,#731,.F.);
#1140=ORIENTED_EDGE('',*,*,#829,.T.);
#1141=ORIENTED_EDGE('',*,*,#798,.F.);
#1142=ORIENTED_EDGE('',*,*,#829,.F.);
#1143=ORIENTED_EDGE('',*,*,#730,.F.);
#1144=ORIENTED_EDGE('',*,*,#830,.T.);
#1145=ORIENTED_EDGE('',*,*,#793,.F.);
#1146=ORIENTED_EDGE('',*,*,#830,.F.);
#1147=ORIENTED_EDGE('',*,*,#729,.F.);
#1148=ORIENTED_EDGE('',*,*,#828,.T.);
#1149=ORIENTED_EDGE('',*,*,#720,.F.);
#1150=ORIENTED_EDGE('',*,*,#727,.F.);
#1151=ORIENTED_EDGE('',*,*,#789,.F.);
#1152=ORIENTED_EDGE('',*,*,#758,.T.);
#1153=ORIENTED_EDGE('',*,*,#775,.F.);
#1154=ORIENTED_EDGE('',*,*,#831,.T.);
#1155=ORIENTED_EDGE('',*,*,#832,.T.);
#1156=ORIENTED_EDGE('',*,*,#833,.F.);
#1157=ORIENTED_EDGE('',*,*,#774,.F.);
#1158=ORIENTED_EDGE('',*,*,#834,.T.);
#1159=ORIENTED_EDGE('',*,*,#835,.T.);
#1160=ORIENTED_EDGE('',*,*,#831,.F.);
#1161=ORIENTED_EDGE('',*,*,#773,.F.);
#1162=ORIENTED_EDGE('',*,*,#836,.F.);
#1163=ORIENTED_EDGE('',*,*,#837,.T.);
#1164=ORIENTED_EDGE('',*,*,#834,.F.);
#1165=ORIENTED_EDGE('',*,*,#777,.F.);
#1166=ORIENTED_EDGE('',*,*,#838,.T.);
#1167=ORIENTED_EDGE('',*,*,#839,.T.);
#1168=ORIENTED_EDGE('',*,*,#840,.F.);
#1169=ORIENTED_EDGE('',*,*,#776,.F.);
#1170=ORIENTED_EDGE('',*,*,#833,.T.);
#1171=ORIENTED_EDGE('',*,*,#841,.T.);
#1172=ORIENTED_EDGE('',*,*,#838,.F.);
#1173=ORIENTED_EDGE('',*,*,#841,.F.);
#1174=ORIENTED_EDGE('',*,*,#832,.F.);
#1175=ORIENTED_EDGE('',*,*,#835,.F.);
#1176=ORIENTED_EDGE('',*,*,#837,.F.);
#1177=ORIENTED_EDGE('',*,*,#842,.F.);
#1178=ORIENTED_EDGE('',*,*,#839,.F.);
#1179=ORIENTED_EDGE('',*,*,#840,.T.);
#1180=ORIENTED_EDGE('',*,*,#842,.T.);
#1181=ORIENTED_EDGE('',*,*,#836,.T.);
#1182=ORIENTED_EDGE('',*,*,#772,.T.);
#1183=ORIENTED_EDGE('',*,*,#843,.T.);
#1184=ORIENTED_EDGE('',*,*,#844,.T.);
#1185=ORIENTED_EDGE('',*,*,#845,.F.);
#1186=ORIENTED_EDGE('',*,*,#778,.T.);
#1187=ORIENTED_EDGE('',*,*,#769,.F.);
#1188=ORIENTED_EDGE('',*,*,#846,.T.);
#1189=ORIENTED_EDGE('',*,*,#847,.T.);
#1190=ORIENTED_EDGE('',*,*,#848,.F.);
#1191=ORIENTED_EDGE('',*,*,#768,.F.);
#1192=ORIENTED_EDGE('',*,*,#849,.T.);
#1193=ORIENTED_EDGE('',*,*,#850,.T.);
#1194=ORIENTED_EDGE('',*,*,#846,.F.);
#1195=ORIENTED_EDGE('',*,*,#767,.F.);
#1196=ORIENTED_EDGE('',*,*,#851,.T.);
#1197=ORIENTED_EDGE('',*,*,#852,.T.);
#1198=ORIENTED_EDGE('',*,*,#849,.F.);
#1199=ORIENTED_EDGE('',*,*,#766,.F.);
#1200=ORIENTED_EDGE('',*,*,#853,.F.);
#1201=ORIENTED_EDGE('',*,*,#854,.T.);
#1202=ORIENTED_EDGE('',*,*,#851,.F.);
#1203=ORIENTED_EDGE('',*,*,#770,.F.);
#1204=ORIENTED_EDGE('',*,*,#848,.T.);
#1205=ORIENTED_EDGE('',*,*,#855,.T.);
#1206=ORIENTED_EDGE('',*,*,#856,.F.);
#1207=ORIENTED_EDGE('',*,*,#855,.F.);
#1208=ORIENTED_EDGE('',*,*,#847,.F.);
#1209=ORIENTED_EDGE('',*,*,#850,.F.);
#1210=ORIENTED_EDGE('',*,*,#852,.F.);
#1211=ORIENTED_EDGE('',*,*,#854,.F.);
#1212=ORIENTED_EDGE('',*,*,#857,.F.);
#1213=ORIENTED_EDGE('',*,*,#782,.F.);
#1214=ORIENTED_EDGE('',*,*,#858,.T.);
#1215=ORIENTED_EDGE('',*,*,#859,.T.);
#1216=ORIENTED_EDGE('',*,*,#860,.F.);
#1217=ORIENTED_EDGE('',*,*,#781,.F.);
#1218=ORIENTED_EDGE('',*,*,#861,.T.);
#1219=ORIENTED_EDGE('',*,*,#862,.T.);
#1220=ORIENTED_EDGE('',*,*,#858,.F.);
#1221=ORIENTED_EDGE('',*,*,#780,.F.);
#1222=ORIENTED_EDGE('',*,*,#863,.F.);
#1223=ORIENTED_EDGE('',*,*,#864,.T.);
#1224=ORIENTED_EDGE('',*,*,#861,.F.);
#1225=ORIENTED_EDGE('',*,*,#784,.F.);
#1226=ORIENTED_EDGE('',*,*,#865,.T.);
#1227=ORIENTED_EDGE('',*,*,#866,.T.);
#1228=ORIENTED_EDGE('',*,*,#867,.F.);
#1229=ORIENTED_EDGE('',*,*,#783,.F.);
#1230=ORIENTED_EDGE('',*,*,#860,.T.);
#1231=ORIENTED_EDGE('',*,*,#868,.T.);
#1232=ORIENTED_EDGE('',*,*,#865,.F.);
#1233=ORIENTED_EDGE('',*,*,#868,.F.);
#1234=ORIENTED_EDGE('',*,*,#859,.F.);
#1235=ORIENTED_EDGE('',*,*,#862,.F.);
#1236=ORIENTED_EDGE('',*,*,#864,.F.);
#1237=ORIENTED_EDGE('',*,*,#869,.F.);
#1238=ORIENTED_EDGE('',*,*,#866,.F.);
#1239=ORIENTED_EDGE('',*,*,#856,.T.);
#1240=ORIENTED_EDGE('',*,*,#857,.T.);
#1241=ORIENTED_EDGE('',*,*,#853,.T.);
#1242=ORIENTED_EDGE('',*,*,#765,.T.);
#1243=ORIENTED_EDGE('',*,*,#827,.T.);
#1244=ORIENTED_EDGE('',*,*,#870,.T.);
#1245=ORIENTED_EDGE('',*,*,#747,.F.);
#1246=ORIENTED_EDGE('',*,*,#871,.F.);
#1247=ORIENTED_EDGE('',*,*,#843,.F.);
#1248=ORIENTED_EDGE('',*,*,#771,.T.);
#1249=ORIENTED_EDGE('',*,*,#867,.T.);
#1250=ORIENTED_EDGE('',*,*,#869,.T.);
#1251=ORIENTED_EDGE('',*,*,#863,.T.);
#1252=ORIENTED_EDGE('',*,*,#779,.T.);
#1253=ORIENTED_EDGE('',*,*,#845,.T.);
#1254=ORIENTED_EDGE('',*,*,#872,.F.);
#1255=ORIENTED_EDGE('',*,*,#750,.F.);
#1256=ORIENTED_EDGE('',*,*,#749,.T.);
#1257=ORIENTED_EDGE('',*,*,#873,.T.);
#1258=ORIENTED_EDGE('',*,*,#825,.F.);
#1259=ORIENTED_EDGE('',*,*,#785,.T.);
#1260=ORIENTED_EDGE('',*,*,#870,.F.);
#1261=ORIENTED_EDGE('',*,*,#826,.F.);
#1262=ORIENTED_EDGE('',*,*,#873,.F.);
#1263=ORIENTED_EDGE('',*,*,#748,.F.);
#1264=ORIENTED_EDGE('',*,*,#751,.F.);
#1265=ORIENTED_EDGE('',*,*,#872,.T.);
#1266=ORIENTED_EDGE('',*,*,#844,.F.);
#1267=ORIENTED_EDGE('',*,*,#871,.T.);
#1268=ORIENTED_EDGE('',*,*,#742,.F.);
#1269=ORIENTED_EDGE('',*,*,#760,.F.);
#1270=ORIENTED_EDGE('',*,*,#752,.F.);
#1271=ORIENTED_EDGE('',*,*,#743,.T.);
#1272=PLANE('',#1393);
#1273=PLANE('',#1394);
#1274=PLANE('',#1398);
#1275=PLANE('',#1402);
#1276=PLANE('',#1403);
#1277=PLANE('',#1407);
#1278=PLANE('',#1408);
#1279=PLANE('',#1412);
#1280=PLANE('',#1413);
#1281=PLANE('',#1414);
#1282=PLANE('',#1418);
#1283=PLANE('',#1424);
#1284=PLANE('',#1429);
#1285=PLANE('',#1433);
#1286=PLANE('',#1435);
#1287=PLANE('',#1466);
#1288=PLANE('',#1468);
#1289=PLANE('',#1469);
#1290=PLANE('',#1470);
#1291=PLANE('',#1471);
#1292=PLANE('',#1472);
#1293=PLANE('',#1473);
#1294=PLANE('',#1474);
#1295=PLANE('',#1475);
#1296=PLANE('',#1476);
#1297=PLANE('',#1478);
#1298=PLANE('',#1480);
#1299=PLANE('',#1481);
#1300=PLANE('',#1482);
#1301=PLANE('',#1485);
#1302=PLANE('',#1486);
#1303=PLANE('',#1489);
#1304=PLANE('',#1490);
#1305=PLANE('',#1493);
#1306=PLANE('',#1496);
#1307=PLANE('',#1497);
#1308=PLANE('',#1498);
#1309=PLANE('',#1499);
#1310=PLANE('',#1502);
#1311=PLANE('',#1503);
#1312=PLANE('',#1506);
#1313=PLANE('',#1507);
#1314=PLANE('',#1508);
#1315=PLANE('',#1509);
#1316=PLANE('',#1510);
#1317=PLANE('',#1511);
#1318=ADVANCED_FACE('',(#91),#1272,.F.);
#1319=ADVANCED_FACE('',(#92),#1273,.F.);
#1320=ADVANCED_FACE('',(#93),#68,.F.);
#1321=ADVANCED_FACE('',(#94),#1274,.F.);
#1322=ADVANCED_FACE('',(#95),#69,.F.);
#1323=ADVANCED_FACE('',(#96),#1275,.T.);
#1324=ADVANCED_FACE('',(#97),#1276,.F.);
#1325=ADVANCED_FACE('',(#98),#70,.F.);
#1326=ADVANCED_FACE('',(#99),#1277,.F.);
#1327=ADVANCED_FACE('',(#100),#1278,.F.);
#1328=ADVANCED_FACE('',(#101),#71,.F.);
#1329=ADVANCED_FACE('',(#102),#1279,.T.);
#1330=ADVANCED_FACE('',(#103),#1280,.F.);
#1331=ADVANCED_FACE('',(#104),#1281,.F.);
#1332=ADVANCED_FACE('',(#105),#72,.T.);
#1333=ADVANCED_FACE('',(#106,#21),#1282,.T.);
#1334=ADVANCED_FACE('',(#107),#1283,.T.);
#1335=ADVANCED_FACE('',(#108),#73,.T.);
#1336=ADVANCED_FACE('',(#109,#22),#1284,.F.);
#1337=ADVANCED_FACE('',(#110),#74,.T.);
#1338=ADVANCED_FACE('',(#111),#1285,.T.);
#1339=ADVANCED_FACE('',(#112,#23),#1286,.F.);
#1340=ADVANCED_FACE('',(#113),#75,.T.);
#1341=ADVANCED_FACE('',(#114),#76,.T.);
#1342=ADVANCED_FACE('',(#115),#77,.F.);
#1343=ADVANCED_FACE('',(#116),#78,.F.);
#1344=ADVANCED_FACE('',(#117),#15,.F.);
#1345=ADVANCED_FACE('',(#118),#79,.F.);
#1346=ADVANCED_FACE('',(#119),#16,.F.);
#1347=ADVANCED_FACE('',(#120),#80,.F.);
#1348=ADVANCED_FACE('',(#121),#17,.F.);
#1349=ADVANCED_FACE('',(#122),#18,.F.);
#1350=ADVANCED_FACE('',(#123),#81,.F.);
#1351=ADVANCED_FACE('',(#124),#1287,.F.);
#1352=ADVANCED_FACE('',(#125),#82,.F.);
#1353=ADVANCED_FACE('',(#126),#1288,.F.);
#1354=ADVANCED_FACE('',(#127),#1289,.T.);
#1355=ADVANCED_FACE('',(#128),#1290,.F.);
#1356=ADVANCED_FACE('',(#129),#1291,.F.);
#1357=ADVANCED_FACE('',(#130),#1292,.F.);
#1358=ADVANCED_FACE('',(#131),#1293,.F.);
#1359=ADVANCED_FACE('',(#132),#1294,.F.);
#1360=ADVANCED_FACE('',(#133),#1295,.F.);
#1361=ADVANCED_FACE('',(#134),#1296,.T.);
#1362=ADVANCED_FACE('',(#135),#83,.F.);
#1363=ADVANCED_FACE('',(#136),#1297,.F.);
#1364=ADVANCED_FACE('',(#137),#84,.F.);
#1365=ADVANCED_FACE('',(#138),#1298,.F.);
#1366=ADVANCED_FACE('',(#139),#1299,.T.);
#1367=ADVANCED_FACE('',(#140),#1300,.F.);
#1368=ADVANCED_FACE('',(#141),#85,.F.);
#1369=ADVANCED_FACE('',(#142),#1301,.F.);
#1370=ADVANCED_FACE('',(#143),#1302,.F.);
#1371=ADVANCED_FACE('',(#144),#86,.F.);
#1372=ADVANCED_FACE('',(#145),#1303,.T.);
#1373=ADVANCED_FACE('',(#146),#1304,.T.);
#1374=ADVANCED_FACE('',(#147),#87,.F.);
#1375=ADVANCED_FACE('',(#148),#1305,.F.);
#1376=ADVANCED_FACE('',(#149),#88,.F.);
#1377=ADVANCED_FACE('',(#150),#1306,.F.);
#1378=ADVANCED_FACE('',(#151),#1307,.F.);
#1379=ADVANCED_FACE('',(#152),#1308,.T.);
#1380=ADVANCED_FACE('',(#153),#1309,.F.);
#1381=ADVANCED_FACE('',(#154),#89,.F.);
#1382=ADVANCED_FACE('',(#155),#1310,.F.);
#1383=ADVANCED_FACE('',(#156),#1311,.F.);
#1384=ADVANCED_FACE('',(#157),#90,.F.);
#1385=ADVANCED_FACE('',(#158),#1312,.T.);
#1386=ADVANCED_FACE('',(#159),#1313,.T.);
#1387=ADVANCED_FACE('',(#160),#1314,.T.);
#1388=ADVANCED_FACE('',(#161),#1315,.T.);
#1389=ADVANCED_FACE('',(#162),#1316,.F.);
#1390=ADVANCED_FACE('',(#163),#1317,.T.);
#1391=CLOSED_SHELL('',(#1318,#1319,#1320,#1321,#1322,#1323,#1324,#1325,
#1326,#1327,#1328,#1329,#1330,#1331,#1332,#1333,#1334,#1335,#1336,#1337,
#1338,#1339,#1340,#1341,#1342,#1343,#1344,#1345,#1346,#1347,#1348,#1349,
#1350,#1351,#1352,#1353,#1354,#1355,#1356,#1357,#1358,#1359,#1360,#1361,
#1362,#1363,#1364,#1365,#1366,#1367,#1368,#1369,#1370,#1371,#1372,#1373,
#1374,#1375,#1376,#1377,#1378,#1379,#1380,#1381,#1382,#1383,#1384,#1385,
#1386,#1387,#1388,#1389,#1390));
#1392=AXIS2_PLACEMENT_3D('',#1905,#1512,#1513);
#1393=AXIS2_PLACEMENT_3D('',#1906,#1514,#1515);
#1394=AXIS2_PLACEMENT_3D('',#1915,#1520,#1521);
#1395=AXIS2_PLACEMENT_3D('',#1924,#1526,#1527);
#1396=AXIS2_PLACEMENT_3D('',#1926,#1528,#1529);
#1397=AXIS2_PLACEMENT_3D('',#1929,#1531,#1532);
#1398=AXIS2_PLACEMENT_3D('',#1930,#1533,#1534);
#1399=AXIS2_PLACEMENT_3D('',#1936,#1538,#1539);
#1400=AXIS2_PLACEMENT_3D('',#1937,#1540,#1541);
#1401=AXIS2_PLACEMENT_3D('',#1938,#1542,#1543);
#1402=AXIS2_PLACEMENT_3D('',#1939,#1544,#1545);
#1403=AXIS2_PLACEMENT_3D('',#1941,#1547,#1548);
#1404=AXIS2_PLACEMENT_3D('',#1950,#1553,#1554);
#1405=AXIS2_PLACEMENT_3D('',#1952,#1555,#1556);
#1406=AXIS2_PLACEMENT_3D('',#1955,#1558,#1559);
#1407=AXIS2_PLACEMENT_3D('',#1956,#1560,#1561);
#1408=AXIS2_PLACEMENT_3D('',#1962,#1565,#1566);
#1409=AXIS2_PLACEMENT_3D('',#1971,#1571,#1572);
#1410=AXIS2_PLACEMENT_3D('',#1972,#1573,#1574);
#1411=AXIS2_PLACEMENT_3D('',#1973,#1575,#1576);
#1412=AXIS2_PLACEMENT_3D('',#1974,#1577,#1578);
#1413=AXIS2_PLACEMENT_3D('',#1976,#1580,#1581);
#1414=AXIS2_PLACEMENT_3D('',#1986,#1587,#1588);
#1415=AXIS2_PLACEMENT_3D('',#1996,#1594,#1595);
#1416=AXIS2_PLACEMENT_3D('',#1999,#1596,#1597);
#1417=AXIS2_PLACEMENT_3D('',#2003,#1599,#1600);
#1418=AXIS2_PLACEMENT_3D('',#2005,#1602,#1603);
#1419=AXIS2_PLACEMENT_3D('',#2013,#1607,#1608);
#1420=AXIS2_PLACEMENT_3D('',#2017,#1610,#1611);
#1421=AXIS2_PLACEMENT_3D('',#2021,#1613,#1614);
#1422=AXIS2_PLACEMENT_3D('',#2025,#1616,#1617);
#1423=AXIS2_PLACEMENT_3D('',#2029,#1619,#1620);
#1424=AXIS2_PLACEMENT_3D('',#2031,#1622,#1623);
#1425=AXIS2_PLACEMENT_3D('',#2038,#1627,#1628);
#1426=AXIS2_PLACEMENT_3D('',#2039,#1629,#1630);
#1427=AXIS2_PLACEMENT_3D('',#2041,#1631,#1632);
#1428=AXIS2_PLACEMENT_3D('',#2043,#1633,#1634);
#1429=AXIS2_PLACEMENT_3D('',#2045,#1636,#1637);
#1430=AXIS2_PLACEMENT_3D('',#2049,#1639,#1640);
#1431=AXIS2_PLACEMENT_3D('',#2063,#1648,#1649);
#1432=AXIS2_PLACEMENT_3D('',#2067,#1651,#1652);
#1433=AXIS2_PLACEMENT_3D('',#2069,#1654,#1655);
#1434=AXIS2_PLACEMENT_3D('',#2073,#1658,#1659);
#1435=AXIS2_PLACEMENT_3D('',#2074,#1660,#1661);
#1436=AXIS2_PLACEMENT_3D('',#2077,#1663,#1664);
#1437=AXIS2_PLACEMENT_3D('',#2091,#1672,#1673);
#1438=AXIS2_PLACEMENT_3D('',#2095,#1675,#1676);
#1439=AXIS2_PLACEMENT_3D('',#2105,#1681,#1682);
#1440=AXIS2_PLACEMENT_3D('',#2109,#1684,#1685);
#1441=AXIS2_PLACEMENT_3D('',#2119,#1690,#1691);
#1442=AXIS2_PLACEMENT_3D('',#2123,#1693,#1694);
#1443=AXIS2_PLACEMENT_3D('',#2133,#1700,#1701);
#1444=AXIS2_PLACEMENT_3D('',#2135,#1703,#1704);
#1445=AXIS2_PLACEMENT_3D('',#2136,#1705,#1706);
#1446=AXIS2_PLACEMENT_3D('',#2139,#1707,#1708);
#1447=AXIS2_PLACEMENT_3D('',#2143,#1710,#1711);
#1448=AXIS2_PLACEMENT_3D('',#2145,#1713,#1714);
#1449=AXIS2_PLACEMENT_3D('',#2147,#1715,#1716);
#1450=AXIS2_PLACEMENT_3D('',#2151,#1718,#1719);
#1451=AXIS2_PLACEMENT_3D('',#2153,#1721,#1722);
#1452=AXIS2_PLACEMENT_3D('',#2154,#1723,#1724);
#1453=AXIS2_PLACEMENT_3D('',#2155,#1725,#1726);
#1454=AXIS2_PLACEMENT_3D('',#2157,#1727,#1728);
#1455=AXIS2_PLACEMENT_3D('',#2161,#1730,#1731);
#1456=AXIS2_PLACEMENT_3D('',#2163,#1733,#1734);
#1457=AXIS2_PLACEMENT_3D('',#2164,#1735,#1736);
#1458=AXIS2_PLACEMENT_3D('',#2165,#1737,#1738);
#1459=AXIS2_PLACEMENT_3D('',#2167,#1739,#1740);
#1460=AXIS2_PLACEMENT_3D('',#2170,#1742,#1743);
#1461=AXIS2_PLACEMENT_3D('',#2172,#1745,#1746);
#1462=AXIS2_PLACEMENT_3D('',#2173,#1747,#1748);
#1463=AXIS2_PLACEMENT_3D('',#2174,#1749,#1750);
#1464=AXIS2_PLACEMENT_3D('',#2175,#1751,#1752);
#1465=AXIS2_PLACEMENT_3D('',#2176,#1753,#1754);
#1466=AXIS2_PLACEMENT_3D('',#2179,#1757,#1758);
#1467=AXIS2_PLACEMENT_3D('',#2181,#1760,#1761);
#1468=AXIS2_PLACEMENT_3D('',#2183,#1763,#1764);
#1469=AXIS2_PLACEMENT_3D('',#2185,#1766,#1767);
#1470=AXIS2_PLACEMENT_3D('',#2186,#1768,#1769);
#1471=AXIS2_PLACEMENT_3D('',#2190,#1772,#1773);
#1472=AXIS2_PLACEMENT_3D('',#2192,#1775,#1776);
#1473=AXIS2_PLACEMENT_3D('',#2196,#1779,#1780);
#1474=AXIS2_PLACEMENT_3D('',#2200,#1783,#1784);
#1475=AXIS2_PLACEMENT_3D('',#2204,#1787,#1788);
#1476=AXIS2_PLACEMENT_3D('',#2206,#1790,#1791);
#1477=AXIS2_PLACEMENT_3D('',#2212,#1795,#1796);
#1478=AXIS2_PLACEMENT_3D('',#2214,#1798,#1799);
#1479=AXIS2_PLACEMENT_3D('',#2216,#1801,#1802);
#1480=AXIS2_PLACEMENT_3D('',#2218,#1804,#1805);
#1481=AXIS2_PLACEMENT_3D('',#2219,#1806,#1807);
#1482=AXIS2_PLACEMENT_3D('',#2220,#1808,#1809);
#1483=AXIS2_PLACEMENT_3D('',#2226,#1813,#1814);
#1484=AXIS2_PLACEMENT_3D('',#2229,#1816,#1817);
#1485=AXIS2_PLACEMENT_3D('',#2230,#1818,#1819);
#1486=AXIS2_PLACEMENT_3D('',#2234,#1822,#1823);
#1487=AXIS2_PLACEMENT_3D('',#2240,#1827,#1828);
#1488=AXIS2_PLACEMENT_3D('',#2241,#1829,#1830);
#1489=AXIS2_PLACEMENT_3D('',#2242,#1831,#1832);
#1490=AXIS2_PLACEMENT_3D('',#2244,#1834,#1835);
#1491=AXIS2_PLACEMENT_3D('',#2250,#1839,#1840);
#1492=AXIS2_PLACEMENT_3D('',#2254,#1842,#1843);
#1493=AXIS2_PLACEMENT_3D('',#2256,#1845,#1846);
#1494=AXIS2_PLACEMENT_3D('',#2260,#1849,#1850);
#1495=AXIS2_PLACEMENT_3D('',#2263,#1852,#1853);
#1496=AXIS2_PLACEMENT_3D('',#2264,#1854,#1855);
#1497=AXIS2_PLACEMENT_3D('',#2268,#1858,#1859);
#1498=AXIS2_PLACEMENT_3D('',#2272,#1862,#1863);
#1499=AXIS2_PLACEMENT_3D('',#2274,#1865,#1866);
#1500=AXIS2_PLACEMENT_3D('',#2280,#1870,#1871);
#1501=AXIS2_PLACEMENT_3D('',#2283,#1873,#1874);
#1502=AXIS2_PLACEMENT_3D('',#2284,#1875,#1876);
#1503=AXIS2_PLACEMENT_3D('',#2288,#1879,#1880);
#1504=AXIS2_PLACEMENT_3D('',#2294,#1884,#1885);
#1505=AXIS2_PLACEMENT_3D('',#2295,#1886,#1887);
#1506=AXIS2_PLACEMENT_3D('',#2296,#1888,#1889);
#1507=AXIS2_PLACEMENT_3D('',#2298,#1891,#1892);
#1508=AXIS2_PLACEMENT_3D('',#2301,#1895,#1896);
#1509=AXIS2_PLACEMENT_3D('',#2304,#1899,#1900);
#1510=AXIS2_PLACEMENT_3D('',#2305,#1901,#1902);
#1511=AXIS2_PLACEMENT_3D('',#2306,#1903,#1904);
#1512=DIRECTION('axis',(0.,0.,1.));
#1513=DIRECTION('refdir',(1.,0.,0.));
#1514=DIRECTION('center_axis',(0.,-1.,0.));
#1515=DIRECTION('ref_axis',(1.,0.,0.));
#1516=DIRECTION('',(1.,0.,0.));
#1517=DIRECTION('',(0.,0.,-1.));
#1518=DIRECTION('',(1.,0.,0.));
#1519=DIRECTION('',(0.,0.,1.));
#1520=DIRECTION('center_axis',(0.,1.,0.));
#1521=DIRECTION('ref_axis',(-1.,0.,0.));
#1522=DIRECTION('',(-1.,0.,0.));
#1523=DIRECTION('',(0.,0.,1.));
#1524=DIRECTION('',(-1.,0.,0.));
#1525=DIRECTION('',(0.,0.,1.));
#1526=DIRECTION('center_axis',(0.,0.,1.));
#1527=DIRECTION('ref_axis',(1.,0.,0.));
#1528=DIRECTION('center_axis',(0.,0.,1.));
#1529=DIRECTION('ref_axis',(1.,0.,0.));
#1530=DIRECTION('',(0.,0.,1.));
#1531=DIRECTION('center_axis',(0.,0.,1.));
#1532=DIRECTION('ref_axis',(1.,0.,0.));
#1533=DIRECTION('center_axis',(1.,0.,0.));
#1534=DIRECTION('ref_axis',(0.,1.,0.));
#1535=DIRECTION('',(0.,1.,0.));
#1536=DIRECTION('',(0.,0.,1.));
#1537=DIRECTION('',(0.,1.,0.));
#1538=DIRECTION('center_axis',(0.,0.,1.));
#1539=DIRECTION('ref_axis',(1.,0.,0.));
#1540=DIRECTION('center_axis',(0.,0.,1.));
#1541=DIRECTION('ref_axis',(1.,0.,0.));
#1542=DIRECTION('center_axis',(0.,0.,1.));
#1543=DIRECTION('ref_axis',(1.,0.,0.));
#1544=DIRECTION('center_axis',(0.,0.,-1.));
#1545=DIRECTION('ref_axis',(1.,0.,0.));
#1546=DIRECTION('',(0.,-1.,0.));
#1547=DIRECTION('center_axis',(-1.,0.,0.));
#1548=DIRECTION('ref_axis',(0.,-1.,0.));
#1549=DIRECTION('',(0.,-1.,0.));
#1550=DIRECTION('',(0.,0.,1.));
#1551=DIRECTION('',(0.,-1.,0.));
#1552=DIRECTION('',(0.,0.,1.));
#1553=DIRECTION('center_axis',(0.,0.,1.));
#1554=DIRECTION('ref_axis',(1.,0.,0.));
#1555=DIRECTION('center_axis',(0.,0.,1.));
#1556=DIRECTION('ref_axis',(1.,0.,0.));
#1557=DIRECTION('',(0.,0.,1.));
#1558=DIRECTION('center_axis',(0.,0.,1.));
#1559=DIRECTION('ref_axis',(1.,0.,0.));
#1560=DIRECTION('center_axis',(0.,1.,0.));
#1561=DIRECTION('ref_axis',(-1.,0.,0.));
#1562=DIRECTION('',(-1.,0.,0.));
#1563=DIRECTION('',(0.,0.,-1.));
#1564=DIRECTION('',(-1.,0.,0.));
#1565=DIRECTION('center_axis',(0.,-1.,0.));
#1566=DIRECTION('ref_axis',(1.,0.,0.));
#1567=DIRECTION('',(1.,0.,0.));
#1568=DIRECTION('',(0.,0.,1.));
#1569=DIRECTION('',(1.,0.,0.));
#1570=DIRECTION('',(0.,0.,1.));
#1571=DIRECTION('center_axis',(0.,0.,1.));
#1572=DIRECTION('ref_axis',(1.,0.,0.));
#1573=DIRECTION('center_axis',(0.,0.,1.));
#1574=DIRECTION('ref_axis',(1.,0.,0.));
#1575=DIRECTION('center_axis',(0.,0.,1.));
#1576=DIRECTION('ref_axis',(1.,0.,0.));
#1577=DIRECTION('center_axis',(0.,0.,-1.));
#1578=DIRECTION('ref_axis',(1.,0.,0.));
#1579=DIRECTION('',(0.,1.,0.));
#1580=DIRECTION('center_axis',(1.,0.,0.));
#1581=DIRECTION('ref_axis',(0.,1.,0.));
#1582=DIRECTION('',(0.,1.,0.));
#1583=DIRECTION('',(0.,0.,1.));
#1584=DIRECTION('',(0.,1.,0.));
#1585=DIRECTION('',(0.,0.,1.));
#1586=DIRECTION('',(0.,1.,0.));
#1587=DIRECTION('center_axis',(-1.,0.,0.));
#1588=DIRECTION('ref_axis',(0.,-1.,0.));
#1589=DIRECTION('',(0.,-1.,0.));
#1590=DIRECTION('',(0.,0.,1.));
#1591=DIRECTION('',(0.,-1.,0.));
#1592=DIRECTION('',(0.,0.,1.));
#1593=DIRECTION('',(0.,-1.,0.));
#1594=DIRECTION('center_axis',(0.,0.,1.));
#1595=DIRECTION('ref_axis',(-0.707106781186547,0.707106781186548,0.));
#1596=DIRECTION('center_axis',(0.,0.,-1.));
#1597=DIRECTION('ref_axis',(-0.707106781186547,0.707106781186548,0.));
#1598=DIRECTION('',(0.,0.,-1.));
#1599=DIRECTION('center_axis',(0.,0.,1.));
#1600=DIRECTION('ref_axis',(-0.707106781186547,0.707106781186548,0.));
#1601=DIRECTION('',(0.,0.,1.));
#1602=DIRECTION('center_axis',(0.,0.,1.));
#1603=DIRECTION('ref_axis',(1.,0.,0.));
#1604=DIRECTION('',(0.,1.,0.));
#1605=DIRECTION('',(-1.,0.,0.));
#1606=DIRECTION('',(0.,-1.,0.));
#1607=DIRECTION('center_axis',(0.,0.,-1.));
#1608=DIRECTION('ref_axis',(0.707106781186548,0.707106781186548,0.));
#1609=DIRECTION('',(1.,0.,0.));
#1610=DIRECTION('center_axis',(0.,0.,-1.));
#1611=DIRECTION('ref_axis',(-1.,0.,0.));
#1612=DIRECTION('',(-1.,0.,0.));
#1613=DIRECTION('center_axis',(0.,0.,-1.));
#1614=DIRECTION('ref_axis',(-1.,0.,0.));
#1615=DIRECTION('',(0.,1.,0.));
#1616=DIRECTION('center_axis',(0.,0.,-1.));
#1617=DIRECTION('ref_axis',(-1.,0.,0.));
#1618=DIRECTION('',(1.,0.,0.));
#1619=DIRECTION('center_axis',(0.,0.,-1.));
#1620=DIRECTION('ref_axis',(-1.,0.,0.));
#1621=DIRECTION('',(0.,-1.,0.));
#1622=DIRECTION('center_axis',(-1.,0.,0.));
#1623=DIRECTION('ref_axis',(0.,-1.,0.));
#1624=DIRECTION('',(0.,1.,0.));
#1625=DIRECTION('',(0.,0.,-1.));
#1626=DIRECTION('',(0.,-0.939692620785908,-0.342020143325669));
#1627=DIRECTION('center_axis',(1.,0.,0.));
#1628=DIRECTION('ref_axis',(0.,-0.17364817766693,0.984807753012208));
#1629=DIRECTION('center_axis',(0.,0.,1.));
#1630=DIRECTION('ref_axis',(-0.707106781186548,-0.707106781186547,0.));
#1631=DIRECTION('center_axis',(0.,0.342020143325669,-0.939692620785908));
#1632=DIRECTION('ref_axis',(-6.52042739791795E-17,-0.939692620785908,-0.342020143325669));
#1633=DIRECTION('center_axis',(0.,0.,1.));
#1634=DIRECTION('ref_axis',(-0.707106781186548,-0.707106781186547,0.));
#1635=DIRECTION('',(0.,0.,1.));
#1636=DIRECTION('center_axis',(0.,0.342020143325669,-0.939692620785908));
#1637=DIRECTION('ref_axis',(0.,0.939692620785908,0.342020143325669));
#1638=DIRECTION('',(1.,0.,0.));
#1639=DIRECTION('center_axis',(0.,0.342020143325669,-0.939692620785908));
#1640=DIRECTION('ref_axis',(0.,-0.939692620785908,-0.342020143325669));
#1641=DIRECTION('',(0.,0.939692620785908,0.342020143325669));
#1642=DIRECTION('',(1.,0.,0.));
#1643=DIRECTION('',(0.,0.939692620785908,0.342020143325669));
#1644=DIRECTION('',(1.,0.,0.));
#1645=DIRECTION('',(0.,0.939692620785908,0.342020143325669));
#1646=DIRECTION('',(0.,-0.939692620785908,-0.342020143325669));
#1647=DIRECTION('',(-1.,0.,0.));
#1648=DIRECTION('center_axis',(0.,0.,1.));
#1649=DIRECTION('ref_axis',(0.707106781186548,-0.707106781186548,0.));
#1650=DIRECTION('',(0.,0.,-1.));
#1651=DIRECTION('center_axis',(0.,0.,1.));
#1652=DIRECTION('ref_axis',(0.707106781186548,-0.707106781186548,0.));
#1653=DIRECTION('',(0.,0.,1.));
#1654=DIRECTION('center_axis',(1.,0.,0.));
#1655=DIRECTION('ref_axis',(0.,1.,0.));
#1656=DIRECTION('',(0.,-1.,0.));
#1657=DIRECTION('',(0.,0.,-1.));
#1658=DIRECTION('center_axis',(-1.,0.,0.));
#1659=DIRECTION('ref_axis',(0.,-0.17364817766693,0.984807753012208));
#1660=DIRECTION('center_axis',(0.,0.,1.));
#1661=DIRECTION('ref_axis',(1.,0.,0.));
#1662=DIRECTION('',(1.,0.,0.));
#1663=DIRECTION('center_axis',(0.,0.,1.));
#1664=DIRECTION('ref_axis',(0.707106781186548,0.707106781186548,0.));
#1665=DIRECTION('',(-1.,0.,0.));
#1666=DIRECTION('',(-1.,0.,0.));
#1667=DIRECTION('',(1.,0.,0.));
#1668=DIRECTION('',(0.,-1.,0.));
#1669=DIRECTION('',(1.,0.,0.));
#1670=DIRECTION('',(0.,1.,0.));
#1671=DIRECTION('',(-1.,-5.55111512312578E-16,0.));
#1672=DIRECTION('center_axis',(0.,0.,1.));
#1673=DIRECTION('ref_axis',(4.44089209850061E-16,-1.,0.));
#1674=DIRECTION('',(2.22044604925031E-16,-1.,0.));
#1675=DIRECTION('center_axis',(0.,0.,1.));
#1676=DIRECTION('ref_axis',(4.44089209850063E-16,-1.,0.));
#1677=DIRECTION('',(1.,1.11022302462515E-15,0.));
#1678=DIRECTION('',(0.,1.,0.));
#1679=DIRECTION('',(-1.,0.,0.));
#1680=DIRECTION('',(0.,-1.,0.));
#1681=DIRECTION('center_axis',(0.,0.,1.));
#1682=DIRECTION('ref_axis',(1.,0.,0.));
#1683=DIRECTION('',(1.,0.,0.));
#1684=DIRECTION('center_axis',(0.,0.,1.));
#1685=DIRECTION('ref_axis',(1.,0.,0.));
#1686=DIRECTION('',(0.,1.,0.));
#1687=DIRECTION('',(-1.,0.,0.));
#1688=DIRECTION('',(0.,-1.,0.));
#1689=DIRECTION('',(1.,1.11022302462516E-15,0.));
#1690=DIRECTION('center_axis',(0.,0.,1.));
#1691=DIRECTION('ref_axis',(-1.,0.,0.));
#1692=DIRECTION('',(0.,1.,0.));
#1693=DIRECTION('center_axis',(0.,0.,1.));
#1694=DIRECTION('ref_axis',(-1.,0.,0.));
#1695=DIRECTION('',(-1.,-1.11022302462516E-15,0.));
#1696=DIRECTION('',(0.,-1.,0.));
#1697=DIRECTION('',(1.,0.,0.));
#1698=DIRECTION('',(0.,1.,0.));
#1699=DIRECTION('',(1.,0.,0.));
#1700=DIRECTION('center_axis',(0.,0.,1.));
#1701=DIRECTION('ref_axis',(0.707106781186548,0.707106781186548,0.));
#1702=DIRECTION('',(0.,0.,1.));
#1703=DIRECTION('center_axis',(-1.,0.,0.));
#1704=DIRECTION('ref_axis',(0.,-0.17364817766693,0.984807753012208));
#1705=DIRECTION('center_axis',(-1.,0.,0.));
#1706=DIRECTION('ref_axis',(0.,-0.707106781186547,-0.707106781186547));
#1707=DIRECTION('center_axis',(1.,0.,0.));
#1708=DIRECTION('ref_axis',(0.,-1.,0.));
#1709=DIRECTION('',(-1.,0.,0.));
#1710=DIRECTION('center_axis',(-1.,0.,0.));
#1711=DIRECTION('ref_axis',(0.,0.,-1.));
#1712=DIRECTION('',(1.,0.,0.));
#1713=DIRECTION('center_axis',(0.,1.,0.));
#1714=DIRECTION('ref_axis',(-0.707106781186547,0.,-0.707106781186547));
#1715=DIRECTION('center_axis',(0.,-1.,0.));
#1716=DIRECTION('ref_axis',(-1.,0.,0.));
#1717=DIRECTION('',(0.,1.,0.));
#1718=DIRECTION('center_axis',(0.,1.,0.));
#1719=DIRECTION('ref_axis',(0.,0.,-1.));
#1720=DIRECTION('',(0.,-1.,0.));
#1721=DIRECTION('center_axis',(0.408248290463863,-0.816496580927726,0.408248290463863));
#1722=DIRECTION('ref_axis',(-0.577350269189626,-0.577350269189626,-0.577350269189626));
#1723=DIRECTION('center_axis',(0.,0.,1.));
#1724=DIRECTION('ref_axis',(-1.,0.,0.));
#1725=DIRECTION('center_axis',(1.,0.,0.));
#1726=DIRECTION('ref_axis',(0.,0.707106781186547,-0.707106781186547));
#1727=DIRECTION('center_axis',(-1.,0.,0.));
#1728=DIRECTION('ref_axis',(0.,1.,0.));
#1729=DIRECTION('',(1.,0.,0.));
#1730=DIRECTION('center_axis',(1.,0.,0.));
#1731=DIRECTION('ref_axis',(0.,0.,-1.));
#1732=DIRECTION('',(-1.,0.,0.));
#1733=DIRECTION('center_axis',(-0.408248290463864,-0.816496580927726,-0.408248290463864));
#1734=DIRECTION('ref_axis',(-0.577350269189626,0.577350269189626,-0.577350269189626));
#1735=DIRECTION('center_axis',(0.,0.,1.));
#1736=DIRECTION('ref_axis',(-1.,0.,0.));
#1737=DIRECTION('center_axis',(0.,-1.,0.));
#1738=DIRECTION('ref_axis',(0.707106781186547,0.,-0.707106781186547));
#1739=DIRECTION('center_axis',(0.,1.,0.));
#1740=DIRECTION('ref_axis',(1.,0.,0.));
#1741=DIRECTION('',(0.,-1.,0.));
#1742=DIRECTION('center_axis',(0.,-1.,0.));
#1743=DIRECTION('ref_axis',(0.,0.,-1.));
#1744=DIRECTION('',(0.,1.,0.));
#1745=DIRECTION('center_axis',(0.408248290463863,-0.816496580927726,-0.408248290463864));
#1746=DIRECTION('ref_axis',(0.577350269189626,0.577350269189626,-0.577350269189626));
#1747=DIRECTION('center_axis',(0.,0.,1.));
#1748=DIRECTION('ref_axis',(-1.,0.,0.));
#1749=DIRECTION('center_axis',(-0.408248290463862,-0.816496580927726,0.408248290463863));
#1750=DIRECTION('ref_axis',(0.577350269189626,-0.577350269189626,-0.577350269189626));
#1751=DIRECTION('center_axis',(0.,0.,1.));
#1752=DIRECTION('ref_axis',(-1.,0.,0.));
#1753=DIRECTION('center_axis',(0.,0.,-1.));
#1754=DIRECTION('ref_axis',(-1.,0.,0.));
#1755=DIRECTION('',(0.,0.,-1.));
#1756=DIRECTION('',(0.,0.,-1.));
#1757=DIRECTION('center_axis',(0.,1.,0.));
#1758=DIRECTION('ref_axis',(1.,0.,0.));
#1759=DIRECTION('',(0.,0.,-1.));
#1760=DIRECTION('center_axis',(0.,0.,-1.));
#1761=DIRECTION('ref_axis',(-1.,0.,0.));
#1762=DIRECTION('',(0.,0.,-1.));
#1763=DIRECTION('center_axis',(1.,0.,0.));
#1764=DIRECTION('ref_axis',(0.,-1.,0.));
#1765=DIRECTION('',(0.,0.,-1.));
#1766=DIRECTION('center_axis',(0.,0.,1.));
#1767=DIRECTION('ref_axis',(-1.,0.,0.));
#1768=DIRECTION('center_axis',(0.,-1.,0.));
#1769=DIRECTION('ref_axis',(1.,0.,0.));
#1770=DIRECTION('',(0.,0.,1.));
#1771=DIRECTION('',(1.,0.,0.));
#1772=DIRECTION('center_axis',(0.,1.,0.));
#1773=DIRECTION('ref_axis',(-1.,0.,0.));
#1774=DIRECTION('',(-1.,0.,0.));
#1775=DIRECTION('center_axis',(0.,-1.,0.));
#1776=DIRECTION('ref_axis',(1.,0.,0.));
#1777=DIRECTION('',(0.,0.,1.));
#1778=DIRECTION('',(1.,0.,0.));
#1779=DIRECTION('center_axis',(1.,0.,0.));
#1780=DIRECTION('ref_axis',(0.,1.,0.));
#1781=DIRECTION('',(0.,0.,-1.));
#1782=DIRECTION('',(0.,1.,0.));
#1783=DIRECTION('center_axis',(-1.,0.,0.));
#1784=DIRECTION('ref_axis',(0.,-1.,0.));
#1785=DIRECTION('',(0.,-1.,0.));
#1786=DIRECTION('',(0.,0.,1.));
#1787=DIRECTION('center_axis',(0.,0.,1.));
#1788=DIRECTION('ref_axis',(1.,0.,0.));
#1789=DIRECTION('',(1.,0.,0.));
#1790=DIRECTION('center_axis',(0.,-1.,0.));
#1791=DIRECTION('ref_axis',(1.,0.,0.));
#1792=DIRECTION('',(0.,0.,1.));
#1793=DIRECTION('',(-1.,0.,0.));
#1794=DIRECTION('',(0.,0.,1.));
#1795=DIRECTION('center_axis',(0.,0.,-1.));
#1796=DIRECTION('ref_axis',(-1.,0.,0.));
#1797=DIRECTION('',(0.,0.,-1.));
#1798=DIRECTION('center_axis',(-1.,0.,0.));
#1799=DIRECTION('ref_axis',(0.,1.,0.));
#1800=DIRECTION('',(0.,0.,-1.));
#1801=DIRECTION('center_axis',(0.,0.,-1.));
#1802=DIRECTION('ref_axis',(-1.,0.,0.));
#1803=DIRECTION('',(0.,0.,-1.));
#1804=DIRECTION('center_axis',(0.,-1.,0.));
#1805=DIRECTION('ref_axis',(-1.,0.,0.));
#1806=DIRECTION('center_axis',(0.,1.,0.));
#1807=DIRECTION('ref_axis',(-1.,0.,0.));
#1808=DIRECTION('center_axis',(0.,-1.,0.));
#1809=DIRECTION('ref_axis',(1.,0.,0.));
#1810=DIRECTION('',(0.,0.,1.));
#1811=DIRECTION('',(1.,0.,0.));
#1812=DIRECTION('',(0.,0.,1.));
#1813=DIRECTION('center_axis',(0.,0.,1.));
#1814=DIRECTION('ref_axis',(1.,0.,0.));
#1815=DIRECTION('',(0.,0.,1.));
#1816=DIRECTION('center_axis',(0.,0.,1.));
#1817=DIRECTION('ref_axis',(1.,0.,0.));
#1818=DIRECTION('center_axis',(-1.,0.,0.));
#1819=DIRECTION('ref_axis',(0.,-1.,0.));
#1820=DIRECTION('',(0.,0.,-1.));
#1821=DIRECTION('',(0.,-1.,0.));
#1822=DIRECTION('center_axis',(1.,0.,0.));
#1823=DIRECTION('ref_axis',(0.,1.,0.));
#1824=DIRECTION('',(0.,0.,1.));
#1825=DIRECTION('',(0.,1.,0.));
#1826=DIRECTION('',(0.,0.,1.));
#1827=DIRECTION('center_axis',(0.,0.,1.));
#1828=DIRECTION('ref_axis',(1.,0.,0.));
#1829=DIRECTION('center_axis',(0.,0.,1.));
#1830=DIRECTION('ref_axis',(1.,0.,0.));
#1831=DIRECTION('center_axis',(0.,0.,-1.));
#1832=DIRECTION('ref_axis',(1.,0.,0.));
#1833=DIRECTION('',(-1.,0.,0.));
#1834=DIRECTION('center_axis',(0.,1.,0.));
#1835=DIRECTION('ref_axis',(-1.,0.,0.));
#1836=DIRECTION('',(0.,0.,1.));
#1837=DIRECTION('',(1.,0.,0.));
#1838=DIRECTION('',(0.,0.,1.));
#1839=DIRECTION('center_axis',(0.,0.,1.));
#1840=DIRECTION('ref_axis',(4.44089209850063E-16,-1.,0.));
#1841=DIRECTION('',(0.,0.,1.));
#1842=DIRECTION('center_axis',(0.,0.,1.));
#1843=DIRECTION('ref_axis',(4.44089209850063E-16,-1.,0.));
#1844=DIRECTION('',(0.,0.,1.));
#1845=DIRECTION('center_axis',(-1.,-2.22044604925031E-16,0.));
#1846=DIRECTION('ref_axis',(2.22044604925031E-16,-1.,0.));
#1847=DIRECTION('',(0.,0.,1.));
#1848=DIRECTION('',(2.22044604925031E-16,-1.,0.));
#1849=DIRECTION('center_axis',(0.,0.,1.));
#1850=DIRECTION('ref_axis',(4.44089209850061E-16,-1.,0.));
#1851=DIRECTION('',(0.,0.,1.));
#1852=DIRECTION('center_axis',(0.,0.,1.));
#1853=DIRECTION('ref_axis',(4.44089209850061E-16,-1.,0.));
#1854=DIRECTION('center_axis',(-5.55111512312578E-16,1.,0.));
#1855=DIRECTION('ref_axis',(-1.,-5.55111512312578E-16,0.));
#1856=DIRECTION('',(0.,0.,-1.));
#1857=DIRECTION('',(-1.,-5.55111512312578E-16,0.));
#1858=DIRECTION('center_axis',(1.11022302462515E-15,-1.,0.));
#1859=DIRECTION('ref_axis',(1.,1.11022302462515E-15,0.));
#1860=DIRECTION('',(1.,1.11022302462515E-15,0.));
#1861=DIRECTION('',(0.,0.,1.));
#1862=DIRECTION('center_axis',(0.,0.,-1.));
#1863=DIRECTION('ref_axis',(1.,0.,0.));
#1864=DIRECTION('',(0.,1.,0.));
#1865=DIRECTION('center_axis',(1.,0.,0.));
#1866=DIRECTION('ref_axis',(0.,1.,0.));
#1867=DIRECTION('',(0.,0.,1.));
#1868=DIRECTION('',(0.,1.,0.));
#1869=DIRECTION('',(0.,0.,1.));
#1870=DIRECTION('center_axis',(0.,0.,1.));
#1871=DIRECTION('ref_axis',(0.707159046634855,-0.70705451187478,0.));
#1872=DIRECTION('',(0.,0.,1.));
#1873=DIRECTION('center_axis',(0.,0.,1.));
#1874=DIRECTION('ref_axis',(-1.,0.,0.));
#1875=DIRECTION('center_axis',(1.11022302462516E-15,-1.,0.));
#1876=DIRECTION('ref_axis',(1.,1.11022302462516E-15,0.));
#1877=DIRECTION('',(0.,0.,-1.));
#1878=DIRECTION('',(1.,1.11022302462516E-15,0.));
#1879=DIRECTION('center_axis',(-1.11022302462516E-15,1.,0.));
#1880=DIRECTION('ref_axis',(-1.,-1.11022302462516E-15,0.));
#1881=DIRECTION('',(0.,0.,1.));
#1882=DIRECTION('',(-1.,-1.11022302462516E-15,0.));
#1883=DIRECTION('',(0.,0.,1.));
#1884=DIRECTION('center_axis',(0.,0.,1.));
#1885=DIRECTION('ref_axis',(-1.,0.,0.));
#1886=DIRECTION('center_axis',(0.,0.,1.));
#1887=DIRECTION('ref_axis',(-1.,0.,0.));
#1888=DIRECTION('center_axis',(0.,0.,-1.));
#1889=DIRECTION('ref_axis',(1.,0.,0.));
#1890=DIRECTION('',(0.,-1.,0.));
#1891=DIRECTION('center_axis',(1.,0.,0.));
#1892=DIRECTION('ref_axis',(0.,1.,0.));
#1893=DIRECTION('',(0.,-0.342020143325669,0.939692620785908));
#1894=DIRECTION('',(0.,-0.342020143325669,0.939692620785908));
#1895=DIRECTION('center_axis',(-1.,0.,0.));
#1896=DIRECTION('ref_axis',(0.,-1.,0.));
#1897=DIRECTION('',(0.,0.342020143325669,-0.939692620785908));
#1898=DIRECTION('',(0.,0.342020143325669,-0.939692620785908));
#1899=DIRECTION('center_axis',(0.,-0.939692620785908,-0.342020143325669));
#1900=DIRECTION('ref_axis',(0.,0.342020143325669,-0.939692620785908));
#1901=DIRECTION('center_axis',(0.,-0.939692620785908,-0.342020143325669));
#1902=DIRECTION('ref_axis',(0.,0.342020143325669,-0.939692620785908));
#1903=DIRECTION('center_axis',(0.,-1.,0.));
#1904=DIRECTION('ref_axis',(1.,0.,0.));
#1905=CARTESIAN_POINT('',(0.,0.,0.));
#1906=CARTESIAN_POINT('Origin',(150.000002235174,100.000001490116,0.));
#1907=CARTESIAN_POINT('',(150.000002235174,100.000001490116,0.));
#1908=CARTESIAN_POINT('',(162.500002421439,100.000001527369,0.));
#1909=CARTESIAN_POINT('',(125.000001117587,100.000001490116,0.));
#1910=CARTESIAN_POINT('',(150.000002235174,100.000001490116,3.));
#1911=CARTESIAN_POINT('',(150.,100.000001490116,0.));
#1912=CARTESIAN_POINT('',(162.500002421439,100.000001527369,3.));
#1913=CARTESIAN_POINT('',(165.000002458692,100.000001490116,3.));
#1914=CARTESIAN_POINT('',(162.500002421439,100.000001527369,0.));
#1915=CARTESIAN_POINT('Origin',(162.500002421439,125.000001862645,0.));
#1916=CARTESIAN_POINT('',(162.500002421439,125.000001825392,0.));
#1917=CARTESIAN_POINT('',(150.000002235174,125.000001862645,0.));
#1918=CARTESIAN_POINT('',(131.250001210719,125.000001862645,0.));
#1919=CARTESIAN_POINT('',(162.500002421439,125.000001825392,3.));
#1920=CARTESIAN_POINT('',(162.500002421439,125.000001825392,0.));
#1921=CARTESIAN_POINT('',(150.000002235174,125.000001862645,3.));
#1922=CARTESIAN_POINT('',(150.000002235174,125.000001862645,3.));
#1923=CARTESIAN_POINT('',(150.,125.000001862645,0.));
#1924=CARTESIAN_POINT('Origin',(162.500002421439,122.500001825392,0.));
#1925=CARTESIAN_POINT('',(165.000002421439,122.500001825392,0.));
#1926=CARTESIAN_POINT('Origin',(162.500002421439,122.500001825392,0.));
#1927=CARTESIAN_POINT('',(165.000002421439,122.500001825392,3.));
#1928=CARTESIAN_POINT('',(165.000002421439,122.500001825392,0.));
#1929=CARTESIAN_POINT('Origin',(162.500002421439,122.500001825392,3.));
#1930=CARTESIAN_POINT('Origin',(165.000002458692,102.500001527369,0.));
#1931=CARTESIAN_POINT('',(165.000002421439,102.500001527369,0.));
#1932=CARTESIAN_POINT('',(165.000002458692,17.5000007636845,0.));
#1933=CARTESIAN_POINT('',(165.000002421439,102.500001527369,3.));
#1934=CARTESIAN_POINT('',(165.000002421439,102.500001527369,0.));
#1935=CARTESIAN_POINT('',(165.000002458692,125.000001862645,3.));
#1936=CARTESIAN_POINT('Origin',(162.500002421439,102.500001527369,0.));
#1937=CARTESIAN_POINT('Origin',(162.500002421439,102.500001527369,0.));
#1938=CARTESIAN_POINT('Origin',(162.500002421439,102.500001527369,3.));
#1939=CARTESIAN_POINT('Origin',(157.500002346933,112.500001676381,3.));
#1940=CARTESIAN_POINT('',(150.,93.7500008381903,3.));
#1941=CARTESIAN_POINT('Origin',(35.0000005215406,122.500001825392,0.));
#1942=CARTESIAN_POINT('',(35.0000005587935,122.500001825392,0.));
#1943=CARTESIAN_POINT('',(35.0000005587936,102.500001527369,0.));
#1944=CARTESIAN_POINT('',(35.0000005215406,27.5000009126961,0.));
#1945=CARTESIAN_POINT('',(35.0000005587935,122.500001825392,3.));
#1946=CARTESIAN_POINT('',(35.0000005587935,122.500001825392,0.));
#1947=CARTESIAN_POINT('',(35.0000005587936,102.500001527369,3.));
#1948=CARTESIAN_POINT('',(35.0000005215406,125.000001862645,3.));
#1949=CARTESIAN_POINT('',(35.0000005587936,102.500001527369,0.));
#1950=CARTESIAN_POINT('Origin',(37.5000005587935,122.500001825392,0.));
#1951=CARTESIAN_POINT('',(37.5000005587935,125.000001825392,0.));
#1952=CARTESIAN_POINT('Origin',(37.5000005587935,122.500001825392,0.));
#1953=CARTESIAN_POINT('',(37.5000005587935,125.000001825392,3.));
#1954=CARTESIAN_POINT('',(37.5000005587935,125.000001825392,0.));
#1955=CARTESIAN_POINT('Origin',(37.5000005587935,122.500001825392,3.));
#1956=CARTESIAN_POINT('Origin',(50.0000007450581,125.000001862645,0.));
#1957=CARTESIAN_POINT('',(50.0000007450581,125.000001862645,0.));
#1958=CARTESIAN_POINT('',(75.000000372529,125.000001862645,0.));
#1959=CARTESIAN_POINT('',(50.0000007450581,125.000001862645,3.));
#1960=CARTESIAN_POINT('',(50.,125.000001862645,0.));
#1961=CARTESIAN_POINT('',(50.0000007450581,125.000001862645,3.));
#1962=CARTESIAN_POINT('Origin',(37.5000005587935,100.000001490116,0.));
#1963=CARTESIAN_POINT('',(37.5000005587935,100.000001527369,0.));
#1964=CARTESIAN_POINT('',(50.0000007450581,100.000001490116,0.));
#1965=CARTESIAN_POINT('',(68.7500002793968,100.000001490116,0.));
#1966=CARTESIAN_POINT('',(37.5000005587935,100.000001527369,3.));
#1967=CARTESIAN_POINT('',(37.5000005587935,100.000001527369,0.));
#1968=CARTESIAN_POINT('',(50.0000007450581,100.000001490116,3.));
#1969=CARTESIAN_POINT('',(35.0000005215406,100.000001490116,3.));
#1970=CARTESIAN_POINT('',(50.,100.000001490116,0.));
#1971=CARTESIAN_POINT('Origin',(37.5000005587935,102.500001527369,0.));
#1972=CARTESIAN_POINT('Origin',(37.5000005587935,102.500001527369,0.));
#1973=CARTESIAN_POINT('Origin',(37.5000005587935,102.500001527369,3.));
#1974=CARTESIAN_POINT('Origin',(42.5000006332994,112.500001676381,3.));
#1975=CARTESIAN_POINT('',(50.,131.25000083819,3.));
#1976=CARTESIAN_POINT('Origin',(150.,75.,0.));
#1977=CARTESIAN_POINT('',(150.,75.,0.));
#1978=CARTESIAN_POINT('',(150.,3.75,0.));
#1979=CARTESIAN_POINT('',(150.,75.,20.));
#1980=CARTESIAN_POINT('',(150.,75.,0.));
#1981=CARTESIAN_POINT('',(150.,150.,20.));
#1982=CARTESIAN_POINT('',(150.,150.,20.));
#1983=CARTESIAN_POINT('',(150.,150.,0.));
#1984=CARTESIAN_POINT('',(150.,150.,0.));
#1985=CARTESIAN_POINT('',(150.,3.75,0.));
#1986=CARTESIAN_POINT('Origin',(50.,150.,0.));
#1987=CARTESIAN_POINT('',(50.,150.,0.));
#1988=CARTESIAN_POINT('',(50.,41.25,0.));
#1989=CARTESIAN_POINT('',(50.,150.,20.));
#1990=CARTESIAN_POINT('',(50.,150.,0.));
#1991=CARTESIAN_POINT('',(50.,75.,20.));
#1992=CARTESIAN_POINT('',(50.,75.,20.));
#1993=CARTESIAN_POINT('',(50.,75.,0.));
#1994=CARTESIAN_POINT('',(50.,75.,0.));
#1995=CARTESIAN_POINT('',(50.,41.25,0.));
#1996=CARTESIAN_POINT('Origin',(6.,194.,0.));
#1997=CARTESIAN_POINT('',(-10.,194.,100.));
#1998=CARTESIAN_POINT('',(6.,210.,100.));
#1999=CARTESIAN_POINT('Origin',(6.,194.,100.));
#2000=CARTESIAN_POINT('',(6.,210.,0.));
#2001=CARTESIAN_POINT('',(6.,210.,0.));
#2002=CARTESIAN_POINT('',(-10.,194.,0.));
#2003=CARTESIAN_POINT('Origin',(6.,194.,0.));
#2004=CARTESIAN_POINT('',(-10.,194.,0.));
#2005=CARTESIAN_POINT('Origin',(100.,100.,100.));
#2006=CARTESIAN_POINT('',(-10.,1.41061584566771,100.));
#2007=CARTESIAN_POINT('',(-10.,50.,100.));
#2008=CARTESIAN_POINT('',(210.,1.41061584566771,100.));
#2009=CARTESIAN_POINT('',(50.,1.41061584566771,100.));
#2010=CARTESIAN_POINT('',(210.,194.,100.));
#2011=CARTESIAN_POINT('',(210.,-17.5,100.));
#2012=CARTESIAN_POINT('',(194.,210.,100.));
#2013=CARTESIAN_POINT('Origin',(194.,194.,100.));
#2014=CARTESIAN_POINT('',(150.,210.,100.));
#2015=CARTESIAN_POINT('',(185.,25.,100.));
#2016=CARTESIAN_POINT('',(175.,15.,100.));
#2017=CARTESIAN_POINT('Origin',(175.,25.,100.));
#2018=CARTESIAN_POINT('',(25.,15.,100.));
#2019=CARTESIAN_POINT('',(137.5,15.,100.));
#2020=CARTESIAN_POINT('',(15.,25.,100.));
#2021=CARTESIAN_POINT('Origin',(25.,25.,100.));
#2022=CARTESIAN_POINT('',(15.,175.,100.));
#2023=CARTESIAN_POINT('',(15.,62.5,100.));
#2024=CARTESIAN_POINT('',(25.,185.,100.));
#2025=CARTESIAN_POINT('Origin',(25.,175.,100.));
#2026=CARTESIAN_POINT('',(175.,185.,100.));
#2027=CARTESIAN_POINT('',(62.5,185.,100.));
#2028=CARTESIAN_POINT('',(185.,175.,100.));
#2029=CARTESIAN_POINT('Origin',(175.,175.,100.));
#2030=CARTESIAN_POINT('',(185.,137.5,100.));
#2031=CARTESIAN_POINT('Origin',(-10.,0.,0.));
#2032=CARTESIAN_POINT('',(-10.,-129.,0.));
#2033=CARTESIAN_POINT('',(-10.,-33.75,0.));
#2034=CARTESIAN_POINT('',(-10.,-129.,53.0478397796599));
#2035=CARTESIAN_POINT('',(-10.,-129.,0.));
#2036=CARTESIAN_POINT('',(-10.,-1.32554530093763,99.5175409662873));
#2037=CARTESIAN_POINT('',(-10.,-83.5754687488128,69.5810170605869));
#2038=CARTESIAN_POINT('Origin',(-10.,1.41061584566771,92.));
#2039=CARTESIAN_POINT('Origin',(6.,-129.,0.));
#2040=CARTESIAN_POINT('',(6.,-145.,47.2243160314006));
#2041=CARTESIAN_POINT('Origin',(6.,-129.,53.0478397796599));
#2042=CARTESIAN_POINT('',(6.,-145.,0.));
#2043=CARTESIAN_POINT('Origin',(6.,-129.,0.));
#2044=CARTESIAN_POINT('',(6.,-145.,0.));
#2045=CARTESIAN_POINT('Origin',(0.,-135.011557013299,50.8598119652249));
#2046=CARTESIAN_POINT('',(194.,-145.,47.2243160314006));
#2047=CARTESIAN_POINT('',(0.,-145.,47.2243160314006));
#2048=CARTESIAN_POINT('',(210.,-129.,53.0478397796599));
#2049=CARTESIAN_POINT('Origin',(194.,-129.,53.0478397796599));
#2050=CARTESIAN_POINT('',(210.,-1.32554530093762,99.5175409662873));
#2051=CARTESIAN_POINT('',(210.,-143.179468704078,47.8869352336662));
#2052=CARTESIAN_POINT('',(50.,-1.32554530093764,99.5175409662873));
#2053=CARTESIAN_POINT('',(12.0000001788139,-126.21578319635,54.0612118219321));
#2054=CARTESIAN_POINT('',(12.0000001788139,-11.0521386016818,95.9773505240034));
#2055=CARTESIAN_POINT('',(12.0000001788139,-130.52736968205,52.4919226786731));
#2056=CARTESIAN_POINT('',(189.000000178814,-11.0521386016818,95.9773505240034));
#2057=CARTESIAN_POINT('',(12.0000001788139,-11.0521386016818,95.9773505240034));
#2058=CARTESIAN_POINT('',(189.000002816319,-122.000001817942,55.5956307578466));
#2059=CARTESIAN_POINT('',(189.000002816319,-86.6660465703242,68.4561387268735));
#2060=CARTESIAN_POINT('',(189.000000178814,-126.21578319635,54.0612118219321));
#2061=CARTESIAN_POINT('',(189.000000178814,-130.52736968205,52.4919226786731));
#2062=CARTESIAN_POINT('',(6.00000008940697,-126.21578319635,54.0612118219321));
#2063=CARTESIAN_POINT('Origin',(194.,-129.,0.));
#2064=CARTESIAN_POINT('',(194.,-145.,0.));
#2065=CARTESIAN_POINT('',(194.,-145.,0.));
#2066=CARTESIAN_POINT('',(210.,-129.,0.));
#2067=CARTESIAN_POINT('Origin',(194.,-129.,0.));
#2068=CARTESIAN_POINT('',(210.,-129.,0.));
#2069=CARTESIAN_POINT('Origin',(210.,-135.,0.));
#2070=CARTESIAN_POINT('',(210.,194.,0.));
#2071=CARTESIAN_POINT('',(210.,-101.25,0.));
#2072=CARTESIAN_POINT('',(210.,194.,0.));
#2073=CARTESIAN_POINT('Origin',(210.,1.41061584566771,92.));
#2074=CARTESIAN_POINT('Origin',(100.,-67.5,0.));
#2075=CARTESIAN_POINT('',(194.,210.,0.));
#2076=CARTESIAN_POINT('',(150.,210.,0.));
#2077=CARTESIAN_POINT('Origin',(194.,194.,0.));
#2078=CARTESIAN_POINT('',(50.,-145.,0.));
#2079=CARTESIAN_POINT('',(125.,150.,0.));
#2080=CARTESIAN_POINT('',(70.,74.9999998956919,0.));
#2081=CARTESIAN_POINT('',(75.,75.,0.));
#2082=CARTESIAN_POINT('',(70.,-7.00000010430813,0.));
#2083=CARTESIAN_POINT('',(70.,3.74999994784594,0.));
#2084=CARTESIAN_POINT('',(12.0000001788139,-7.00000010430813,0.));
#2085=CARTESIAN_POINT('',(12.0000001788139,-7.00000010430813,0.));
#2086=CARTESIAN_POINT('',(12.,-22.0000018179417,0.));
#2087=CARTESIAN_POINT('',(12.0000001788139,-122.000001817942,0.));
#2088=CARTESIAN_POINT('',(6.4999999180436,-22.0000018179417,0.));
#2089=CARTESIAN_POINT('',(56.,-22.0000018179416,0.));
#2090=CARTESIAN_POINT('',(3.99999999999998,-24.4996336100706,0.));
#2091=CARTESIAN_POINT('Origin',(6.4999999180436,-24.5000031962991,0.));
#2092=CARTESIAN_POINT('',(3.9999999453624,-39.4996338336213,0.));
#2093=CARTESIAN_POINT('',(3.99999999999999,-45.9998168050353,0.));
#2094=CARTESIAN_POINT('',(6.49836596856855,-42.0000018179417,0.));
#2095=CARTESIAN_POINT('Origin',(6.4999999180436,-39.5000034198165,0.));
#2096=CARTESIAN_POINT('',(12.,-42.0000018179417,0.));
#2097=CARTESIAN_POINT('',(53.2491829842843,-42.0000018179416,0.));
#2098=CARTESIAN_POINT('',(12.0000001788139,-122.000001817942,0.));
#2099=CARTESIAN_POINT('',(12.0000001788139,-122.000001817942,0.));
#2100=CARTESIAN_POINT('',(90.,-122.000001817942,0.));
#2101=CARTESIAN_POINT('',(189.000002816319,-122.000001817942,0.));
#2102=CARTESIAN_POINT('',(90.0000013783574,-127.500001899898,0.));
#2103=CARTESIAN_POINT('',(90.,-94.7500009089708,0.));
#2104=CARTESIAN_POINT('',(92.4996317921371,-130.000001872579,0.));
#2105=CARTESIAN_POINT('Origin',(92.5000013783574,-127.500001899898,0.));
#2106=CARTESIAN_POINT('',(107.499632015654,-130.000001872579,0.));
#2107=CARTESIAN_POINT('',(96.2498158960685,-130.000001817942,0.));
#2108=CARTESIAN_POINT('',(110.000001067917,-127.498367950413,0.));
#2109=CARTESIAN_POINT('Origin',(107.500001601875,-127.500001899898,0.));
#2110=CARTESIAN_POINT('',(110.,-122.000001817942,0.));
#2111=CARTESIAN_POINT('',(110.,-97.4991839752067,0.));
#2112=CARTESIAN_POINT('',(189.000002816319,-122.000001817942,0.));
#2113=CARTESIAN_POINT('',(189.000002816319,-122.000001817942,0.));
#2114=CARTESIAN_POINT('',(188.999999836087,-42.0000045746565,0.));
#2115=CARTESIAN_POINT('',(189.000002816319,-7.00000010430813,0.));
#2116=CARTESIAN_POINT('',(194.499999918044,-42.0000045746565,0.));
#2117=CARTESIAN_POINT('',(144.499999918044,-42.0000045746565,0.));
#2118=CARTESIAN_POINT('',(196.999999836087,-39.4996336101196,0.));
#2119=CARTESIAN_POINT('Origin',(194.499999918044,-39.5000031962991,0.));
#2120=CARTESIAN_POINT('',(196.999999836087,-24.4996333866021,0.));
#2121=CARTESIAN_POINT('',(196.999999836087,-53.4998168050598,0.));
#2122=CARTESIAN_POINT('',(194.498365968563,-22.0000035067399,0.));
#2123=CARTESIAN_POINT('Origin',(194.499999918044,-24.5000029727817,0.));
#2124=CARTESIAN_POINT('',(188.999999836087,-22.0000045746565,0.));
#2125=CARTESIAN_POINT('',(147.249182984281,-22.0000045746565,0.));
#2126=CARTESIAN_POINT('',(189.000002816319,-7.00000010430813,0.));
#2127=CARTESIAN_POINT('',(189.000002816319,-7.00000010430813,0.));
#2128=CARTESIAN_POINT('',(130.,-7.00000010430813,0.));
#2129=CARTESIAN_POINT('',(12.0000001788139,-7.00000010430813,0.));
#2130=CARTESIAN_POINT('',(130.,74.9999998956919,0.));
#2131=CARTESIAN_POINT('',(130.,-37.2500000521541,0.));
#2132=CARTESIAN_POINT('',(75.,75.,0.));
#2133=CARTESIAN_POINT('Origin',(194.,194.,0.));
#2134=CARTESIAN_POINT('',(194.,210.,0.));
#2135=CARTESIAN_POINT('Origin',(50.,1.41061584566771,92.));
#2136=CARTESIAN_POINT('Origin',(137.5,25.,40.));
#2137=CARTESIAN_POINT('',(175.,15.,40.));
#2138=CARTESIAN_POINT('',(175.,25.,30.));
#2139=CARTESIAN_POINT('Origin',(175.,25.,40.));
#2140=CARTESIAN_POINT('',(25.,25.,30.));
#2141=CARTESIAN_POINT('',(137.5,25.,30.));
#2142=CARTESIAN_POINT('',(25.,15.,40.));
#2143=CARTESIAN_POINT('Origin',(25.,25.,40.));
#2144=CARTESIAN_POINT('',(137.5,15.,40.));
#2145=CARTESIAN_POINT('Origin',(25.,62.5,40.));
#2146=CARTESIAN_POINT('',(15.,25.,40.));
#2147=CARTESIAN_POINT('Origin',(25.,25.,40.));
#2148=CARTESIAN_POINT('',(25.,175.,30.));
#2149=CARTESIAN_POINT('',(25.,62.5,30.));
#2150=CARTESIAN_POINT('',(15.,175.,40.));
#2151=CARTESIAN_POINT('Origin',(25.,175.,40.));
#2152=CARTESIAN_POINT('',(15.,62.5,40.));
#2153=CARTESIAN_POINT('Origin',(25.,25.,40.));
#2154=CARTESIAN_POINT('Origin',(25.,25.,40.));
#2155=CARTESIAN_POINT('Origin',(62.5,175.,40.));
#2156=CARTESIAN_POINT('',(25.,185.,40.));
#2157=CARTESIAN_POINT('Origin',(25.,175.,40.));
#2158=CARTESIAN_POINT('',(175.,175.,30.));
#2159=CARTESIAN_POINT('',(62.5,175.,30.));
#2160=CARTESIAN_POINT('',(175.,185.,40.));
#2161=CARTESIAN_POINT('Origin',(175.,175.,40.));
#2162=CARTESIAN_POINT('',(62.5,185.,40.));
#2163=CARTESIAN_POINT('Origin',(25.,175.,40.));
#2164=CARTESIAN_POINT('Origin',(25.,175.,40.));
#2165=CARTESIAN_POINT('Origin',(175.,137.5,40.));
#2166=CARTESIAN_POINT('',(185.,175.,40.));
#2167=CARTESIAN_POINT('Origin',(175.,175.,40.));
#2168=CARTESIAN_POINT('',(175.,137.5,30.));
#2169=CARTESIAN_POINT('',(185.,25.,40.));
#2170=CARTESIAN_POINT('Origin',(175.,25.,40.));
#2171=CARTESIAN_POINT('',(185.,137.5,40.));
#2172=CARTESIAN_POINT('Origin',(175.,175.,40.));
#2173=CARTESIAN_POINT('Origin',(175.,175.,40.));
#2174=CARTESIAN_POINT('Origin',(175.,25.,40.));
#2175=CARTESIAN_POINT('Origin',(175.,25.,40.));
#2176=CARTESIAN_POINT('Origin',(25.,175.,100.));
#2177=CARTESIAN_POINT('',(25.,185.,100.));
#2178=CARTESIAN_POINT('',(15.,175.,100.));
#2179=CARTESIAN_POINT('Origin',(25.,185.,100.));
#2180=CARTESIAN_POINT('',(175.,185.,100.));
#2181=CARTESIAN_POINT('Origin',(175.,175.,100.));
#2182=CARTESIAN_POINT('',(185.,175.,100.));
#2183=CARTESIAN_POINT('Origin',(185.,175.,100.));
#2184=CARTESIAN_POINT('',(185.,25.,100.));
#2185=CARTESIAN_POINT('Origin',(100.,100.,30.));
#2186=CARTESIAN_POINT('Origin',(50.,75.,0.));
#2187=CARTESIAN_POINT('',(70.,74.9999998956919,20.));
#2188=CARTESIAN_POINT('',(70.,74.9999998956919,0.));
#2189=CARTESIAN_POINT('',(150.,75.,20.));
#2190=CARTESIAN_POINT('Origin',(150.,150.,0.));
#2191=CARTESIAN_POINT('',(50.,150.,20.));
#2192=CARTESIAN_POINT('Origin',(50.,75.,0.));
#2193=CARTESIAN_POINT('',(130.,74.9999998956919,20.));
#2194=CARTESIAN_POINT('',(130.,74.9999998956919,0.));
#2195=CARTESIAN_POINT('',(150.,75.,20.));
#2196=CARTESIAN_POINT('Origin',(130.,-7.00000010430813,0.));
#2197=CARTESIAN_POINT('',(130.,-7.00000010430813,20.));
#2198=CARTESIAN_POINT('',(130.,-7.00000010430813,0.));
#2199=CARTESIAN_POINT('',(130.,-7.00000010430813,20.));
#2200=CARTESIAN_POINT('Origin',(70.,74.9999998956919,0.));
#2201=CARTESIAN_POINT('',(70.,-7.00000010430813,20.));
#2202=CARTESIAN_POINT('',(70.,74.9999998956919,20.));
#2203=CARTESIAN_POINT('',(70.,-7.00000010430813,0.));
#2204=CARTESIAN_POINT('Origin',(100.,33.9999998956919,20.));
#2205=CARTESIAN_POINT('',(56.000000089407,-7.00000010430813,20.));
#2206=CARTESIAN_POINT('Origin',(12.0000001788139,-7.00000010430813,0.));
#2207=CARTESIAN_POINT('',(189.000000178814,-7.00000010430813,84.8441915019665));
#2208=CARTESIAN_POINT('',(189.000002816319,-7.00000010430813,0.));
#2209=CARTESIAN_POINT('',(12.0000001788139,-7.00000010430813,84.8441915019665));
#2210=CARTESIAN_POINT('',(12.0000001788139,-7.00000010430813,84.8441915019665));
#2211=CARTESIAN_POINT('',(12.0000001788139,-7.00000010430813,0.));
#2212=CARTESIAN_POINT('Origin',(175.,25.,100.));
#2213=CARTESIAN_POINT('',(175.,15.,100.));
#2214=CARTESIAN_POINT('Origin',(15.,25.,100.));
#2215=CARTESIAN_POINT('',(15.,25.,100.));
#2216=CARTESIAN_POINT('Origin',(25.,25.,100.));
#2217=CARTESIAN_POINT('',(25.,15.,100.));
#2218=CARTESIAN_POINT('Origin',(175.,15.,100.));
#2219=CARTESIAN_POINT('Origin',(200.,210.,0.));
#2220=CARTESIAN_POINT('Origin',(92.4996317921371,-130.000001817942,0.));
#2221=CARTESIAN_POINT('',(92.4996317921371,-130.000001872579,3.));
#2222=CARTESIAN_POINT('',(92.4996317921371,-130.000001872579,0.));
#2223=CARTESIAN_POINT('',(107.499632015654,-130.000001872579,3.));
#2224=CARTESIAN_POINT('',(110.,-130.000001817942,3.));
#2225=CARTESIAN_POINT('',(107.499632015654,-130.000001872579,0.));
#2226=CARTESIAN_POINT('Origin',(92.5000013783574,-127.500001899898,0.));
#2227=CARTESIAN_POINT('',(90.0000013783574,-127.500001899898,3.));
#2228=CARTESIAN_POINT('',(90.0000013783574,-127.500001899898,0.));
#2229=CARTESIAN_POINT('Origin',(92.5000013783574,-127.500001899898,3.));
#2230=CARTESIAN_POINT('Origin',(90.,-122.000001817942,0.));
#2231=CARTESIAN_POINT('',(90.,-122.000001817942,3.));
#2232=CARTESIAN_POINT('',(90.,-122.000001817942,0.));
#2233=CARTESIAN_POINT('',(90.,-130.000001817942,3.));
#2234=CARTESIAN_POINT('Origin',(110.,-127.498367950413,0.));
#2235=CARTESIAN_POINT('',(110.000001067917,-127.498367950413,3.));
#2236=CARTESIAN_POINT('',(110.000001067917,-127.498367950413,0.));
#2237=CARTESIAN_POINT('',(110.,-122.000001817942,3.));
#2238=CARTESIAN_POINT('',(110.,-122.000001817942,3.));
#2239=CARTESIAN_POINT('',(110.,-122.000001817942,0.));
#2240=CARTESIAN_POINT('Origin',(107.500001601875,-127.500001899898,0.));
#2241=CARTESIAN_POINT('Origin',(107.500001601875,-127.500001899898,3.));
#2242=CARTESIAN_POINT('Origin',(100.000000800937,-126.00000185892,3.));
#2243=CARTESIAN_POINT('',(144.500001808628,-122.000001817942,3.));
#2244=CARTESIAN_POINT('Origin',(189.000002816319,-122.000001817942,0.));
#2245=CARTESIAN_POINT('',(12.0000001788139,-122.000001817942,42.4784476793967));
#2246=CARTESIAN_POINT('',(12.0000001788139,-122.000001817942,0.));
#2247=CARTESIAN_POINT('',(189.000000178814,-122.000001817942,42.4784476793967));
#2248=CARTESIAN_POINT('',(100.500001497567,-122.000001817942,42.4784476793967));
#2249=CARTESIAN_POINT('',(189.000002816319,-122.000001817942,0.));
#2250=CARTESIAN_POINT('Origin',(6.4999999180436,-39.5000034198165,0.));
#2251=CARTESIAN_POINT('',(3.9999999453624,-39.4996338336213,3.));
#2252=CARTESIAN_POINT('',(3.9999999453624,-39.4996338336213,0.));
#2253=CARTESIAN_POINT('',(6.49836596856855,-42.0000018179417,3.));
#2254=CARTESIAN_POINT('Origin',(6.4999999180436,-39.5000034198165,3.));
#2255=CARTESIAN_POINT('',(6.49836596856855,-42.0000018179417,0.));
#2256=CARTESIAN_POINT('Origin',(3.99999999999998,-24.4996336100706,0.));
#2257=CARTESIAN_POINT('',(3.99999999999998,-24.4996336100706,3.));
#2258=CARTESIAN_POINT('',(3.99999999999998,-24.4996336100706,0.));
#2259=CARTESIAN_POINT('',(3.99999999999998,-42.0000018179417,3.));
#2260=CARTESIAN_POINT('Origin',(6.4999999180436,-24.5000031962991,0.));
#2261=CARTESIAN_POINT('',(6.4999999180436,-22.0000018179417,3.));
#2262=CARTESIAN_POINT('',(6.4999999180436,-22.0000018179417,0.));
#2263=CARTESIAN_POINT('Origin',(6.4999999180436,-24.5000031962991,3.));
#2264=CARTESIAN_POINT('Origin',(12.,-22.0000018179417,0.));
#2265=CARTESIAN_POINT('',(12.,-22.0000018179417,3.));
#2266=CARTESIAN_POINT('',(12.0000001788139,-22.0000018179417,0.));
#2267=CARTESIAN_POINT('',(3.99999999999998,-22.0000018179417,3.));
#2268=CARTESIAN_POINT('Origin',(6.49836596856855,-42.0000018179417,0.));
#2269=CARTESIAN_POINT('',(12.,-42.0000018179417,3.));
#2270=CARTESIAN_POINT('',(12.,-42.0000018179417,3.));
#2271=CARTESIAN_POINT('',(12.0000001788139,-42.0000018179417,0.));
#2272=CARTESIAN_POINT('Origin',(7.9999999590218,-32.0000023519,3.));
#2273=CARTESIAN_POINT('',(12.0000001788139,-77.0000020849208,3.));
#2274=CARTESIAN_POINT('Origin',(196.999999836087,-39.4996336101196,0.));
#2275=CARTESIAN_POINT('',(196.999999836087,-39.4996336101196,3.));
#2276=CARTESIAN_POINT('',(196.999999836087,-39.4996336101196,0.));
#2277=CARTESIAN_POINT('',(196.999999836087,-24.4996333866021,3.));
#2278=CARTESIAN_POINT('',(196.999999836087,-22.0000045746565,3.));
#2279=CARTESIAN_POINT('',(196.999999836087,-24.4996333866021,0.));
#2280=CARTESIAN_POINT('Origin',(194.499999918044,-39.5000031962991,0.));
#2281=CARTESIAN_POINT('',(194.499999918044,-42.0000045746565,3.));
#2282=CARTESIAN_POINT('',(194.499999918044,-42.0000045746565,0.));
#2283=CARTESIAN_POINT('Origin',(194.499999918044,-39.5000031962991,3.));
#2284=CARTESIAN_POINT('Origin',(188.999999836087,-42.0000045746565,0.));
#2285=CARTESIAN_POINT('',(189.000002816319,-42.0000045746565,3.));
#2286=CARTESIAN_POINT('',(189.000002816319,-42.0000045746565,0.));
#2287=CARTESIAN_POINT('',(196.999999836087,-42.0000045746565,3.));
#2288=CARTESIAN_POINT('Origin',(194.498365968563,-22.0000045746565,0.));
#2289=CARTESIAN_POINT('',(194.498365968563,-22.0000035067399,3.));
#2290=CARTESIAN_POINT('',(194.498365968563,-22.0000035067399,0.));
#2291=CARTESIAN_POINT('',(189.000002816319,-22.0000045746565,3.));
#2292=CARTESIAN_POINT('',(188.999999836087,-22.0000045746565,3.));
#2293=CARTESIAN_POINT('',(189.000002816319,-22.0000045746565,0.));
#2294=CARTESIAN_POINT('Origin',(194.499999918044,-24.5000029727817,0.));
#2295=CARTESIAN_POINT('Origin',(194.499999918044,-24.5000029727817,3.));
#2296=CARTESIAN_POINT('Origin',(192.999999877065,-32.0000037737191,3.));
#2297=CARTESIAN_POINT('',(189.000002816319,-19.5000019390136,3.));
#2298=CARTESIAN_POINT('Origin',(12.0000001788139,-122.000001817942,0.));
#2299=CARTESIAN_POINT('',(12.0000001788139,-2.11809295071885,71.431261833606));
#2300=CARTESIAN_POINT('',(12.0000001788139,-122.000001817942,42.4784476793967));
#2301=CARTESIAN_POINT('Origin',(189.000002816319,-7.00000010430813,0.));
#2302=CARTESIAN_POINT('',(189.000000178814,-122.000001817942,42.4784476793967));
#2303=CARTESIAN_POINT('',(189.000002816319,4.60812940983908,52.9511177797423));
#2304=CARTESIAN_POINT('Origin',(12.0000001788139,-11.0521386016818,95.9773505240034));
#2305=CARTESIAN_POINT('Origin',(12.0000001788139,-126.383333961581,54.521553766016));
#2306=CARTESIAN_POINT('Origin',(0.,-145.,0.));
#2307=UNCERTAINTY_MEASURE_WITH_UNIT(LENGTH_MEASURE(0.01),#2311,
'DISTANCE_ACCURACY_VALUE',
'Maximum model space distance between geometric entities at asserted c
onnectivities');
#2308=UNCERTAINTY_MEASURE_WITH_UNIT(LENGTH_MEASURE(0.01),#2311,
'DISTANCE_ACCURACY_VALUE',
'Maximum model space distance between geometric entities at asserted c
onnectivities');
#2309=(
GEOMETRIC_REPRESENTATION_CONTEXT(3)
GLOBAL_UNCERTAINTY_ASSIGNED_CONTEXT((#2307))
GLOBAL_UNIT_ASSIGNED_CONTEXT((#2311,#2312,#2313))
REPRESENTATION_CONTEXT('','3D')
);
#2310=(
GEOMETRIC_REPRESENTATION_CONTEXT(3)
GLOBAL_UNCERTAINTY_ASSIGNED_CONTEXT((#2308))
GLOBAL_UNIT_ASSIGNED_CONTEXT((#2311,#2312,#2313))
REPRESENTATION_CONTEXT('','3D')
);
#2311=(
LENGTH_UNIT()
NAMED_UNIT(*)
SI_UNIT(.MILLI.,.METRE.)
);
#2312=(
NAMED_UNIT(*)
PLANE_ANGLE_UNIT()
SI_UNIT($,.RADIAN.)
);
#2313=(
NAMED_UNIT(*)
SI_UNIT($,.STERADIAN.)
SOLID_ANGLE_UNIT()
);
#2314=SHAPE_DEFINITION_REPRESENTATION(#2315,#2316);
#2315=PRODUCT_DEFINITION_SHAPE('',$,#2318);
#2316=SHAPE_REPRESENTATION('',(#1392),#2309);
#2317=PRODUCT_DEFINITION_CONTEXT('part definition',#2322,'design');
#2318=PRODUCT_DEFINITION('Keybowl complete','Keybowl complete v15',#2319,
#2317);
#2319=PRODUCT_DEFINITION_FORMATION('',$,#2324);
#2320=PRODUCT_RELATED_PRODUCT_CATEGORY('Keybowl complete v15',
'Keybowl complete v15',(#2324));
#2321=APPLICATION_PROTOCOL_DEFINITION('international standard',
'automotive_design',2009,#2322);
#2322=APPLICATION_CONTEXT(
'Core Data for Automotive Mechanical Design Process');
#2323=PRODUCT_CONTEXT('part definition',#2322,'mechanical');
#2324=PRODUCT('Keybowl complete','Keybowl complete v15',$,(#2323));
#2325=PRESENTATION_STYLE_ASSIGNMENT((#2330));
#2326=PRESENTATION_STYLE_ASSIGNMENT((#2331));
#2327=PRESENTATION_STYLE_ASSIGNMENT((#2332));
#2328=PRESENTATION_STYLE_ASSIGNMENT((#2333));
#2329=PRESENTATION_STYLE_ASSIGNMENT((#2334));
#2330=SURFACE_STYLE_USAGE(.BOTH.,#2335);
#2331=SURFACE_STYLE_USAGE(.BOTH.,#2336);
#2332=SURFACE_STYLE_USAGE(.BOTH.,#2337);
#2333=SURFACE_STYLE_USAGE(.BOTH.,#2338);
#2334=SURFACE_STYLE_USAGE(.BOTH.,#2339);
#2335=SURFACE_SIDE_STYLE('',(#2340));
#2336=SURFACE_SIDE_STYLE('',(#2341));
#2337=SURFACE_SIDE_STYLE('',(#2342));
#2338=SURFACE_SIDE_STYLE('',(#2343));
#2339=SURFACE_SIDE_STYLE('',(#2344));
#2340=SURFACE_STYLE_FILL_AREA(#2345);
#2341=SURFACE_STYLE_FILL_AREA(#2346);
#2342=SURFACE_STYLE_FILL_AREA(#2347);
#2343=SURFACE_STYLE_FILL_AREA(#2348);
#2344=SURFACE_STYLE_FILL_AREA(#2349);
#2345=FILL_AREA_STYLE('Stahl - satiniert',(#2350));
#2346=FILL_AREA_STYLE('ABS (Wei\X\DF)',(#2351));
#2347=FILL_AREA_STYLE('Peak (Beige)',(#2352));
#2348=FILL_AREA_STYLE('ABS (Wei\X\DF)',(#2353));
#2349=FILL_AREA_STYLE('Glas - matt (1)',(#2354));
#2350=FILL_AREA_STYLE_COLOUR('Stahl - satiniert',#2355);
#2351=FILL_AREA_STYLE_COLOUR('ABS (Wei\X\DF)',#2356);
#2352=FILL_AREA_STYLE_COLOUR('Peak (Beige)',#2357);
#2353=FILL_AREA_STYLE_COLOUR('ABS (Wei\X\DF)',#2358);
#2354=FILL_AREA_STYLE_COLOUR('Glas - matt (1)',#2359);
#2355=COLOUR_RGB('Stahl - satiniert',0.627450980392157,0.627450980392157,
0.627450980392157);
#2356=COLOUR_RGB('ABS (Wei\X\DF)',0.964705882352941,0.964705882352941,0.952941176470588);
#2357=COLOUR_RGB('Peak (Beige)',0.898039215686275,0.792156862745098,0.619607843137255);
#2358=COLOUR_RGB('ABS (Wei\X\DF)',0.964705882352941,0.964705882352941,0.952941176470588);
#2359=COLOUR_RGB('Glas - matt (1)',1.,1.,1.);
ENDSEC;
END-ISO-10303-21;
